G04 #@! TF.GenerationSoftware,KiCad,Pcbnew,(5.1.4)-1*
G04 #@! TF.CreationDate,2019-11-25T22:03:56-08:00*
G04 #@! TF.ProjectId,PassiveAttenuator,50617373-6976-4654-9174-74656e756174,rev?*
G04 #@! TF.SameCoordinates,Original*
G04 #@! TF.FileFunction,Legend,Bot*
G04 #@! TF.FilePolarity,Positive*
%FSLAX46Y46*%
G04 Gerber Fmt 4.6, Leading zero omitted, Abs format (unit mm)*
G04 Created by KiCad (PCBNEW (5.1.4)-1) date 2019-11-25 22:03:56*
%MOMM*%
%LPD*%
G04 APERTURE LIST*
%ADD10C,0.150000*%
G04 APERTURE END LIST*
D10*
X163914404Y-98802380D02*
X163914404Y-97802380D01*
X163533452Y-97802380D01*
X163438214Y-97850000D01*
X163390595Y-97897619D01*
X163342976Y-97992857D01*
X163342976Y-98135714D01*
X163390595Y-98230952D01*
X163438214Y-98278571D01*
X163533452Y-98326190D01*
X163914404Y-98326190D01*
X162485833Y-98802380D02*
X162485833Y-98278571D01*
X162533452Y-98183333D01*
X162628690Y-98135714D01*
X162819166Y-98135714D01*
X162914404Y-98183333D01*
X162485833Y-98754761D02*
X162581071Y-98802380D01*
X162819166Y-98802380D01*
X162914404Y-98754761D01*
X162962023Y-98659523D01*
X162962023Y-98564285D01*
X162914404Y-98469047D01*
X162819166Y-98421428D01*
X162581071Y-98421428D01*
X162485833Y-98373809D01*
X162057261Y-98754761D02*
X161962023Y-98802380D01*
X161771547Y-98802380D01*
X161676309Y-98754761D01*
X161628690Y-98659523D01*
X161628690Y-98611904D01*
X161676309Y-98516666D01*
X161771547Y-98469047D01*
X161914404Y-98469047D01*
X162009642Y-98421428D01*
X162057261Y-98326190D01*
X162057261Y-98278571D01*
X162009642Y-98183333D01*
X161914404Y-98135714D01*
X161771547Y-98135714D01*
X161676309Y-98183333D01*
X161247738Y-98754761D02*
X161152500Y-98802380D01*
X160962023Y-98802380D01*
X160866785Y-98754761D01*
X160819166Y-98659523D01*
X160819166Y-98611904D01*
X160866785Y-98516666D01*
X160962023Y-98469047D01*
X161104880Y-98469047D01*
X161200119Y-98421428D01*
X161247738Y-98326190D01*
X161247738Y-98278571D01*
X161200119Y-98183333D01*
X161104880Y-98135714D01*
X160962023Y-98135714D01*
X160866785Y-98183333D01*
X160390595Y-98802380D02*
X160390595Y-98135714D01*
X160390595Y-97802380D02*
X160438214Y-97850000D01*
X160390595Y-97897619D01*
X160342976Y-97850000D01*
X160390595Y-97802380D01*
X160390595Y-97897619D01*
X160009642Y-98135714D02*
X159771547Y-98802380D01*
X159533452Y-98135714D01*
X158771547Y-98754761D02*
X158866785Y-98802380D01*
X159057261Y-98802380D01*
X159152500Y-98754761D01*
X159200119Y-98659523D01*
X159200119Y-98278571D01*
X159152500Y-98183333D01*
X159057261Y-98135714D01*
X158866785Y-98135714D01*
X158771547Y-98183333D01*
X158723928Y-98278571D01*
X158723928Y-98373809D01*
X159200119Y-98469047D01*
X163962023Y-100166666D02*
X163485833Y-100166666D01*
X164057261Y-100452380D02*
X163723928Y-99452380D01*
X163390595Y-100452380D01*
X163200119Y-99785714D02*
X162819166Y-99785714D01*
X163057261Y-99452380D02*
X163057261Y-100309523D01*
X163009642Y-100404761D01*
X162914404Y-100452380D01*
X162819166Y-100452380D01*
X162628690Y-99785714D02*
X162247738Y-99785714D01*
X162485833Y-99452380D02*
X162485833Y-100309523D01*
X162438214Y-100404761D01*
X162342976Y-100452380D01*
X162247738Y-100452380D01*
X161533452Y-100404761D02*
X161628690Y-100452380D01*
X161819166Y-100452380D01*
X161914404Y-100404761D01*
X161962023Y-100309523D01*
X161962023Y-99928571D01*
X161914404Y-99833333D01*
X161819166Y-99785714D01*
X161628690Y-99785714D01*
X161533452Y-99833333D01*
X161485833Y-99928571D01*
X161485833Y-100023809D01*
X161962023Y-100119047D01*
X161057261Y-99785714D02*
X161057261Y-100452380D01*
X161057261Y-99880952D02*
X161009642Y-99833333D01*
X160914404Y-99785714D01*
X160771547Y-99785714D01*
X160676309Y-99833333D01*
X160628690Y-99928571D01*
X160628690Y-100452380D01*
X159723928Y-99785714D02*
X159723928Y-100452380D01*
X160152500Y-99785714D02*
X160152500Y-100309523D01*
X160104880Y-100404761D01*
X160009642Y-100452380D01*
X159866785Y-100452380D01*
X159771547Y-100404761D01*
X159723928Y-100357142D01*
X158819166Y-100452380D02*
X158819166Y-99928571D01*
X158866785Y-99833333D01*
X158962023Y-99785714D01*
X159152500Y-99785714D01*
X159247738Y-99833333D01*
X158819166Y-100404761D02*
X158914404Y-100452380D01*
X159152500Y-100452380D01*
X159247738Y-100404761D01*
X159295357Y-100309523D01*
X159295357Y-100214285D01*
X159247738Y-100119047D01*
X159152500Y-100071428D01*
X158914404Y-100071428D01*
X158819166Y-100023809D01*
X158485833Y-99785714D02*
X158104880Y-99785714D01*
X158342976Y-99452380D02*
X158342976Y-100309523D01*
X158295357Y-100404761D01*
X158200119Y-100452380D01*
X158104880Y-100452380D01*
X157628690Y-100452380D02*
X157723928Y-100404761D01*
X157771547Y-100357142D01*
X157819166Y-100261904D01*
X157819166Y-99976190D01*
X157771547Y-99880952D01*
X157723928Y-99833333D01*
X157628690Y-99785714D01*
X157485833Y-99785714D01*
X157390595Y-99833333D01*
X157342976Y-99880952D01*
X157295357Y-99976190D01*
X157295357Y-100261904D01*
X157342976Y-100357142D01*
X157390595Y-100404761D01*
X157485833Y-100452380D01*
X157628690Y-100452380D01*
X156866785Y-100452380D02*
X156866785Y-99785714D01*
X156866785Y-99976190D02*
X156819166Y-99880952D01*
X156771547Y-99833333D01*
X156676309Y-99785714D01*
X156581071Y-99785714D01*
X164009642Y-101435714D02*
X163771547Y-102102380D01*
X163533452Y-101435714D01*
X162628690Y-102102380D02*
X163200119Y-102102380D01*
X162914404Y-102102380D02*
X162914404Y-101102380D01*
X163009642Y-101245238D01*
X163104880Y-101340476D01*
X163200119Y-101388095D01*
X162200119Y-102007142D02*
X162152500Y-102054761D01*
X162200119Y-102102380D01*
X162247738Y-102054761D01*
X162200119Y-102007142D01*
X162200119Y-102102380D01*
X161533452Y-101102380D02*
X161438214Y-101102380D01*
X161342976Y-101150000D01*
X161295357Y-101197619D01*
X161247738Y-101292857D01*
X161200119Y-101483333D01*
X161200119Y-101721428D01*
X161247738Y-101911904D01*
X161295357Y-102007142D01*
X161342976Y-102054761D01*
X161438214Y-102102380D01*
X161533452Y-102102380D01*
X161628690Y-102054761D01*
X161676309Y-102007142D01*
X161723928Y-101911904D01*
X161771547Y-101721428D01*
X161771547Y-101483333D01*
X161723928Y-101292857D01*
X161676309Y-101197619D01*
X161628690Y-101150000D01*
X161533452Y-101102380D01*
X164238095Y-104154761D02*
X164142857Y-104202380D01*
X163952380Y-104202380D01*
X163857142Y-104154761D01*
X163809523Y-104059523D01*
X163809523Y-104011904D01*
X163857142Y-103916666D01*
X163952380Y-103869047D01*
X164095238Y-103869047D01*
X164190476Y-103821428D01*
X164238095Y-103726190D01*
X164238095Y-103678571D01*
X164190476Y-103583333D01*
X164095238Y-103535714D01*
X163952380Y-103535714D01*
X163857142Y-103583333D01*
X162952380Y-104154761D02*
X163047619Y-104202380D01*
X163238095Y-104202380D01*
X163333333Y-104154761D01*
X163380952Y-104107142D01*
X163428571Y-104011904D01*
X163428571Y-103726190D01*
X163380952Y-103630952D01*
X163333333Y-103583333D01*
X163238095Y-103535714D01*
X163047619Y-103535714D01*
X162952380Y-103583333D01*
X162523809Y-104202380D02*
X162523809Y-103202380D01*
X162095238Y-104202380D02*
X162095238Y-103678571D01*
X162142857Y-103583333D01*
X162238095Y-103535714D01*
X162380952Y-103535714D01*
X162476190Y-103583333D01*
X162523809Y-103630952D01*
X161238095Y-104154761D02*
X161333333Y-104202380D01*
X161523809Y-104202380D01*
X161619047Y-104154761D01*
X161666666Y-104059523D01*
X161666666Y-103678571D01*
X161619047Y-103583333D01*
X161523809Y-103535714D01*
X161333333Y-103535714D01*
X161238095Y-103583333D01*
X161190476Y-103678571D01*
X161190476Y-103773809D01*
X161666666Y-103869047D01*
X160761904Y-103535714D02*
X160761904Y-104202380D01*
X160761904Y-103630952D02*
X160714285Y-103583333D01*
X160619047Y-103535714D01*
X160476190Y-103535714D01*
X160380952Y-103583333D01*
X160333333Y-103678571D01*
X160333333Y-104202380D01*
X159857142Y-104202380D02*
X159857142Y-103202380D01*
X159761904Y-103821428D02*
X159476190Y-104202380D01*
X159476190Y-103535714D02*
X159857142Y-103916666D01*
X159190476Y-103535714D02*
X158809523Y-103535714D01*
X159047619Y-103202380D02*
X159047619Y-104059523D01*
X159000000Y-104154761D01*
X158904761Y-104202380D01*
X158809523Y-104202380D01*
X158476190Y-104202380D02*
X158476190Y-103535714D01*
X158476190Y-103726190D02*
X158428571Y-103630952D01*
X158380952Y-103583333D01*
X158285714Y-103535714D01*
X158190476Y-103535714D01*
X157714285Y-104202380D02*
X157809523Y-104154761D01*
X157857142Y-104107142D01*
X157904761Y-104011904D01*
X157904761Y-103726190D01*
X157857142Y-103630952D01*
X157809523Y-103583333D01*
X157714285Y-103535714D01*
X157571428Y-103535714D01*
X157476190Y-103583333D01*
X157428571Y-103630952D01*
X157380952Y-103726190D01*
X157380952Y-104011904D01*
X157428571Y-104107142D01*
X157476190Y-104154761D01*
X157571428Y-104202380D01*
X157714285Y-104202380D01*
X156952380Y-103535714D02*
X156952380Y-104202380D01*
X156952380Y-103630952D02*
X156904761Y-103583333D01*
X156809523Y-103535714D01*
X156666666Y-103535714D01*
X156571428Y-103583333D01*
X156523809Y-103678571D01*
X156523809Y-104202380D01*
X156047619Y-104202380D02*
X156047619Y-103535714D01*
X156047619Y-103202380D02*
X156095238Y-103250000D01*
X156047619Y-103297619D01*
X156000000Y-103250000D01*
X156047619Y-103202380D01*
X156047619Y-103297619D01*
X155142857Y-104154761D02*
X155238095Y-104202380D01*
X155428571Y-104202380D01*
X155523809Y-104154761D01*
X155571428Y-104107142D01*
X155619047Y-104011904D01*
X155619047Y-103726190D01*
X155571428Y-103630952D01*
X155523809Y-103583333D01*
X155428571Y-103535714D01*
X155238095Y-103535714D01*
X155142857Y-103583333D01*
X154761904Y-104154761D02*
X154666666Y-104202380D01*
X154476190Y-104202380D01*
X154380952Y-104154761D01*
X154333333Y-104059523D01*
X154333333Y-104011904D01*
X154380952Y-103916666D01*
X154476190Y-103869047D01*
X154619047Y-103869047D01*
X154714285Y-103821428D01*
X154761904Y-103726190D01*
X154761904Y-103678571D01*
X154714285Y-103583333D01*
X154619047Y-103535714D01*
X154476190Y-103535714D01*
X154380952Y-103583333D01*
X153904761Y-104107142D02*
X153857142Y-104154761D01*
X153904761Y-104202380D01*
X153952380Y-104154761D01*
X153904761Y-104107142D01*
X153904761Y-104202380D01*
X153000000Y-104154761D02*
X153095238Y-104202380D01*
X153285714Y-104202380D01*
X153380952Y-104154761D01*
X153428571Y-104107142D01*
X153476190Y-104011904D01*
X153476190Y-103726190D01*
X153428571Y-103630952D01*
X153380952Y-103583333D01*
X153285714Y-103535714D01*
X153095238Y-103535714D01*
X153000000Y-103583333D01*
X152428571Y-104202380D02*
X152523809Y-104154761D01*
X152571428Y-104107142D01*
X152619047Y-104011904D01*
X152619047Y-103726190D01*
X152571428Y-103630952D01*
X152523809Y-103583333D01*
X152428571Y-103535714D01*
X152285714Y-103535714D01*
X152190476Y-103583333D01*
X152142857Y-103630952D01*
X152095238Y-103726190D01*
X152095238Y-104011904D01*
X152142857Y-104107142D01*
X152190476Y-104154761D01*
X152285714Y-104202380D01*
X152428571Y-104202380D01*
X151666666Y-104202380D02*
X151666666Y-103535714D01*
X151666666Y-103630952D02*
X151619047Y-103583333D01*
X151523809Y-103535714D01*
X151380952Y-103535714D01*
X151285714Y-103583333D01*
X151238095Y-103678571D01*
X151238095Y-104202380D01*
X151238095Y-103678571D02*
X151190476Y-103583333D01*
X151095238Y-103535714D01*
X150952380Y-103535714D01*
X150857142Y-103583333D01*
X150809523Y-103678571D01*
X150809523Y-104202380D01*
M02*
