G04 #@! TF.GenerationSoftware,KiCad,Pcbnew,(5.1.4)-1*
G04 #@! TF.CreationDate,2019-11-25T22:03:56-08:00*
G04 #@! TF.ProjectId,PassiveAttenuator,50617373-6976-4654-9174-74656e756174,rev?*
G04 #@! TF.SameCoordinates,Original*
G04 #@! TF.FileFunction,Soldermask,Bot*
G04 #@! TF.FilePolarity,Negative*
%FSLAX46Y46*%
G04 Gerber Fmt 4.6, Leading zero omitted, Abs format (unit mm)*
G04 Created by KiCad (PCBNEW (5.1.4)-1) date 2019-11-25 22:03:56*
%MOMM*%
%LPD*%
G04 APERTURE LIST*
%ADD10C,0.100000*%
G04 APERTURE END LIST*
D10*
G36*
X154257023Y-143310590D02*
G01*
X154357682Y-143341125D01*
X154408013Y-143356392D01*
X154547165Y-143430771D01*
X154669133Y-143530867D01*
X154769229Y-143652835D01*
X154843608Y-143791987D01*
X154844601Y-143795260D01*
X154889410Y-143942977D01*
X154901000Y-144060655D01*
X154901000Y-145939345D01*
X154889410Y-146057023D01*
X154858875Y-146157682D01*
X154843608Y-146208013D01*
X154769230Y-146347164D01*
X154769229Y-146347165D01*
X154669133Y-146469133D01*
X154569376Y-146551000D01*
X154547164Y-146569229D01*
X154408012Y-146643608D01*
X154357681Y-146658875D01*
X154257022Y-146689410D01*
X154100000Y-146704875D01*
X153942977Y-146689410D01*
X153842318Y-146658875D01*
X153791987Y-146643608D01*
X153652835Y-146569229D01*
X153557995Y-146491396D01*
X153530867Y-146469133D01*
X153430771Y-146347164D01*
X153356393Y-146208013D01*
X153356392Y-146208012D01*
X153341125Y-146157681D01*
X153310590Y-146057022D01*
X153299000Y-145939344D01*
X153299001Y-144060655D01*
X153310591Y-143942977D01*
X153355400Y-143795260D01*
X153356393Y-143791987D01*
X153430772Y-143652835D01*
X153530868Y-143530867D01*
X153652836Y-143430771D01*
X153791988Y-143356392D01*
X153842319Y-143341125D01*
X153942978Y-143310590D01*
X154100000Y-143295125D01*
X154257023Y-143310590D01*
X154257023Y-143310590D01*
G37*
G36*
X162557023Y-143310590D02*
G01*
X162657682Y-143341125D01*
X162708013Y-143356392D01*
X162847165Y-143430771D01*
X162969133Y-143530867D01*
X163069229Y-143652835D01*
X163143608Y-143791987D01*
X163144601Y-143795260D01*
X163189410Y-143942977D01*
X163201000Y-144060655D01*
X163201000Y-145939345D01*
X163189410Y-146057023D01*
X163158875Y-146157682D01*
X163143608Y-146208013D01*
X163069230Y-146347164D01*
X163069229Y-146347165D01*
X162969133Y-146469133D01*
X162869376Y-146551000D01*
X162847164Y-146569229D01*
X162708012Y-146643608D01*
X162657681Y-146658875D01*
X162557022Y-146689410D01*
X162400000Y-146704875D01*
X162242977Y-146689410D01*
X162142318Y-146658875D01*
X162091987Y-146643608D01*
X161952835Y-146569229D01*
X161857995Y-146491396D01*
X161830867Y-146469133D01*
X161730771Y-146347164D01*
X161656393Y-146208013D01*
X161656392Y-146208012D01*
X161641125Y-146157681D01*
X161610590Y-146057022D01*
X161599000Y-145939344D01*
X161599001Y-144060655D01*
X161610591Y-143942977D01*
X161655400Y-143795260D01*
X161656393Y-143791987D01*
X161730772Y-143652835D01*
X161830868Y-143530867D01*
X161952836Y-143430771D01*
X162091988Y-143356392D01*
X162142319Y-143341125D01*
X162242978Y-143310590D01*
X162400000Y-143295125D01*
X162557023Y-143310590D01*
X162557023Y-143310590D01*
G37*
G36*
X157779585Y-143478802D02*
G01*
X157929410Y-143508604D01*
X158211674Y-143625521D01*
X158465705Y-143795259D01*
X158681741Y-144011295D01*
X158851479Y-144265326D01*
X158968396Y-144547590D01*
X159028000Y-144847240D01*
X159028000Y-145152760D01*
X158968396Y-145452410D01*
X158851479Y-145734674D01*
X158681741Y-145988705D01*
X158465705Y-146204741D01*
X158211674Y-146374479D01*
X157929410Y-146491396D01*
X157779585Y-146521198D01*
X157629761Y-146551000D01*
X157324239Y-146551000D01*
X157174415Y-146521198D01*
X157024590Y-146491396D01*
X156742326Y-146374479D01*
X156488295Y-146204741D01*
X156272259Y-145988705D01*
X156102521Y-145734674D01*
X155985604Y-145452410D01*
X155926000Y-145152760D01*
X155926000Y-144847240D01*
X155985604Y-144547590D01*
X156102521Y-144265326D01*
X156272259Y-144011295D01*
X156488295Y-143795259D01*
X156742326Y-143625521D01*
X157024590Y-143508604D01*
X157174415Y-143478802D01*
X157324239Y-143449000D01*
X157629761Y-143449000D01*
X157779585Y-143478802D01*
X157779585Y-143478802D01*
G37*
G36*
X151966000Y-146016000D02*
G01*
X150034000Y-146016000D01*
X150034000Y-143984000D01*
X151966000Y-143984000D01*
X151966000Y-146016000D01*
X151966000Y-146016000D01*
G37*
G36*
X154257023Y-128310590D02*
G01*
X154357682Y-128341125D01*
X154408013Y-128356392D01*
X154547165Y-128430771D01*
X154669133Y-128530867D01*
X154769229Y-128652835D01*
X154843608Y-128791987D01*
X154844601Y-128795260D01*
X154889410Y-128942977D01*
X154901000Y-129060655D01*
X154901000Y-130939345D01*
X154889410Y-131057023D01*
X154858875Y-131157682D01*
X154843608Y-131208013D01*
X154769230Y-131347164D01*
X154769229Y-131347165D01*
X154669133Y-131469133D01*
X154569376Y-131551000D01*
X154547164Y-131569229D01*
X154408012Y-131643608D01*
X154357681Y-131658875D01*
X154257022Y-131689410D01*
X154100000Y-131704875D01*
X153942977Y-131689410D01*
X153842318Y-131658875D01*
X153791987Y-131643608D01*
X153652835Y-131569229D01*
X153557995Y-131491396D01*
X153530867Y-131469133D01*
X153430771Y-131347164D01*
X153356393Y-131208013D01*
X153356392Y-131208012D01*
X153341125Y-131157681D01*
X153310590Y-131057022D01*
X153299000Y-130939344D01*
X153299001Y-129060655D01*
X153310591Y-128942977D01*
X153355400Y-128795260D01*
X153356393Y-128791987D01*
X153430772Y-128652835D01*
X153530868Y-128530867D01*
X153652836Y-128430771D01*
X153791988Y-128356392D01*
X153842319Y-128341125D01*
X153942978Y-128310590D01*
X154100000Y-128295125D01*
X154257023Y-128310590D01*
X154257023Y-128310590D01*
G37*
G36*
X162557023Y-128310590D02*
G01*
X162657682Y-128341125D01*
X162708013Y-128356392D01*
X162847165Y-128430771D01*
X162969133Y-128530867D01*
X163069229Y-128652835D01*
X163143608Y-128791987D01*
X163144601Y-128795260D01*
X163189410Y-128942977D01*
X163201000Y-129060655D01*
X163201000Y-130939345D01*
X163189410Y-131057023D01*
X163158875Y-131157682D01*
X163143608Y-131208013D01*
X163069230Y-131347164D01*
X163069229Y-131347165D01*
X162969133Y-131469133D01*
X162869376Y-131551000D01*
X162847164Y-131569229D01*
X162708012Y-131643608D01*
X162657681Y-131658875D01*
X162557022Y-131689410D01*
X162400000Y-131704875D01*
X162242977Y-131689410D01*
X162142318Y-131658875D01*
X162091987Y-131643608D01*
X161952835Y-131569229D01*
X161857995Y-131491396D01*
X161830867Y-131469133D01*
X161730771Y-131347164D01*
X161656393Y-131208013D01*
X161656392Y-131208012D01*
X161641125Y-131157681D01*
X161610590Y-131057022D01*
X161599000Y-130939344D01*
X161599001Y-129060655D01*
X161610591Y-128942977D01*
X161655400Y-128795260D01*
X161656393Y-128791987D01*
X161730772Y-128652835D01*
X161830868Y-128530867D01*
X161952836Y-128430771D01*
X162091988Y-128356392D01*
X162142319Y-128341125D01*
X162242978Y-128310590D01*
X162400000Y-128295125D01*
X162557023Y-128310590D01*
X162557023Y-128310590D01*
G37*
G36*
X157779585Y-128478802D02*
G01*
X157929410Y-128508604D01*
X158211674Y-128625521D01*
X158465705Y-128795259D01*
X158681741Y-129011295D01*
X158851479Y-129265326D01*
X158968396Y-129547590D01*
X159028000Y-129847240D01*
X159028000Y-130152760D01*
X158968396Y-130452410D01*
X158851479Y-130734674D01*
X158681741Y-130988705D01*
X158465705Y-131204741D01*
X158211674Y-131374479D01*
X157929410Y-131491396D01*
X157779585Y-131521198D01*
X157629761Y-131551000D01*
X157324239Y-131551000D01*
X157174415Y-131521198D01*
X157024590Y-131491396D01*
X156742326Y-131374479D01*
X156488295Y-131204741D01*
X156272259Y-130988705D01*
X156102521Y-130734674D01*
X155985604Y-130452410D01*
X155926000Y-130152760D01*
X155926000Y-129847240D01*
X155985604Y-129547590D01*
X156102521Y-129265326D01*
X156272259Y-129011295D01*
X156488295Y-128795259D01*
X156742326Y-128625521D01*
X157024590Y-128508604D01*
X157174415Y-128478802D01*
X157324239Y-128449000D01*
X157629761Y-128449000D01*
X157779585Y-128478802D01*
X157779585Y-128478802D01*
G37*
G36*
X151966000Y-131016000D02*
G01*
X150034000Y-131016000D01*
X150034000Y-128984000D01*
X151966000Y-128984000D01*
X151966000Y-131016000D01*
X151966000Y-131016000D01*
G37*
G36*
X160277395Y-116585546D02*
G01*
X160450466Y-116657234D01*
X160450467Y-116657235D01*
X160606227Y-116761310D01*
X160738690Y-116893773D01*
X160738691Y-116893775D01*
X160842766Y-117049534D01*
X160914454Y-117222605D01*
X160951000Y-117406333D01*
X160951000Y-117593667D01*
X160914454Y-117777395D01*
X160842766Y-117950466D01*
X160842765Y-117950467D01*
X160738690Y-118106227D01*
X160606227Y-118238690D01*
X160527818Y-118291081D01*
X160450466Y-118342766D01*
X160277395Y-118414454D01*
X160093667Y-118451000D01*
X159906333Y-118451000D01*
X159722605Y-118414454D01*
X159549534Y-118342766D01*
X159472182Y-118291081D01*
X159393773Y-118238690D01*
X159261310Y-118106227D01*
X159157235Y-117950467D01*
X159157234Y-117950466D01*
X159085546Y-117777395D01*
X159049000Y-117593667D01*
X159049000Y-117406333D01*
X159085546Y-117222605D01*
X159157234Y-117049534D01*
X159261309Y-116893775D01*
X159261310Y-116893773D01*
X159393773Y-116761310D01*
X159549533Y-116657235D01*
X159549534Y-116657234D01*
X159722605Y-116585546D01*
X159906333Y-116549000D01*
X160093667Y-116549000D01*
X160277395Y-116585546D01*
X160277395Y-116585546D01*
G37*
G36*
X157777395Y-116585546D02*
G01*
X157950466Y-116657234D01*
X157950467Y-116657235D01*
X158106227Y-116761310D01*
X158238690Y-116893773D01*
X158238691Y-116893775D01*
X158342766Y-117049534D01*
X158414454Y-117222605D01*
X158451000Y-117406333D01*
X158451000Y-117593667D01*
X158414454Y-117777395D01*
X158342766Y-117950466D01*
X158342765Y-117950467D01*
X158238690Y-118106227D01*
X158106227Y-118238690D01*
X158027818Y-118291081D01*
X157950466Y-118342766D01*
X157777395Y-118414454D01*
X157593667Y-118451000D01*
X157406333Y-118451000D01*
X157222605Y-118414454D01*
X157049534Y-118342766D01*
X156972182Y-118291081D01*
X156893773Y-118238690D01*
X156761310Y-118106227D01*
X156657235Y-117950467D01*
X156657234Y-117950466D01*
X156585546Y-117777395D01*
X156549000Y-117593667D01*
X156549000Y-117406333D01*
X156585546Y-117222605D01*
X156657234Y-117049534D01*
X156761309Y-116893775D01*
X156761310Y-116893773D01*
X156893773Y-116761310D01*
X157049533Y-116657235D01*
X157049534Y-116657234D01*
X157222605Y-116585546D01*
X157406333Y-116549000D01*
X157593667Y-116549000D01*
X157777395Y-116585546D01*
X157777395Y-116585546D01*
G37*
G36*
X155277395Y-116585546D02*
G01*
X155450466Y-116657234D01*
X155450467Y-116657235D01*
X155606227Y-116761310D01*
X155738690Y-116893773D01*
X155738691Y-116893775D01*
X155842766Y-117049534D01*
X155914454Y-117222605D01*
X155951000Y-117406333D01*
X155951000Y-117593667D01*
X155914454Y-117777395D01*
X155842766Y-117950466D01*
X155842765Y-117950467D01*
X155738690Y-118106227D01*
X155606227Y-118238690D01*
X155527818Y-118291081D01*
X155450466Y-118342766D01*
X155277395Y-118414454D01*
X155093667Y-118451000D01*
X154906333Y-118451000D01*
X154722605Y-118414454D01*
X154549534Y-118342766D01*
X154472182Y-118291081D01*
X154393773Y-118238690D01*
X154261310Y-118106227D01*
X154157235Y-117950467D01*
X154157234Y-117950466D01*
X154085546Y-117777395D01*
X154049000Y-117593667D01*
X154049000Y-117406333D01*
X154085546Y-117222605D01*
X154157234Y-117049534D01*
X154261309Y-116893775D01*
X154261310Y-116893773D01*
X154393773Y-116761310D01*
X154549533Y-116657235D01*
X154549534Y-116657234D01*
X154722605Y-116585546D01*
X154906333Y-116549000D01*
X155093667Y-116549000D01*
X155277395Y-116585546D01*
X155277395Y-116585546D01*
G37*
G36*
X153348254Y-108027818D02*
G01*
X153721511Y-108182426D01*
X153721513Y-108182427D01*
X154057436Y-108406884D01*
X154343116Y-108692564D01*
X154567574Y-109028489D01*
X154722182Y-109401746D01*
X154801000Y-109797993D01*
X154801000Y-110202007D01*
X154722182Y-110598254D01*
X154567574Y-110971511D01*
X154567573Y-110971513D01*
X154343116Y-111307436D01*
X154057436Y-111593116D01*
X153721513Y-111817573D01*
X153721512Y-111817574D01*
X153721511Y-111817574D01*
X153348254Y-111972182D01*
X152952007Y-112051000D01*
X152547993Y-112051000D01*
X152151746Y-111972182D01*
X151778489Y-111817574D01*
X151778488Y-111817574D01*
X151778487Y-111817573D01*
X151442564Y-111593116D01*
X151156884Y-111307436D01*
X150932427Y-110971513D01*
X150932426Y-110971511D01*
X150777818Y-110598254D01*
X150699000Y-110202007D01*
X150699000Y-109797993D01*
X150777818Y-109401746D01*
X150932426Y-109028489D01*
X151156884Y-108692564D01*
X151442564Y-108406884D01*
X151778487Y-108182427D01*
X151778489Y-108182426D01*
X152151746Y-108027818D01*
X152547993Y-107949000D01*
X152952007Y-107949000D01*
X153348254Y-108027818D01*
X153348254Y-108027818D01*
G37*
G36*
X162848254Y-108027818D02*
G01*
X163221511Y-108182426D01*
X163221513Y-108182427D01*
X163557436Y-108406884D01*
X163843116Y-108692564D01*
X164067574Y-109028489D01*
X164222182Y-109401746D01*
X164301000Y-109797993D01*
X164301000Y-110202007D01*
X164222182Y-110598254D01*
X164067574Y-110971511D01*
X164067573Y-110971513D01*
X163843116Y-111307436D01*
X163557436Y-111593116D01*
X163221513Y-111817573D01*
X163221512Y-111817574D01*
X163221511Y-111817574D01*
X162848254Y-111972182D01*
X162452007Y-112051000D01*
X162047993Y-112051000D01*
X161651746Y-111972182D01*
X161278489Y-111817574D01*
X161278488Y-111817574D01*
X161278487Y-111817573D01*
X160942564Y-111593116D01*
X160656884Y-111307436D01*
X160432427Y-110971513D01*
X160432426Y-110971511D01*
X160277818Y-110598254D01*
X160199000Y-110202007D01*
X160199000Y-109797993D01*
X160277818Y-109401746D01*
X160432426Y-109028489D01*
X160656884Y-108692564D01*
X160942564Y-108406884D01*
X161278487Y-108182427D01*
X161278489Y-108182426D01*
X161651746Y-108027818D01*
X162047993Y-107949000D01*
X162452007Y-107949000D01*
X162848254Y-108027818D01*
X162848254Y-108027818D01*
G37*
G36*
X154257023Y-88310590D02*
G01*
X154357682Y-88341125D01*
X154408013Y-88356392D01*
X154547165Y-88430771D01*
X154669133Y-88530867D01*
X154769229Y-88652835D01*
X154843608Y-88791987D01*
X154844601Y-88795260D01*
X154889410Y-88942977D01*
X154901000Y-89060655D01*
X154901000Y-90939345D01*
X154889410Y-91057023D01*
X154858875Y-91157682D01*
X154843608Y-91208013D01*
X154769230Y-91347164D01*
X154769229Y-91347165D01*
X154669133Y-91469133D01*
X154569376Y-91551000D01*
X154547164Y-91569229D01*
X154408012Y-91643608D01*
X154357681Y-91658875D01*
X154257022Y-91689410D01*
X154100000Y-91704875D01*
X153942977Y-91689410D01*
X153842318Y-91658875D01*
X153791987Y-91643608D01*
X153652835Y-91569229D01*
X153557995Y-91491396D01*
X153530867Y-91469133D01*
X153430771Y-91347164D01*
X153356393Y-91208013D01*
X153356392Y-91208012D01*
X153341125Y-91157681D01*
X153310590Y-91057022D01*
X153299000Y-90939344D01*
X153299001Y-89060655D01*
X153310591Y-88942977D01*
X153355400Y-88795260D01*
X153356393Y-88791987D01*
X153430772Y-88652835D01*
X153530868Y-88530867D01*
X153652836Y-88430771D01*
X153791988Y-88356392D01*
X153842319Y-88341125D01*
X153942978Y-88310590D01*
X154100000Y-88295125D01*
X154257023Y-88310590D01*
X154257023Y-88310590D01*
G37*
G36*
X162557023Y-88310590D02*
G01*
X162657682Y-88341125D01*
X162708013Y-88356392D01*
X162847165Y-88430771D01*
X162969133Y-88530867D01*
X163069229Y-88652835D01*
X163143608Y-88791987D01*
X163144601Y-88795260D01*
X163189410Y-88942977D01*
X163201000Y-89060655D01*
X163201000Y-90939345D01*
X163189410Y-91057023D01*
X163158875Y-91157682D01*
X163143608Y-91208013D01*
X163069230Y-91347164D01*
X163069229Y-91347165D01*
X162969133Y-91469133D01*
X162869376Y-91551000D01*
X162847164Y-91569229D01*
X162708012Y-91643608D01*
X162657681Y-91658875D01*
X162557022Y-91689410D01*
X162400000Y-91704875D01*
X162242977Y-91689410D01*
X162142318Y-91658875D01*
X162091987Y-91643608D01*
X161952835Y-91569229D01*
X161857995Y-91491396D01*
X161830867Y-91469133D01*
X161730771Y-91347164D01*
X161656393Y-91208013D01*
X161656392Y-91208012D01*
X161641125Y-91157681D01*
X161610590Y-91057022D01*
X161599000Y-90939344D01*
X161599001Y-89060655D01*
X161610591Y-88942977D01*
X161655400Y-88795260D01*
X161656393Y-88791987D01*
X161730772Y-88652835D01*
X161830868Y-88530867D01*
X161952836Y-88430771D01*
X162091988Y-88356392D01*
X162142319Y-88341125D01*
X162242978Y-88310590D01*
X162400000Y-88295125D01*
X162557023Y-88310590D01*
X162557023Y-88310590D01*
G37*
G36*
X157779585Y-88478802D02*
G01*
X157929410Y-88508604D01*
X158211674Y-88625521D01*
X158465705Y-88795259D01*
X158681741Y-89011295D01*
X158851479Y-89265326D01*
X158968396Y-89547590D01*
X159028000Y-89847240D01*
X159028000Y-90152760D01*
X158968396Y-90452410D01*
X158851479Y-90734674D01*
X158681741Y-90988705D01*
X158465705Y-91204741D01*
X158211674Y-91374479D01*
X157929410Y-91491396D01*
X157779585Y-91521198D01*
X157629761Y-91551000D01*
X157324239Y-91551000D01*
X157174415Y-91521198D01*
X157024590Y-91491396D01*
X156742326Y-91374479D01*
X156488295Y-91204741D01*
X156272259Y-90988705D01*
X156102521Y-90734674D01*
X155985604Y-90452410D01*
X155926000Y-90152760D01*
X155926000Y-89847240D01*
X155985604Y-89547590D01*
X156102521Y-89265326D01*
X156272259Y-89011295D01*
X156488295Y-88795259D01*
X156742326Y-88625521D01*
X157024590Y-88508604D01*
X157174415Y-88478802D01*
X157324239Y-88449000D01*
X157629761Y-88449000D01*
X157779585Y-88478802D01*
X157779585Y-88478802D01*
G37*
G36*
X151966000Y-91016000D02*
G01*
X150034000Y-91016000D01*
X150034000Y-88984000D01*
X151966000Y-88984000D01*
X151966000Y-91016000D01*
X151966000Y-91016000D01*
G37*
G36*
X154257023Y-73310590D02*
G01*
X154357682Y-73341125D01*
X154408013Y-73356392D01*
X154547165Y-73430771D01*
X154669133Y-73530867D01*
X154769229Y-73652835D01*
X154843608Y-73791987D01*
X154844601Y-73795260D01*
X154889410Y-73942977D01*
X154901000Y-74060655D01*
X154901000Y-75939345D01*
X154889410Y-76057023D01*
X154858875Y-76157682D01*
X154843608Y-76208013D01*
X154769230Y-76347164D01*
X154769229Y-76347165D01*
X154669133Y-76469133D01*
X154569376Y-76551000D01*
X154547164Y-76569229D01*
X154408012Y-76643608D01*
X154357681Y-76658875D01*
X154257022Y-76689410D01*
X154100000Y-76704875D01*
X153942977Y-76689410D01*
X153842318Y-76658875D01*
X153791987Y-76643608D01*
X153652835Y-76569229D01*
X153557995Y-76491396D01*
X153530867Y-76469133D01*
X153430771Y-76347164D01*
X153356393Y-76208013D01*
X153356392Y-76208012D01*
X153341125Y-76157681D01*
X153310590Y-76057022D01*
X153299000Y-75939344D01*
X153299001Y-74060655D01*
X153310591Y-73942977D01*
X153355400Y-73795260D01*
X153356393Y-73791987D01*
X153430772Y-73652835D01*
X153530868Y-73530867D01*
X153652836Y-73430771D01*
X153791988Y-73356392D01*
X153842319Y-73341125D01*
X153942978Y-73310590D01*
X154100000Y-73295125D01*
X154257023Y-73310590D01*
X154257023Y-73310590D01*
G37*
G36*
X162557023Y-73310590D02*
G01*
X162657682Y-73341125D01*
X162708013Y-73356392D01*
X162847165Y-73430771D01*
X162969133Y-73530867D01*
X163069229Y-73652835D01*
X163143608Y-73791987D01*
X163144601Y-73795260D01*
X163189410Y-73942977D01*
X163201000Y-74060655D01*
X163201000Y-75939345D01*
X163189410Y-76057023D01*
X163158875Y-76157682D01*
X163143608Y-76208013D01*
X163069230Y-76347164D01*
X163069229Y-76347165D01*
X162969133Y-76469133D01*
X162869376Y-76551000D01*
X162847164Y-76569229D01*
X162708012Y-76643608D01*
X162657681Y-76658875D01*
X162557022Y-76689410D01*
X162400000Y-76704875D01*
X162242977Y-76689410D01*
X162142318Y-76658875D01*
X162091987Y-76643608D01*
X161952835Y-76569229D01*
X161857995Y-76491396D01*
X161830867Y-76469133D01*
X161730771Y-76347164D01*
X161656393Y-76208013D01*
X161656392Y-76208012D01*
X161641125Y-76157681D01*
X161610590Y-76057022D01*
X161599000Y-75939344D01*
X161599001Y-74060655D01*
X161610591Y-73942977D01*
X161655400Y-73795260D01*
X161656393Y-73791987D01*
X161730772Y-73652835D01*
X161830868Y-73530867D01*
X161952836Y-73430771D01*
X162091988Y-73356392D01*
X162142319Y-73341125D01*
X162242978Y-73310590D01*
X162400000Y-73295125D01*
X162557023Y-73310590D01*
X162557023Y-73310590D01*
G37*
G36*
X157779585Y-73478802D02*
G01*
X157929410Y-73508604D01*
X158211674Y-73625521D01*
X158465705Y-73795259D01*
X158681741Y-74011295D01*
X158851479Y-74265326D01*
X158968396Y-74547590D01*
X159028000Y-74847240D01*
X159028000Y-75152760D01*
X158968396Y-75452410D01*
X158851479Y-75734674D01*
X158681741Y-75988705D01*
X158465705Y-76204741D01*
X158211674Y-76374479D01*
X157929410Y-76491396D01*
X157779585Y-76521198D01*
X157629761Y-76551000D01*
X157324239Y-76551000D01*
X157174415Y-76521198D01*
X157024590Y-76491396D01*
X156742326Y-76374479D01*
X156488295Y-76204741D01*
X156272259Y-75988705D01*
X156102521Y-75734674D01*
X155985604Y-75452410D01*
X155926000Y-75152760D01*
X155926000Y-74847240D01*
X155985604Y-74547590D01*
X156102521Y-74265326D01*
X156272259Y-74011295D01*
X156488295Y-73795259D01*
X156742326Y-73625521D01*
X157024590Y-73508604D01*
X157174415Y-73478802D01*
X157324239Y-73449000D01*
X157629761Y-73449000D01*
X157779585Y-73478802D01*
X157779585Y-73478802D01*
G37*
G36*
X151966000Y-76016000D02*
G01*
X150034000Y-76016000D01*
X150034000Y-73984000D01*
X151966000Y-73984000D01*
X151966000Y-76016000D01*
X151966000Y-76016000D01*
G37*
G36*
X160277395Y-61585546D02*
G01*
X160450466Y-61657234D01*
X160450467Y-61657235D01*
X160606227Y-61761310D01*
X160738690Y-61893773D01*
X160738691Y-61893775D01*
X160842766Y-62049534D01*
X160914454Y-62222605D01*
X160951000Y-62406333D01*
X160951000Y-62593667D01*
X160914454Y-62777395D01*
X160842766Y-62950466D01*
X160842765Y-62950467D01*
X160738690Y-63106227D01*
X160606227Y-63238690D01*
X160527818Y-63291081D01*
X160450466Y-63342766D01*
X160277395Y-63414454D01*
X160093667Y-63451000D01*
X159906333Y-63451000D01*
X159722605Y-63414454D01*
X159549534Y-63342766D01*
X159472182Y-63291081D01*
X159393773Y-63238690D01*
X159261310Y-63106227D01*
X159157235Y-62950467D01*
X159157234Y-62950466D01*
X159085546Y-62777395D01*
X159049000Y-62593667D01*
X159049000Y-62406333D01*
X159085546Y-62222605D01*
X159157234Y-62049534D01*
X159261309Y-61893775D01*
X159261310Y-61893773D01*
X159393773Y-61761310D01*
X159549533Y-61657235D01*
X159549534Y-61657234D01*
X159722605Y-61585546D01*
X159906333Y-61549000D01*
X160093667Y-61549000D01*
X160277395Y-61585546D01*
X160277395Y-61585546D01*
G37*
G36*
X157777395Y-61585546D02*
G01*
X157950466Y-61657234D01*
X157950467Y-61657235D01*
X158106227Y-61761310D01*
X158238690Y-61893773D01*
X158238691Y-61893775D01*
X158342766Y-62049534D01*
X158414454Y-62222605D01*
X158451000Y-62406333D01*
X158451000Y-62593667D01*
X158414454Y-62777395D01*
X158342766Y-62950466D01*
X158342765Y-62950467D01*
X158238690Y-63106227D01*
X158106227Y-63238690D01*
X158027818Y-63291081D01*
X157950466Y-63342766D01*
X157777395Y-63414454D01*
X157593667Y-63451000D01*
X157406333Y-63451000D01*
X157222605Y-63414454D01*
X157049534Y-63342766D01*
X156972182Y-63291081D01*
X156893773Y-63238690D01*
X156761310Y-63106227D01*
X156657235Y-62950467D01*
X156657234Y-62950466D01*
X156585546Y-62777395D01*
X156549000Y-62593667D01*
X156549000Y-62406333D01*
X156585546Y-62222605D01*
X156657234Y-62049534D01*
X156761309Y-61893775D01*
X156761310Y-61893773D01*
X156893773Y-61761310D01*
X157049533Y-61657235D01*
X157049534Y-61657234D01*
X157222605Y-61585546D01*
X157406333Y-61549000D01*
X157593667Y-61549000D01*
X157777395Y-61585546D01*
X157777395Y-61585546D01*
G37*
G36*
X155277395Y-61585546D02*
G01*
X155450466Y-61657234D01*
X155450467Y-61657235D01*
X155606227Y-61761310D01*
X155738690Y-61893773D01*
X155738691Y-61893775D01*
X155842766Y-62049534D01*
X155914454Y-62222605D01*
X155951000Y-62406333D01*
X155951000Y-62593667D01*
X155914454Y-62777395D01*
X155842766Y-62950466D01*
X155842765Y-62950467D01*
X155738690Y-63106227D01*
X155606227Y-63238690D01*
X155527818Y-63291081D01*
X155450466Y-63342766D01*
X155277395Y-63414454D01*
X155093667Y-63451000D01*
X154906333Y-63451000D01*
X154722605Y-63414454D01*
X154549534Y-63342766D01*
X154472182Y-63291081D01*
X154393773Y-63238690D01*
X154261310Y-63106227D01*
X154157235Y-62950467D01*
X154157234Y-62950466D01*
X154085546Y-62777395D01*
X154049000Y-62593667D01*
X154049000Y-62406333D01*
X154085546Y-62222605D01*
X154157234Y-62049534D01*
X154261309Y-61893775D01*
X154261310Y-61893773D01*
X154393773Y-61761310D01*
X154549533Y-61657235D01*
X154549534Y-61657234D01*
X154722605Y-61585546D01*
X154906333Y-61549000D01*
X155093667Y-61549000D01*
X155277395Y-61585546D01*
X155277395Y-61585546D01*
G37*
G36*
X153348254Y-53027818D02*
G01*
X153721511Y-53182426D01*
X153721513Y-53182427D01*
X154057436Y-53406884D01*
X154343116Y-53692564D01*
X154567574Y-54028489D01*
X154722182Y-54401746D01*
X154801000Y-54797993D01*
X154801000Y-55202007D01*
X154722182Y-55598254D01*
X154567574Y-55971511D01*
X154567573Y-55971513D01*
X154343116Y-56307436D01*
X154057436Y-56593116D01*
X153721513Y-56817573D01*
X153721512Y-56817574D01*
X153721511Y-56817574D01*
X153348254Y-56972182D01*
X152952007Y-57051000D01*
X152547993Y-57051000D01*
X152151746Y-56972182D01*
X151778489Y-56817574D01*
X151778488Y-56817574D01*
X151778487Y-56817573D01*
X151442564Y-56593116D01*
X151156884Y-56307436D01*
X150932427Y-55971513D01*
X150932426Y-55971511D01*
X150777818Y-55598254D01*
X150699000Y-55202007D01*
X150699000Y-54797993D01*
X150777818Y-54401746D01*
X150932426Y-54028489D01*
X151156884Y-53692564D01*
X151442564Y-53406884D01*
X151778487Y-53182427D01*
X151778489Y-53182426D01*
X152151746Y-53027818D01*
X152547993Y-52949000D01*
X152952007Y-52949000D01*
X153348254Y-53027818D01*
X153348254Y-53027818D01*
G37*
G36*
X162848254Y-53027818D02*
G01*
X163221511Y-53182426D01*
X163221513Y-53182427D01*
X163557436Y-53406884D01*
X163843116Y-53692564D01*
X164067574Y-54028489D01*
X164222182Y-54401746D01*
X164301000Y-54797993D01*
X164301000Y-55202007D01*
X164222182Y-55598254D01*
X164067574Y-55971511D01*
X164067573Y-55971513D01*
X163843116Y-56307436D01*
X163557436Y-56593116D01*
X163221513Y-56817573D01*
X163221512Y-56817574D01*
X163221511Y-56817574D01*
X162848254Y-56972182D01*
X162452007Y-57051000D01*
X162047993Y-57051000D01*
X161651746Y-56972182D01*
X161278489Y-56817574D01*
X161278488Y-56817574D01*
X161278487Y-56817573D01*
X160942564Y-56593116D01*
X160656884Y-56307436D01*
X160432427Y-55971513D01*
X160432426Y-55971511D01*
X160277818Y-55598254D01*
X160199000Y-55202007D01*
X160199000Y-54797993D01*
X160277818Y-54401746D01*
X160432426Y-54028489D01*
X160656884Y-53692564D01*
X160942564Y-53406884D01*
X161278487Y-53182427D01*
X161278489Y-53182426D01*
X161651746Y-53027818D01*
X162047993Y-52949000D01*
X162452007Y-52949000D01*
X162848254Y-53027818D01*
X162848254Y-53027818D01*
G37*
M02*
