M48
INCH
T1C0.0295
T2C0.0394
T3C0.0480
T4C0.0787
%
G90
G05
T2
X6.1024Y-2.4606
X6.2008Y-2.4606
X6.2992Y-2.4606
X6.1024Y-4.626
X6.2008Y-4.626
X6.2992Y-4.626
T3
X5.9331Y-5.1181
X5.9331Y-5.7087
X5.9331Y-2.9528
X5.9331Y-3.5433
T4
X6.0138Y-2.1654
X6.3878Y-2.1654
X6.0138Y-4.3307
X6.3878Y-4.3307
T1
G00X6.0551Y-5.6742
M15
G01X6.0551Y-5.7431
M16
G05
G00X6.0551Y-2.9183
M15
G01X6.0551Y-2.9872
M16
G05
G00X6.3819Y-2.9183
M15
G01X6.3819Y-2.9872
M16
G05
G00X6.0551Y-3.5089
M15
G01X6.0551Y-3.5778
M16
G05
G00X6.3819Y-3.5089
M15
G01X6.3819Y-3.5778
M16
G05
G00X6.0551Y-5.0837
M15
G01X6.0551Y-5.1526
M16
G05
G00X6.3819Y-5.0837
M15
G01X6.3819Y-5.1526
M16
G05
G00X6.3819Y-5.6742
M15
G01X6.3819Y-5.7431
M16
G05
T0
M30
