G04 #@! TF.GenerationSoftware,KiCad,Pcbnew,10.0.6*
G04 #@! TF.CreationDate,2026-10-07T21:11:45-07:00*
G04 #@! TF.ProjectId,Levels,4c657665-6c73-42e6-9b69-6361645f7063,1.0*
G04 #@! TF.SameCoordinates,Original*
G04 #@! TF.FileFunction,Legend,Bot*
G04 #@! TF.FilePolarity,Positive*
%FSLAX46Y46*%
G04 Gerber Fmt 4.6, Leading zero omitted, Abs format (unit mm)*
G04 Created by KiCad (PCBNEW 10.0.6) date 2026-10-07 21:11:45*
%MOMM*%
%LPD*%
G01*
G04 APERTURE LIST*
%ADD10C,0.150000*%
%ADD11C,0.020000*%
G04 APERTURE END LIST*
D10*
X163691792Y-97774580D02*
X163739411Y-97822200D01*
X163739411Y-97822200D02*
X163882268Y-97869819D01*
X163882268Y-97869819D02*
X163977506Y-97869819D01*
X163977506Y-97869819D02*
X164120363Y-97822200D01*
X164120363Y-97822200D02*
X164215601Y-97726961D01*
X164215601Y-97726961D02*
X164263220Y-97631723D01*
X164263220Y-97631723D02*
X164310839Y-97441247D01*
X164310839Y-97441247D02*
X164310839Y-97298390D01*
X164310839Y-97298390D02*
X164263220Y-97107914D01*
X164263220Y-97107914D02*
X164215601Y-97012676D01*
X164215601Y-97012676D02*
X164120363Y-96917438D01*
X164120363Y-96917438D02*
X163977506Y-96869819D01*
X163977506Y-96869819D02*
X163882268Y-96869819D01*
X163882268Y-96869819D02*
X163739411Y-96917438D01*
X163739411Y-96917438D02*
X163691792Y-96965057D01*
X162691792Y-97774580D02*
X162739411Y-97822200D01*
X162739411Y-97822200D02*
X162882268Y-97869819D01*
X162882268Y-97869819D02*
X162977506Y-97869819D01*
X162977506Y-97869819D02*
X163120363Y-97822200D01*
X163120363Y-97822200D02*
X163215601Y-97726961D01*
X163215601Y-97726961D02*
X163263220Y-97631723D01*
X163263220Y-97631723D02*
X163310839Y-97441247D01*
X163310839Y-97441247D02*
X163310839Y-97298390D01*
X163310839Y-97298390D02*
X163263220Y-97107914D01*
X163263220Y-97107914D02*
X163215601Y-97012676D01*
X163215601Y-97012676D02*
X163120363Y-96917438D01*
X163120363Y-96917438D02*
X162977506Y-96869819D01*
X162977506Y-96869819D02*
X162882268Y-96869819D01*
X162882268Y-96869819D02*
X162739411Y-96917438D01*
X162739411Y-96917438D02*
X162691792Y-96965057D01*
X161167982Y-97346009D02*
X161025125Y-97393628D01*
X161025125Y-97393628D02*
X160977506Y-97441247D01*
X160977506Y-97441247D02*
X160929887Y-97536485D01*
X160929887Y-97536485D02*
X160929887Y-97679342D01*
X160929887Y-97679342D02*
X160977506Y-97774580D01*
X160977506Y-97774580D02*
X161025125Y-97822200D01*
X161025125Y-97822200D02*
X161120363Y-97869819D01*
X161120363Y-97869819D02*
X161501315Y-97869819D01*
X161501315Y-97869819D02*
X161501315Y-96869819D01*
X161501315Y-96869819D02*
X161167982Y-96869819D01*
X161167982Y-96869819D02*
X161072744Y-96917438D01*
X161072744Y-96917438D02*
X161025125Y-96965057D01*
X161025125Y-96965057D02*
X160977506Y-97060295D01*
X160977506Y-97060295D02*
X160977506Y-97155533D01*
X160977506Y-97155533D02*
X161025125Y-97250771D01*
X161025125Y-97250771D02*
X161072744Y-97298390D01*
X161072744Y-97298390D02*
X161167982Y-97346009D01*
X161167982Y-97346009D02*
X161501315Y-97346009D01*
X160310839Y-97393628D02*
X160310839Y-97869819D01*
X160644172Y-96869819D02*
X160310839Y-97393628D01*
X160310839Y-97393628D02*
X159977506Y-96869819D01*
X159644172Y-97488866D02*
X158882268Y-97488866D01*
X158406077Y-97869819D02*
X158406077Y-96869819D01*
X158406077Y-96869819D02*
X157834649Y-97869819D01*
X157834649Y-97869819D02*
X157834649Y-96869819D01*
X156787030Y-97774580D02*
X156834649Y-97822200D01*
X156834649Y-97822200D02*
X156977506Y-97869819D01*
X156977506Y-97869819D02*
X157072744Y-97869819D01*
X157072744Y-97869819D02*
X157215601Y-97822200D01*
X157215601Y-97822200D02*
X157310839Y-97726961D01*
X157310839Y-97726961D02*
X157358458Y-97631723D01*
X157358458Y-97631723D02*
X157406077Y-97441247D01*
X157406077Y-97441247D02*
X157406077Y-97298390D01*
X157406077Y-97298390D02*
X157358458Y-97107914D01*
X157358458Y-97107914D02*
X157310839Y-97012676D01*
X157310839Y-97012676D02*
X157215601Y-96917438D01*
X157215601Y-96917438D02*
X157072744Y-96869819D01*
X157072744Y-96869819D02*
X156977506Y-96869819D01*
X156977506Y-96869819D02*
X156834649Y-96917438D01*
X156834649Y-96917438D02*
X156787030Y-96965057D01*
X156358458Y-97488866D02*
X155596554Y-97488866D01*
X155167982Y-97822200D02*
X155025125Y-97869819D01*
X155025125Y-97869819D02*
X154787030Y-97869819D01*
X154787030Y-97869819D02*
X154691792Y-97822200D01*
X154691792Y-97822200D02*
X154644173Y-97774580D01*
X154644173Y-97774580D02*
X154596554Y-97679342D01*
X154596554Y-97679342D02*
X154596554Y-97584104D01*
X154596554Y-97584104D02*
X154644173Y-97488866D01*
X154644173Y-97488866D02*
X154691792Y-97441247D01*
X154691792Y-97441247D02*
X154787030Y-97393628D01*
X154787030Y-97393628D02*
X154977506Y-97346009D01*
X154977506Y-97346009D02*
X155072744Y-97298390D01*
X155072744Y-97298390D02*
X155120363Y-97250771D01*
X155120363Y-97250771D02*
X155167982Y-97155533D01*
X155167982Y-97155533D02*
X155167982Y-97060295D01*
X155167982Y-97060295D02*
X155120363Y-96965057D01*
X155120363Y-96965057D02*
X155072744Y-96917438D01*
X155072744Y-96917438D02*
X154977506Y-96869819D01*
X154977506Y-96869819D02*
X154739411Y-96869819D01*
X154739411Y-96869819D02*
X154596554Y-96917438D01*
X154215601Y-97584104D02*
X153739411Y-97584104D01*
X154310839Y-97869819D02*
X153977506Y-96869819D01*
X153977506Y-96869819D02*
X153644173Y-97869819D01*
X152120363Y-97203152D02*
X152120363Y-97869819D01*
X152358458Y-96822200D02*
X152596553Y-97536485D01*
X152596553Y-97536485D02*
X151977506Y-97536485D01*
X151596553Y-97774580D02*
X151548934Y-97822200D01*
X151548934Y-97822200D02*
X151596553Y-97869819D01*
X151596553Y-97869819D02*
X151644172Y-97822200D01*
X151644172Y-97822200D02*
X151596553Y-97774580D01*
X151596553Y-97774580D02*
X151596553Y-97869819D01*
X150929887Y-96869819D02*
X150834649Y-96869819D01*
X150834649Y-96869819D02*
X150739411Y-96917438D01*
X150739411Y-96917438D02*
X150691792Y-96965057D01*
X150691792Y-96965057D02*
X150644173Y-97060295D01*
X150644173Y-97060295D02*
X150596554Y-97250771D01*
X150596554Y-97250771D02*
X150596554Y-97488866D01*
X150596554Y-97488866D02*
X150644173Y-97679342D01*
X150644173Y-97679342D02*
X150691792Y-97774580D01*
X150691792Y-97774580D02*
X150739411Y-97822200D01*
X150739411Y-97822200D02*
X150834649Y-97869819D01*
X150834649Y-97869819D02*
X150929887Y-97869819D01*
X150929887Y-97869819D02*
X151025125Y-97822200D01*
X151025125Y-97822200D02*
X151072744Y-97774580D01*
X151072744Y-97774580D02*
X151120363Y-97679342D01*
X151120363Y-97679342D02*
X151167982Y-97488866D01*
X151167982Y-97488866D02*
X151167982Y-97250771D01*
X151167982Y-97250771D02*
X151120363Y-97060295D01*
X151120363Y-97060295D02*
X151072744Y-96965057D01*
X151072744Y-96965057D02*
X151025125Y-96917438D01*
X151025125Y-96917438D02*
X150929887Y-96869819D01*
X164138095Y-71807200D02*
X164042857Y-71854819D01*
X164042857Y-71854819D02*
X163852381Y-71854819D01*
X163852381Y-71854819D02*
X163757143Y-71807200D01*
X163757143Y-71807200D02*
X163709524Y-71711961D01*
X163709524Y-71711961D02*
X163709524Y-71664342D01*
X163709524Y-71664342D02*
X163757143Y-71569104D01*
X163757143Y-71569104D02*
X163852381Y-71521485D01*
X163852381Y-71521485D02*
X163995238Y-71521485D01*
X163995238Y-71521485D02*
X164090476Y-71473866D01*
X164090476Y-71473866D02*
X164138095Y-71378628D01*
X164138095Y-71378628D02*
X164138095Y-71331009D01*
X164138095Y-71331009D02*
X164090476Y-71235771D01*
X164090476Y-71235771D02*
X163995238Y-71188152D01*
X163995238Y-71188152D02*
X163852381Y-71188152D01*
X163852381Y-71188152D02*
X163757143Y-71235771D01*
X162852381Y-71807200D02*
X162947619Y-71854819D01*
X162947619Y-71854819D02*
X163138095Y-71854819D01*
X163138095Y-71854819D02*
X163233333Y-71807200D01*
X163233333Y-71807200D02*
X163280952Y-71759580D01*
X163280952Y-71759580D02*
X163328571Y-71664342D01*
X163328571Y-71664342D02*
X163328571Y-71378628D01*
X163328571Y-71378628D02*
X163280952Y-71283390D01*
X163280952Y-71283390D02*
X163233333Y-71235771D01*
X163233333Y-71235771D02*
X163138095Y-71188152D01*
X163138095Y-71188152D02*
X162947619Y-71188152D01*
X162947619Y-71188152D02*
X162852381Y-71235771D01*
X162423809Y-71854819D02*
X162423809Y-70854819D01*
X161995238Y-71854819D02*
X161995238Y-71331009D01*
X161995238Y-71331009D02*
X162042857Y-71235771D01*
X162042857Y-71235771D02*
X162138095Y-71188152D01*
X162138095Y-71188152D02*
X162280952Y-71188152D01*
X162280952Y-71188152D02*
X162376190Y-71235771D01*
X162376190Y-71235771D02*
X162423809Y-71283390D01*
X161138095Y-71807200D02*
X161233333Y-71854819D01*
X161233333Y-71854819D02*
X161423809Y-71854819D01*
X161423809Y-71854819D02*
X161519047Y-71807200D01*
X161519047Y-71807200D02*
X161566666Y-71711961D01*
X161566666Y-71711961D02*
X161566666Y-71331009D01*
X161566666Y-71331009D02*
X161519047Y-71235771D01*
X161519047Y-71235771D02*
X161423809Y-71188152D01*
X161423809Y-71188152D02*
X161233333Y-71188152D01*
X161233333Y-71188152D02*
X161138095Y-71235771D01*
X161138095Y-71235771D02*
X161090476Y-71331009D01*
X161090476Y-71331009D02*
X161090476Y-71426247D01*
X161090476Y-71426247D02*
X161566666Y-71521485D01*
X160661904Y-71188152D02*
X160661904Y-71854819D01*
X160661904Y-71283390D02*
X160614285Y-71235771D01*
X160614285Y-71235771D02*
X160519047Y-71188152D01*
X160519047Y-71188152D02*
X160376190Y-71188152D01*
X160376190Y-71188152D02*
X160280952Y-71235771D01*
X160280952Y-71235771D02*
X160233333Y-71331009D01*
X160233333Y-71331009D02*
X160233333Y-71854819D01*
X159757142Y-71854819D02*
X159757142Y-70854819D01*
X159661904Y-71473866D02*
X159376190Y-71854819D01*
X159376190Y-71188152D02*
X159757142Y-71569104D01*
X159090475Y-71188152D02*
X158709523Y-71188152D01*
X158947618Y-70854819D02*
X158947618Y-71711961D01*
X158947618Y-71711961D02*
X158899999Y-71807200D01*
X158899999Y-71807200D02*
X158804761Y-71854819D01*
X158804761Y-71854819D02*
X158709523Y-71854819D01*
X158376189Y-71854819D02*
X158376189Y-71188152D01*
X158376189Y-71378628D02*
X158328570Y-71283390D01*
X158328570Y-71283390D02*
X158280951Y-71235771D01*
X158280951Y-71235771D02*
X158185713Y-71188152D01*
X158185713Y-71188152D02*
X158090475Y-71188152D01*
X157614284Y-71854819D02*
X157709522Y-71807200D01*
X157709522Y-71807200D02*
X157757141Y-71759580D01*
X157757141Y-71759580D02*
X157804760Y-71664342D01*
X157804760Y-71664342D02*
X157804760Y-71378628D01*
X157804760Y-71378628D02*
X157757141Y-71283390D01*
X157757141Y-71283390D02*
X157709522Y-71235771D01*
X157709522Y-71235771D02*
X157614284Y-71188152D01*
X157614284Y-71188152D02*
X157471427Y-71188152D01*
X157471427Y-71188152D02*
X157376189Y-71235771D01*
X157376189Y-71235771D02*
X157328570Y-71283390D01*
X157328570Y-71283390D02*
X157280951Y-71378628D01*
X157280951Y-71378628D02*
X157280951Y-71664342D01*
X157280951Y-71664342D02*
X157328570Y-71759580D01*
X157328570Y-71759580D02*
X157376189Y-71807200D01*
X157376189Y-71807200D02*
X157471427Y-71854819D01*
X157471427Y-71854819D02*
X157614284Y-71854819D01*
X156852379Y-71188152D02*
X156852379Y-71854819D01*
X156852379Y-71283390D02*
X156804760Y-71235771D01*
X156804760Y-71235771D02*
X156709522Y-71188152D01*
X156709522Y-71188152D02*
X156566665Y-71188152D01*
X156566665Y-71188152D02*
X156471427Y-71235771D01*
X156471427Y-71235771D02*
X156423808Y-71331009D01*
X156423808Y-71331009D02*
X156423808Y-71854819D01*
X155947617Y-71854819D02*
X155947617Y-71188152D01*
X155947617Y-70854819D02*
X155995236Y-70902438D01*
X155995236Y-70902438D02*
X155947617Y-70950057D01*
X155947617Y-70950057D02*
X155899998Y-70902438D01*
X155899998Y-70902438D02*
X155947617Y-70854819D01*
X155947617Y-70854819D02*
X155947617Y-70950057D01*
X155042856Y-71807200D02*
X155138094Y-71854819D01*
X155138094Y-71854819D02*
X155328570Y-71854819D01*
X155328570Y-71854819D02*
X155423808Y-71807200D01*
X155423808Y-71807200D02*
X155471427Y-71759580D01*
X155471427Y-71759580D02*
X155519046Y-71664342D01*
X155519046Y-71664342D02*
X155519046Y-71378628D01*
X155519046Y-71378628D02*
X155471427Y-71283390D01*
X155471427Y-71283390D02*
X155423808Y-71235771D01*
X155423808Y-71235771D02*
X155328570Y-71188152D01*
X155328570Y-71188152D02*
X155138094Y-71188152D01*
X155138094Y-71188152D02*
X155042856Y-71235771D01*
X154661903Y-71807200D02*
X154566665Y-71854819D01*
X154566665Y-71854819D02*
X154376189Y-71854819D01*
X154376189Y-71854819D02*
X154280951Y-71807200D01*
X154280951Y-71807200D02*
X154233332Y-71711961D01*
X154233332Y-71711961D02*
X154233332Y-71664342D01*
X154233332Y-71664342D02*
X154280951Y-71569104D01*
X154280951Y-71569104D02*
X154376189Y-71521485D01*
X154376189Y-71521485D02*
X154519046Y-71521485D01*
X154519046Y-71521485D02*
X154614284Y-71473866D01*
X154614284Y-71473866D02*
X154661903Y-71378628D01*
X154661903Y-71378628D02*
X154661903Y-71331009D01*
X154661903Y-71331009D02*
X154614284Y-71235771D01*
X154614284Y-71235771D02*
X154519046Y-71188152D01*
X154519046Y-71188152D02*
X154376189Y-71188152D01*
X154376189Y-71188152D02*
X154280951Y-71235771D01*
X153804760Y-71759580D02*
X153757141Y-71807200D01*
X153757141Y-71807200D02*
X153804760Y-71854819D01*
X153804760Y-71854819D02*
X153852379Y-71807200D01*
X153852379Y-71807200D02*
X153804760Y-71759580D01*
X153804760Y-71759580D02*
X153804760Y-71854819D01*
X152899999Y-71807200D02*
X152995237Y-71854819D01*
X152995237Y-71854819D02*
X153185713Y-71854819D01*
X153185713Y-71854819D02*
X153280951Y-71807200D01*
X153280951Y-71807200D02*
X153328570Y-71759580D01*
X153328570Y-71759580D02*
X153376189Y-71664342D01*
X153376189Y-71664342D02*
X153376189Y-71378628D01*
X153376189Y-71378628D02*
X153328570Y-71283390D01*
X153328570Y-71283390D02*
X153280951Y-71235771D01*
X153280951Y-71235771D02*
X153185713Y-71188152D01*
X153185713Y-71188152D02*
X152995237Y-71188152D01*
X152995237Y-71188152D02*
X152899999Y-71235771D01*
X152328570Y-71854819D02*
X152423808Y-71807200D01*
X152423808Y-71807200D02*
X152471427Y-71759580D01*
X152471427Y-71759580D02*
X152519046Y-71664342D01*
X152519046Y-71664342D02*
X152519046Y-71378628D01*
X152519046Y-71378628D02*
X152471427Y-71283390D01*
X152471427Y-71283390D02*
X152423808Y-71235771D01*
X152423808Y-71235771D02*
X152328570Y-71188152D01*
X152328570Y-71188152D02*
X152185713Y-71188152D01*
X152185713Y-71188152D02*
X152090475Y-71235771D01*
X152090475Y-71235771D02*
X152042856Y-71283390D01*
X152042856Y-71283390D02*
X151995237Y-71378628D01*
X151995237Y-71378628D02*
X151995237Y-71664342D01*
X151995237Y-71664342D02*
X152042856Y-71759580D01*
X152042856Y-71759580D02*
X152090475Y-71807200D01*
X152090475Y-71807200D02*
X152185713Y-71854819D01*
X152185713Y-71854819D02*
X152328570Y-71854819D01*
X151566665Y-71854819D02*
X151566665Y-71188152D01*
X151566665Y-71283390D02*
X151519046Y-71235771D01*
X151519046Y-71235771D02*
X151423808Y-71188152D01*
X151423808Y-71188152D02*
X151280951Y-71188152D01*
X151280951Y-71188152D02*
X151185713Y-71235771D01*
X151185713Y-71235771D02*
X151138094Y-71331009D01*
X151138094Y-71331009D02*
X151138094Y-71854819D01*
X151138094Y-71331009D02*
X151090475Y-71235771D01*
X151090475Y-71235771D02*
X150995237Y-71188152D01*
X150995237Y-71188152D02*
X150852380Y-71188152D01*
X150852380Y-71188152D02*
X150757141Y-71235771D01*
X150757141Y-71235771D02*
X150709522Y-71331009D01*
X150709522Y-71331009D02*
X150709522Y-71854819D01*
X161690475Y-94402228D02*
X161547618Y-94449847D01*
X161547618Y-94449847D02*
X161309523Y-94449847D01*
X161309523Y-94449847D02*
X161214285Y-94402228D01*
X161214285Y-94402228D02*
X161166666Y-94354608D01*
X161166666Y-94354608D02*
X161119047Y-94259370D01*
X161119047Y-94259370D02*
X161119047Y-94164132D01*
X161119047Y-94164132D02*
X161166666Y-94068894D01*
X161166666Y-94068894D02*
X161214285Y-94021275D01*
X161214285Y-94021275D02*
X161309523Y-93973656D01*
X161309523Y-93973656D02*
X161499999Y-93926037D01*
X161499999Y-93926037D02*
X161595237Y-93878418D01*
X161595237Y-93878418D02*
X161642856Y-93830799D01*
X161642856Y-93830799D02*
X161690475Y-93735561D01*
X161690475Y-93735561D02*
X161690475Y-93640323D01*
X161690475Y-93640323D02*
X161642856Y-93545085D01*
X161642856Y-93545085D02*
X161595237Y-93497466D01*
X161595237Y-93497466D02*
X161499999Y-93449847D01*
X161499999Y-93449847D02*
X161261904Y-93449847D01*
X161261904Y-93449847D02*
X161119047Y-93497466D01*
X160833332Y-93449847D02*
X160261904Y-93449847D01*
X160547618Y-94449847D02*
X160547618Y-93449847D01*
X159928570Y-94068894D02*
X159166666Y-94068894D01*
X158499999Y-93449847D02*
X158404761Y-93449847D01*
X158404761Y-93449847D02*
X158309523Y-93497466D01*
X158309523Y-93497466D02*
X158261904Y-93545085D01*
X158261904Y-93545085D02*
X158214285Y-93640323D01*
X158214285Y-93640323D02*
X158166666Y-93830799D01*
X158166666Y-93830799D02*
X158166666Y-94068894D01*
X158166666Y-94068894D02*
X158214285Y-94259370D01*
X158214285Y-94259370D02*
X158261904Y-94354608D01*
X158261904Y-94354608D02*
X158309523Y-94402228D01*
X158309523Y-94402228D02*
X158404761Y-94449847D01*
X158404761Y-94449847D02*
X158499999Y-94449847D01*
X158499999Y-94449847D02*
X158595237Y-94402228D01*
X158595237Y-94402228D02*
X158642856Y-94354608D01*
X158642856Y-94354608D02*
X158690475Y-94259370D01*
X158690475Y-94259370D02*
X158738094Y-94068894D01*
X158738094Y-94068894D02*
X158738094Y-93830799D01*
X158738094Y-93830799D02*
X158690475Y-93640323D01*
X158690475Y-93640323D02*
X158642856Y-93545085D01*
X158642856Y-93545085D02*
X158595237Y-93497466D01*
X158595237Y-93497466D02*
X158499999Y-93449847D01*
X157785713Y-93545085D02*
X157738094Y-93497466D01*
X157738094Y-93497466D02*
X157642856Y-93449847D01*
X157642856Y-93449847D02*
X157404761Y-93449847D01*
X157404761Y-93449847D02*
X157309523Y-93497466D01*
X157309523Y-93497466D02*
X157261904Y-93545085D01*
X157261904Y-93545085D02*
X157214285Y-93640323D01*
X157214285Y-93640323D02*
X157214285Y-93735561D01*
X157214285Y-93735561D02*
X157261904Y-93878418D01*
X157261904Y-93878418D02*
X157833332Y-94449847D01*
X157833332Y-94449847D02*
X157214285Y-94449847D01*
X156119046Y-93783180D02*
X155880951Y-94449847D01*
X155880951Y-94449847D02*
X155642856Y-93783180D01*
X154738094Y-94449847D02*
X155309522Y-94449847D01*
X155023808Y-94449847D02*
X155023808Y-93449847D01*
X155023808Y-93449847D02*
X155119046Y-93592704D01*
X155119046Y-93592704D02*
X155214284Y-93687942D01*
X155214284Y-93687942D02*
X155309522Y-93735561D01*
X154309522Y-94354608D02*
X154261903Y-94402228D01*
X154261903Y-94402228D02*
X154309522Y-94449847D01*
X154309522Y-94449847D02*
X154357141Y-94402228D01*
X154357141Y-94402228D02*
X154309522Y-94354608D01*
X154309522Y-94354608D02*
X154309522Y-94449847D01*
X153642856Y-93449847D02*
X153547618Y-93449847D01*
X153547618Y-93449847D02*
X153452380Y-93497466D01*
X153452380Y-93497466D02*
X153404761Y-93545085D01*
X153404761Y-93545085D02*
X153357142Y-93640323D01*
X153357142Y-93640323D02*
X153309523Y-93830799D01*
X153309523Y-93830799D02*
X153309523Y-94068894D01*
X153309523Y-94068894D02*
X153357142Y-94259370D01*
X153357142Y-94259370D02*
X153404761Y-94354608D01*
X153404761Y-94354608D02*
X153452380Y-94402228D01*
X153452380Y-94402228D02*
X153547618Y-94449847D01*
X153547618Y-94449847D02*
X153642856Y-94449847D01*
X153642856Y-94449847D02*
X153738094Y-94402228D01*
X153738094Y-94402228D02*
X153785713Y-94354608D01*
X153785713Y-94354608D02*
X153833332Y-94259370D01*
X153833332Y-94259370D02*
X153880951Y-94068894D01*
X153880951Y-94068894D02*
X153880951Y-93830799D01*
X153880951Y-93830799D02*
X153833332Y-93640323D01*
X153833332Y-93640323D02*
X153785713Y-93545085D01*
X153785713Y-93545085D02*
X153738094Y-93497466D01*
X153738094Y-93497466D02*
X153642856Y-93449847D01*
X159095238Y-96059791D02*
X159571428Y-96059791D01*
X159571428Y-96059791D02*
X159571428Y-95059791D01*
X158380952Y-96012172D02*
X158476190Y-96059791D01*
X158476190Y-96059791D02*
X158666666Y-96059791D01*
X158666666Y-96059791D02*
X158761904Y-96012172D01*
X158761904Y-96012172D02*
X158809523Y-95916933D01*
X158809523Y-95916933D02*
X158809523Y-95535981D01*
X158809523Y-95535981D02*
X158761904Y-95440743D01*
X158761904Y-95440743D02*
X158666666Y-95393124D01*
X158666666Y-95393124D02*
X158476190Y-95393124D01*
X158476190Y-95393124D02*
X158380952Y-95440743D01*
X158380952Y-95440743D02*
X158333333Y-95535981D01*
X158333333Y-95535981D02*
X158333333Y-95631219D01*
X158333333Y-95631219D02*
X158809523Y-95726457D01*
X157999999Y-95393124D02*
X157761904Y-96059791D01*
X157761904Y-96059791D02*
X157523809Y-95393124D01*
X156761904Y-96012172D02*
X156857142Y-96059791D01*
X156857142Y-96059791D02*
X157047618Y-96059791D01*
X157047618Y-96059791D02*
X157142856Y-96012172D01*
X157142856Y-96012172D02*
X157190475Y-95916933D01*
X157190475Y-95916933D02*
X157190475Y-95535981D01*
X157190475Y-95535981D02*
X157142856Y-95440743D01*
X157142856Y-95440743D02*
X157047618Y-95393124D01*
X157047618Y-95393124D02*
X156857142Y-95393124D01*
X156857142Y-95393124D02*
X156761904Y-95440743D01*
X156761904Y-95440743D02*
X156714285Y-95535981D01*
X156714285Y-95535981D02*
X156714285Y-95631219D01*
X156714285Y-95631219D02*
X157190475Y-95726457D01*
X156142856Y-96059791D02*
X156238094Y-96012172D01*
X156238094Y-96012172D02*
X156285713Y-95916933D01*
X156285713Y-95916933D02*
X156285713Y-95059791D01*
X155809522Y-96012172D02*
X155714284Y-96059791D01*
X155714284Y-96059791D02*
X155523808Y-96059791D01*
X155523808Y-96059791D02*
X155428570Y-96012172D01*
X155428570Y-96012172D02*
X155380951Y-95916933D01*
X155380951Y-95916933D02*
X155380951Y-95869314D01*
X155380951Y-95869314D02*
X155428570Y-95774076D01*
X155428570Y-95774076D02*
X155523808Y-95726457D01*
X155523808Y-95726457D02*
X155666665Y-95726457D01*
X155666665Y-95726457D02*
X155761903Y-95678838D01*
X155761903Y-95678838D02*
X155809522Y-95583600D01*
X155809522Y-95583600D02*
X155809522Y-95535981D01*
X155809522Y-95535981D02*
X155761903Y-95440743D01*
X155761903Y-95440743D02*
X155666665Y-95393124D01*
X155666665Y-95393124D02*
X155523808Y-95393124D01*
X155523808Y-95393124D02*
X155428570Y-95440743D01*
D11*
X155931722Y-64818570D02*
X155803132Y-64878714D01*
X155660218Y-65007752D01*
X155658256Y-65009770D01*
X155530830Y-65159782D01*
X155471800Y-65295746D01*
X155457984Y-65459444D01*
X155473260Y-65630170D01*
X155534872Y-65763288D01*
X155657422Y-65902340D01*
X155804370Y-66030178D01*
X155939024Y-66088686D01*
X156094866Y-66101566D01*
X156322348Y-66068398D01*
X156517682Y-65988678D01*
X156592300Y-65948806D01*
X156678086Y-65919554D01*
X156792894Y-65899306D01*
X156954578Y-65886446D01*
X157180988Y-65879360D01*
X157489982Y-65876436D01*
X157763732Y-65876000D01*
X158134734Y-65876480D01*
X158409672Y-65879162D01*
X158605376Y-65885900D01*
X158738670Y-65898550D01*
X158826382Y-65918970D01*
X158885334Y-65949018D01*
X158932356Y-65990546D01*
X158947700Y-66006638D01*
X159048618Y-66183334D01*
X159079430Y-66395614D01*
X159041520Y-66602446D01*
X158936280Y-66762798D01*
X158921706Y-66775014D01*
X158863986Y-66815152D01*
X158796246Y-66844914D01*
X158701792Y-66865838D01*
X158563926Y-66879468D01*
X158365950Y-66887342D01*
X158091166Y-66891002D01*
X157722878Y-66891986D01*
X157653822Y-66892000D01*
X157258588Y-66893174D01*
X156956942Y-66897736D01*
X156729596Y-66907252D01*
X156557262Y-66923280D01*
X156420656Y-66947382D01*
X156300488Y-66981124D01*
X156225506Y-67007670D01*
X155890926Y-67188040D01*
X155637500Y-67443156D01*
X155472520Y-67762400D01*
X155403274Y-68135146D01*
X155401540Y-68208208D01*
X155444798Y-68610738D01*
X155576602Y-68944860D01*
X155800000Y-69215880D01*
X156096484Y-69417972D01*
X156196636Y-69468812D01*
X156288910Y-69507282D01*
X156390926Y-69535422D01*
X156520314Y-69555270D01*
X156694696Y-69568868D01*
X156931700Y-69578252D01*
X157248948Y-69585464D01*
X157595518Y-69591420D01*
X158002796Y-69599066D01*
X158313380Y-69607870D01*
X158543462Y-69619324D01*
X158709232Y-69634926D01*
X158826886Y-69656166D01*
X158912616Y-69684538D01*
X158978406Y-69718948D01*
X159241264Y-69819342D01*
X159509824Y-69814754D01*
X159759414Y-69707126D01*
X159830464Y-69651930D01*
X159952924Y-69530924D01*
X160011672Y-69417510D01*
X160029322Y-69259778D01*
X160029908Y-69201432D01*
X159674270Y-69201432D01*
X159666940Y-69250550D01*
X159574180Y-69382030D01*
X159423952Y-69441146D01*
X159250980Y-69420680D01*
X159140984Y-69359882D01*
X159073952Y-69250900D01*
X159090050Y-69122216D01*
X159172034Y-69005786D01*
X159302658Y-68933574D01*
X159376156Y-68924000D01*
X159520106Y-68966822D01*
X159630160Y-69071296D01*
X159674270Y-69201432D01*
X160029908Y-69201432D01*
X160029984Y-69193876D01*
X160020208Y-69011130D01*
X159974986Y-68886510D01*
X159870484Y-68765858D01*
X159821398Y-68719946D01*
X159593456Y-68572918D01*
X159350480Y-68522256D01*
X159116934Y-68570282D01*
X158998582Y-68641778D01*
X158943448Y-68679516D01*
X158876520Y-68707792D01*
X158781810Y-68727962D01*
X158643334Y-68741376D01*
X158445110Y-68749386D01*
X158171154Y-68753348D01*
X157805480Y-68754610D01*
X157664526Y-68754666D01*
X157266550Y-68754028D01*
X156965906Y-68751230D01*
X156747038Y-68744936D01*
X156594394Y-68733816D01*
X156492416Y-68716540D01*
X156425550Y-68691776D01*
X156378244Y-68658192D01*
X156362530Y-68643212D01*
X156232610Y-68440274D01*
X156201308Y-68206892D01*
X156269916Y-67969812D01*
X156325736Y-67879778D01*
X156359276Y-67842892D01*
X156408946Y-67814356D01*
X156489420Y-67792582D01*
X156615370Y-67775984D01*
X156801470Y-67762980D01*
X157062394Y-67751984D01*
X157412818Y-67741408D01*
X157668742Y-67734694D01*
X158124302Y-67721410D01*
X158483016Y-67705288D01*
X158760924Y-67682900D01*
X158974072Y-67650812D01*
X159138498Y-67605598D01*
X159270244Y-67543824D01*
X159385354Y-67462060D01*
X159499868Y-67356880D01*
X159517476Y-67339380D01*
X159703318Y-67126226D01*
X159817058Y-66914894D01*
X159873562Y-66667036D01*
X159887752Y-66384000D01*
X159881794Y-66142222D01*
X159855712Y-65968290D01*
X159799502Y-65817614D01*
X159733434Y-65696244D01*
X159631830Y-65543966D01*
X156399554Y-65543966D01*
X156319046Y-65655488D01*
X156149570Y-65704946D01*
X156101260Y-65706666D01*
X155962658Y-65689868D01*
X155895214Y-65623656D01*
X155877296Y-65569628D01*
X155865114Y-65411406D01*
X155881016Y-65312508D01*
X155928730Y-65232032D01*
X156025198Y-65205740D01*
X156124972Y-65209656D01*
X156276076Y-65240438D01*
X156357420Y-65317398D01*
X156383888Y-65378738D01*
X156399554Y-65543966D01*
X159631830Y-65543966D01*
X159599920Y-65496144D01*
X159451946Y-65339222D01*
X159274526Y-65220576D01*
X159052674Y-65135308D01*
X158771408Y-65078518D01*
X158415740Y-65045304D01*
X157970686Y-65030768D01*
X157692680Y-65028960D01*
X157323858Y-65027802D01*
X157049874Y-65023496D01*
X156852682Y-65014336D01*
X156714240Y-64998618D01*
X156616508Y-64974638D01*
X156541438Y-64940688D01*
X156502206Y-64916444D01*
X156299938Y-64831344D01*
X156095702Y-64803926D01*
X155931722Y-64818570D01*
G36*
X159733434Y-65696244D02*
G01*
X159799502Y-65817614D01*
X159855712Y-65968290D01*
X159881794Y-66142222D01*
X159887752Y-66384000D01*
X159873562Y-66667036D01*
X159817058Y-66914894D01*
X159703318Y-67126226D01*
X159517476Y-67339380D01*
X159499868Y-67356880D01*
X159385354Y-67462060D01*
X159270244Y-67543824D01*
X159138498Y-67605598D01*
X158974072Y-67650812D01*
X158760924Y-67682900D01*
X158483016Y-67705288D01*
X158124302Y-67721410D01*
X157668742Y-67734694D01*
X157412818Y-67741408D01*
X157062394Y-67751984D01*
X156801470Y-67762980D01*
X156615370Y-67775984D01*
X156489420Y-67792582D01*
X156408946Y-67814356D01*
X156359276Y-67842892D01*
X156325736Y-67879778D01*
X156269916Y-67969812D01*
X156201308Y-68206892D01*
X156232610Y-68440274D01*
X156362530Y-68643212D01*
X156378244Y-68658192D01*
X156425550Y-68691776D01*
X156492416Y-68716540D01*
X156594394Y-68733816D01*
X156747038Y-68744936D01*
X156965906Y-68751230D01*
X157266550Y-68754028D01*
X157664526Y-68754666D01*
X157805480Y-68754610D01*
X158171154Y-68753348D01*
X158445110Y-68749386D01*
X158643334Y-68741376D01*
X158781810Y-68727962D01*
X158876520Y-68707792D01*
X158943448Y-68679516D01*
X158998582Y-68641778D01*
X159116934Y-68570282D01*
X159350480Y-68522256D01*
X159593456Y-68572918D01*
X159821398Y-68719946D01*
X159870484Y-68765858D01*
X159974986Y-68886510D01*
X160020208Y-69011130D01*
X160029984Y-69193876D01*
X160029908Y-69201432D01*
X160029322Y-69259778D01*
X160011672Y-69417510D01*
X159952924Y-69530924D01*
X159830464Y-69651930D01*
X159759414Y-69707126D01*
X159509824Y-69814754D01*
X159241264Y-69819342D01*
X158978406Y-69718948D01*
X158912616Y-69684538D01*
X158826886Y-69656166D01*
X158709232Y-69634926D01*
X158543462Y-69619324D01*
X158313380Y-69607870D01*
X158002796Y-69599066D01*
X157595518Y-69591420D01*
X157248948Y-69585464D01*
X156931700Y-69578252D01*
X156694696Y-69568868D01*
X156520314Y-69555270D01*
X156390926Y-69535422D01*
X156288910Y-69507282D01*
X156196636Y-69468812D01*
X156096484Y-69417972D01*
X155851377Y-69250900D01*
X159073952Y-69250900D01*
X159140984Y-69359882D01*
X159250980Y-69420680D01*
X159423952Y-69441146D01*
X159574180Y-69382030D01*
X159666940Y-69250550D01*
X159674270Y-69201432D01*
X159630160Y-69071296D01*
X159520106Y-68966822D01*
X159376156Y-68924000D01*
X159302658Y-68933574D01*
X159172034Y-69005786D01*
X159090050Y-69122216D01*
X159073952Y-69250900D01*
X155851377Y-69250900D01*
X155800000Y-69215880D01*
X155576602Y-68944860D01*
X155444798Y-68610738D01*
X155401540Y-68208208D01*
X155403274Y-68135146D01*
X155472520Y-67762400D01*
X155637500Y-67443156D01*
X155890926Y-67188040D01*
X156225506Y-67007670D01*
X156300488Y-66981124D01*
X156420656Y-66947382D01*
X156557262Y-66923280D01*
X156729596Y-66907252D01*
X156956942Y-66897736D01*
X157258588Y-66893174D01*
X157653822Y-66892000D01*
X157722878Y-66891986D01*
X158091166Y-66891002D01*
X158365950Y-66887342D01*
X158563926Y-66879468D01*
X158701792Y-66865838D01*
X158796246Y-66844914D01*
X158863986Y-66815152D01*
X158921706Y-66775014D01*
X158936280Y-66762798D01*
X159041520Y-66602446D01*
X159079430Y-66395614D01*
X159048618Y-66183334D01*
X158947700Y-66006638D01*
X158932356Y-65990546D01*
X158885334Y-65949018D01*
X158826382Y-65918970D01*
X158738670Y-65898550D01*
X158605376Y-65885900D01*
X158409672Y-65879162D01*
X158134734Y-65876480D01*
X157763732Y-65876000D01*
X157489982Y-65876436D01*
X157180988Y-65879360D01*
X156954578Y-65886446D01*
X156792894Y-65899306D01*
X156678086Y-65919554D01*
X156592300Y-65948806D01*
X156517682Y-65988678D01*
X156322348Y-66068398D01*
X156094866Y-66101566D01*
X155939024Y-66088686D01*
X155804370Y-66030178D01*
X155657422Y-65902340D01*
X155534872Y-65763288D01*
X155473260Y-65630170D01*
X155457984Y-65459444D01*
X155462038Y-65411406D01*
X155865114Y-65411406D01*
X155877296Y-65569628D01*
X155895214Y-65623656D01*
X155962658Y-65689868D01*
X156101260Y-65706666D01*
X156149570Y-65704946D01*
X156319046Y-65655488D01*
X156399554Y-65543966D01*
X156383888Y-65378738D01*
X156357420Y-65317398D01*
X156276076Y-65240438D01*
X156124972Y-65209656D01*
X156025198Y-65205740D01*
X155928730Y-65232032D01*
X155881016Y-65312508D01*
X155865114Y-65411406D01*
X155462038Y-65411406D01*
X155471800Y-65295746D01*
X155530830Y-65159782D01*
X155658256Y-65009770D01*
X155660218Y-65007752D01*
X155803132Y-64878714D01*
X155931722Y-64818570D01*
X156095702Y-64803926D01*
X156299938Y-64831344D01*
X156502206Y-64916444D01*
X156541438Y-64940688D01*
X156616508Y-64974638D01*
X156714240Y-64998618D01*
X156852682Y-65014336D01*
X157049874Y-65023496D01*
X157323858Y-65027802D01*
X157692680Y-65028960D01*
X157970686Y-65030768D01*
X158415740Y-65045304D01*
X158771408Y-65078518D01*
X159052674Y-65135308D01*
X159274526Y-65220576D01*
X159451946Y-65339222D01*
X159599920Y-65496144D01*
X159631830Y-65543966D01*
X159733434Y-65696244D01*
G37*
M02*
