G04 #@! TF.GenerationSoftware,KiCad,Pcbnew,10.0.6*
G04 #@! TF.CreationDate,2026-10-07T21:11:45-07:00*
G04 #@! TF.ProjectId,Levels,4c657665-6c73-42e6-9b69-6361645f7063,1.0*
G04 #@! TF.SameCoordinates,Original*
G04 #@! TF.FileFunction,Copper,L2,Bot*
G04 #@! TF.FilePolarity,Positive*
%FSLAX46Y46*%
G04 Gerber Fmt 4.6, Leading zero omitted, Abs format (unit mm)*
G04 Created by KiCad (PCBNEW 10.0.6) date 2026-10-07 21:11:45*
%MOMM*%
%LPD*%
G01*
G04 APERTURE LIST*
G04 #@! TA.AperFunction,ComponentPad*
%ADD10R,1.830000X1.930000*%
G04 #@! TD*
G04 #@! TA.AperFunction,ComponentPad*
%ADD11O,1.500000X3.300000*%
G04 #@! TD*
G04 #@! TA.AperFunction,ComponentPad*
%ADD12C,4.000000*%
G04 #@! TD*
G04 #@! TA.AperFunction,ComponentPad*
%ADD13C,1.800000*%
G04 #@! TD*
G04 #@! TA.AperFunction,Conductor*
%ADD14C,1.000000*%
G04 #@! TD*
G04 APERTURE END LIST*
D10*
X150700000Y-90000000D03*
D11*
X162100000Y-90000000D03*
X153800000Y-90000000D03*
D12*
X152750000Y-55000000D03*
X162250000Y-55000000D03*
D13*
X160000000Y-62500000D03*
X157500000Y-62500000D03*
X155000000Y-62500000D03*
D10*
X150700000Y-145000000D03*
D11*
X162100000Y-145000000D03*
X153800000Y-145000000D03*
D12*
X152750000Y-110000000D03*
X162250000Y-110000000D03*
D13*
X160000000Y-117500000D03*
X157500000Y-117500000D03*
X155000000Y-117500000D03*
D10*
X150700000Y-130000000D03*
D11*
X162100000Y-130000000D03*
X153800000Y-130000000D03*
D10*
X150700000Y-75000000D03*
D11*
X162100000Y-75000000D03*
X153800000Y-75000000D03*
D14*
X159677001Y-64677001D02*
X158399999Y-63399999D01*
X158399999Y-63399999D02*
X157500000Y-62500000D01*
X162400000Y-90000000D02*
X162400000Y-87350000D01*
X162400000Y-87350000D02*
X159677001Y-84627001D01*
X159677001Y-84627001D02*
X159677001Y-64677001D01*
X163850010Y-102895992D02*
X163850010Y-79100010D01*
X154100000Y-130000000D02*
X154100000Y-118968002D01*
X153399999Y-113346003D02*
X163850010Y-102895992D01*
X163850010Y-79100010D02*
X162400000Y-77650000D01*
X162400000Y-75000000D02*
X162400000Y-64900000D01*
X154100000Y-118968002D02*
X153399999Y-118268001D01*
X162400000Y-64900000D02*
X160000000Y-62500000D01*
X153399999Y-118268001D02*
X153399999Y-113346003D01*
X162400000Y-77650000D02*
X162400000Y-75000000D01*
X159677001Y-119677001D02*
X158399999Y-118399999D01*
X159677001Y-139627001D02*
X159677001Y-119677001D01*
X162400000Y-142350000D02*
X159677001Y-139627001D01*
X158399999Y-118399999D02*
X157500000Y-117500000D01*
X162400000Y-145000000D02*
X162400000Y-142350000D01*
X162400000Y-119900000D02*
X160000000Y-117500000D01*
X162400000Y-130000000D02*
X162400000Y-119900000D01*
G04 #@! TA.AperFunction,Conductor*
G36*
X164388602Y-50542667D02*
G01*
X164429804Y-50570197D01*
X164457334Y-50611399D01*
X164467001Y-50660000D01*
X164467001Y-53475006D01*
X164457334Y-53523607D01*
X164429804Y-53564809D01*
X164388602Y-53592339D01*
X164340001Y-53602006D01*
X164291400Y-53592339D01*
X164275525Y-53584422D01*
X164117757Y-53491453D01*
X162609211Y-55000000D01*
X164117757Y-56508546D01*
X164275525Y-56415578D01*
X164322305Y-56399233D01*
X164371778Y-56402034D01*
X164416414Y-56423554D01*
X164449417Y-56460518D01*
X164465762Y-56507298D01*
X164467001Y-56524994D01*
X164467001Y-77984869D01*
X164457334Y-78033470D01*
X164429804Y-78074672D01*
X164388602Y-78102202D01*
X164340001Y-78111869D01*
X164291400Y-78102202D01*
X164250198Y-78074672D01*
X163445197Y-77269672D01*
X163417667Y-77228470D01*
X163408000Y-77179869D01*
X163408000Y-64955752D01*
X163408612Y-64943304D01*
X163412876Y-64900000D01*
X163393415Y-64702397D01*
X163335776Y-64512390D01*
X163242176Y-64337275D01*
X163116212Y-64183787D01*
X163082578Y-64156185D01*
X163073343Y-64147816D01*
X161445197Y-62519671D01*
X161417667Y-62478469D01*
X161408000Y-62429868D01*
X161408000Y-62361325D01*
X161353891Y-62089302D01*
X161247752Y-61833060D01*
X161093666Y-61602455D01*
X160897544Y-61406333D01*
X160666939Y-61252247D01*
X160410697Y-61146108D01*
X160138675Y-61092000D01*
X159861325Y-61092000D01*
X159589302Y-61146108D01*
X159333060Y-61252247D01*
X159102455Y-61406333D01*
X158906335Y-61602453D01*
X158855597Y-61678389D01*
X158820557Y-61713428D01*
X158774776Y-61732391D01*
X158725223Y-61732391D01*
X158679442Y-61713428D01*
X158644403Y-61678389D01*
X158593664Y-61602453D01*
X158397544Y-61406333D01*
X158166939Y-61252247D01*
X157910697Y-61146108D01*
X157638675Y-61092000D01*
X157361325Y-61092000D01*
X157089302Y-61146108D01*
X156833060Y-61252247D01*
X156602455Y-61406333D01*
X156406333Y-61602455D01*
X156317859Y-61734867D01*
X156282819Y-61769907D01*
X156237038Y-61788870D01*
X156187485Y-61788870D01*
X156172548Y-61784941D01*
X156098611Y-61760599D01*
X155359211Y-62500000D01*
X156098611Y-63239400D01*
X156172548Y-63215059D01*
X156221734Y-63209044D01*
X156269478Y-63222309D01*
X156308512Y-63252835D01*
X156317859Y-63265133D01*
X156406333Y-63397544D01*
X156602455Y-63593666D01*
X156833060Y-63747752D01*
X157089302Y-63853891D01*
X157361325Y-63908000D01*
X157429868Y-63908000D01*
X157478469Y-63917667D01*
X157519670Y-63945197D01*
X157726662Y-64152188D01*
X157726663Y-64152188D01*
X158631805Y-65057331D01*
X158659335Y-65098533D01*
X158669002Y-65147134D01*
X158669002Y-73345656D01*
X158659335Y-73394257D01*
X158631805Y-73435459D01*
X158590603Y-73462989D01*
X158542002Y-73472656D01*
X158493401Y-73462989D01*
X158468165Y-73446127D01*
X158467426Y-73447234D01*
X158128146Y-73220534D01*
X157762711Y-73069166D01*
X157374769Y-72992000D01*
X156979231Y-72992000D01*
X156591288Y-73069166D01*
X156225853Y-73220534D01*
X155896977Y-73440282D01*
X155617282Y-73719977D01*
X155397534Y-74048853D01*
X155302333Y-74278691D01*
X155274803Y-74319893D01*
X155233601Y-74347423D01*
X155185000Y-74357090D01*
X155136399Y-74347423D01*
X155095197Y-74319893D01*
X155067667Y-74278691D01*
X155058000Y-74230090D01*
X155058000Y-74038197D01*
X155039798Y-73853389D01*
X154967864Y-73616256D01*
X154851049Y-73397710D01*
X154693844Y-73206155D01*
X154502289Y-73048950D01*
X154283743Y-72932135D01*
X154046610Y-72860201D01*
X153800000Y-72835913D01*
X153553390Y-72860201D01*
X153316257Y-72932135D01*
X153097711Y-73048950D01*
X152906156Y-73206155D01*
X152748951Y-73397710D01*
X152632136Y-73616256D01*
X152560202Y-73853389D01*
X152542000Y-74038198D01*
X152542000Y-75961801D01*
X152560201Y-76146609D01*
X152632135Y-76383742D01*
X152748950Y-76602288D01*
X152906156Y-76793843D01*
X153097710Y-76951049D01*
X153316256Y-77067864D01*
X153553389Y-77139798D01*
X153799999Y-77164086D01*
X154046609Y-77139798D01*
X154283742Y-77067864D01*
X154502288Y-76951049D01*
X154693843Y-76793843D01*
X154851049Y-76602289D01*
X154967864Y-76383743D01*
X155039798Y-76146610D01*
X155058000Y-75961802D01*
X155058000Y-75769910D01*
X155067667Y-75721309D01*
X155095197Y-75680107D01*
X155136399Y-75652577D01*
X155185000Y-75642910D01*
X155233601Y-75652577D01*
X155274803Y-75680107D01*
X155302333Y-75721309D01*
X155397534Y-75951146D01*
X155617282Y-76280022D01*
X155896977Y-76559717D01*
X156225853Y-76779465D01*
X156591288Y-76930833D01*
X156979231Y-77008000D01*
X157374769Y-77008000D01*
X157762711Y-76930833D01*
X158128146Y-76779465D01*
X158467426Y-76552766D01*
X158468165Y-76553872D01*
X158493400Y-76537012D01*
X158542001Y-76527345D01*
X158590602Y-76537012D01*
X158631804Y-76564542D01*
X158659334Y-76605744D01*
X158669001Y-76654345D01*
X158669001Y-84571250D01*
X158668389Y-84583698D01*
X158664124Y-84627001D01*
X158683585Y-84824602D01*
X158741224Y-85014610D01*
X158834824Y-85189725D01*
X158960788Y-85343213D01*
X158994434Y-85370825D01*
X159003669Y-85379194D01*
X161354804Y-87730330D01*
X161382334Y-87771532D01*
X161392001Y-87820133D01*
X161392001Y-87993571D01*
X161382334Y-88042172D01*
X161354804Y-88083374D01*
X161345569Y-88091743D01*
X161206156Y-88206155D01*
X161048951Y-88397710D01*
X160932136Y-88616256D01*
X160860202Y-88853389D01*
X160842000Y-89038198D01*
X160842000Y-90961801D01*
X160860201Y-91146609D01*
X160932135Y-91383742D01*
X161048950Y-91602288D01*
X161206156Y-91793843D01*
X161397710Y-91951049D01*
X161616256Y-92067864D01*
X161853389Y-92139798D01*
X162099999Y-92164086D01*
X162346609Y-92139798D01*
X162583740Y-92067865D01*
X162655142Y-92029700D01*
X162702562Y-92015316D01*
X162751876Y-92020172D01*
X162795578Y-92043531D01*
X162827014Y-92081836D01*
X162841398Y-92129256D01*
X162842010Y-92141704D01*
X162842010Y-102425860D01*
X162832343Y-102474461D01*
X162804813Y-102515663D01*
X155464805Y-109855672D01*
X155423603Y-109883202D01*
X155375002Y-109892869D01*
X155326401Y-109883202D01*
X155285199Y-109855672D01*
X155257669Y-109814470D01*
X155248727Y-109779418D01*
X155217332Y-109486830D01*
X155069640Y-109014799D01*
X154869062Y-108639541D01*
X154617757Y-108491453D01*
X153064709Y-110044501D01*
X153061081Y-110062744D01*
X153033551Y-110103946D01*
X152853946Y-110283551D01*
X152812744Y-110311081D01*
X152794501Y-110314709D01*
X151241453Y-111867757D01*
X151389237Y-112118546D01*
X151805913Y-112336617D01*
X152279903Y-112475900D01*
X152534578Y-112498745D01*
X152582121Y-112512716D01*
X152620699Y-112543817D01*
X152644438Y-112587313D01*
X152649724Y-112636583D01*
X152635753Y-112684126D01*
X152621405Y-112705805D01*
X152557821Y-112783281D01*
X152464222Y-112958394D01*
X152406583Y-113148401D01*
X152387122Y-113346002D01*
X152391388Y-113389316D01*
X152392000Y-113401764D01*
X152391999Y-118212249D01*
X152391387Y-118224697D01*
X152387122Y-118268000D01*
X152406583Y-118465602D01*
X152464222Y-118655610D01*
X152557822Y-118830725D01*
X152683786Y-118984213D01*
X152717432Y-119011825D01*
X152726667Y-119020194D01*
X153054804Y-119348331D01*
X153082334Y-119389533D01*
X153092001Y-119438134D01*
X153092000Y-127993572D01*
X153082333Y-128042173D01*
X153054803Y-128083375D01*
X153045568Y-128091744D01*
X152906156Y-128206155D01*
X152748951Y-128397710D01*
X152632136Y-128616256D01*
X152560202Y-128853389D01*
X152542000Y-129038198D01*
X152542000Y-130961801D01*
X152560201Y-131146609D01*
X152632135Y-131383742D01*
X152748950Y-131602288D01*
X152906156Y-131793843D01*
X153097710Y-131951049D01*
X153316256Y-132067864D01*
X153553389Y-132139798D01*
X153799999Y-132164086D01*
X154046609Y-132139798D01*
X154283742Y-132067864D01*
X154502288Y-131951049D01*
X154693843Y-131793843D01*
X154851049Y-131602289D01*
X154967864Y-131383743D01*
X155039798Y-131146610D01*
X155058000Y-130961802D01*
X155058000Y-130769910D01*
X155067667Y-130721309D01*
X155095197Y-130680107D01*
X155136399Y-130652577D01*
X155185000Y-130642910D01*
X155233601Y-130652577D01*
X155274803Y-130680107D01*
X155302333Y-130721309D01*
X155397534Y-130951146D01*
X155617282Y-131280022D01*
X155896977Y-131559717D01*
X156225853Y-131779465D01*
X156591288Y-131930833D01*
X156979231Y-132008000D01*
X157374769Y-132008000D01*
X157762711Y-131930833D01*
X158128146Y-131779465D01*
X158467426Y-131552766D01*
X158468165Y-131553872D01*
X158493400Y-131537012D01*
X158542001Y-131527345D01*
X158590602Y-131537012D01*
X158631804Y-131564542D01*
X158659334Y-131605744D01*
X158669001Y-131654345D01*
X158669001Y-139571250D01*
X158668389Y-139583698D01*
X158664124Y-139627001D01*
X158683585Y-139824602D01*
X158741224Y-140014610D01*
X158834824Y-140189725D01*
X158960788Y-140343213D01*
X158994434Y-140370825D01*
X159003669Y-140379194D01*
X161354804Y-142730330D01*
X161382334Y-142771532D01*
X161392001Y-142820133D01*
X161392001Y-142993571D01*
X161382334Y-143042172D01*
X161354804Y-143083374D01*
X161345569Y-143091743D01*
X161206156Y-143206155D01*
X161048951Y-143397710D01*
X160932136Y-143616256D01*
X160860202Y-143853389D01*
X160842000Y-144038198D01*
X160842000Y-145961801D01*
X160860201Y-146146609D01*
X160932135Y-146383742D01*
X161048950Y-146602288D01*
X161206156Y-146793843D01*
X161397710Y-146951049D01*
X161616256Y-147067864D01*
X161853389Y-147139798D01*
X162099999Y-147164086D01*
X162346609Y-147139798D01*
X162583742Y-147067864D01*
X162802288Y-146951049D01*
X162993843Y-146793843D01*
X163151049Y-146602289D01*
X163267864Y-146383743D01*
X163339798Y-146146610D01*
X163358000Y-145961802D01*
X163358000Y-145333187D01*
X163363469Y-145296321D01*
X163393415Y-145197602D01*
X163408000Y-145049517D01*
X163408000Y-142405751D01*
X163408612Y-142393303D01*
X163412876Y-142349999D01*
X163393415Y-142152398D01*
X163335775Y-141962388D01*
X163242176Y-141787275D01*
X163116212Y-141633787D01*
X163082573Y-141606181D01*
X163073338Y-141597812D01*
X160722198Y-139246673D01*
X160694668Y-139205471D01*
X160685001Y-139156870D01*
X160685001Y-131425212D01*
X160694668Y-131376611D01*
X160722198Y-131335409D01*
X160763400Y-131307879D01*
X160812001Y-131298212D01*
X160860602Y-131307879D01*
X160901804Y-131335409D01*
X160929334Y-131376611D01*
X160931379Y-131382328D01*
X161048950Y-131602288D01*
X161206156Y-131793843D01*
X161397710Y-131951049D01*
X161616256Y-132067864D01*
X161853389Y-132139798D01*
X162099999Y-132164086D01*
X162346609Y-132139798D01*
X162583742Y-132067864D01*
X162802288Y-131951049D01*
X162993843Y-131793843D01*
X163151049Y-131602289D01*
X163267864Y-131383743D01*
X163339798Y-131146610D01*
X163358000Y-130961802D01*
X163358000Y-130333187D01*
X163363469Y-130296321D01*
X163393415Y-130197602D01*
X163408000Y-130049517D01*
X163408000Y-119955752D01*
X163408612Y-119943304D01*
X163412876Y-119900000D01*
X163393415Y-119702397D01*
X163335776Y-119512390D01*
X163242176Y-119337275D01*
X163116212Y-119183787D01*
X163082578Y-119156185D01*
X163073343Y-119147816D01*
X161445197Y-117519671D01*
X161417667Y-117478469D01*
X161408000Y-117429868D01*
X161408000Y-117361325D01*
X161353891Y-117089302D01*
X161247752Y-116833060D01*
X161093666Y-116602455D01*
X160897544Y-116406333D01*
X160666939Y-116252247D01*
X160410697Y-116146108D01*
X160138675Y-116092000D01*
X159861325Y-116092000D01*
X159589302Y-116146108D01*
X159333060Y-116252247D01*
X159102455Y-116406333D01*
X158906335Y-116602453D01*
X158855597Y-116678389D01*
X158820557Y-116713428D01*
X158774776Y-116732391D01*
X158725223Y-116732391D01*
X158679442Y-116713428D01*
X158644403Y-116678389D01*
X158593664Y-116602453D01*
X158397544Y-116406333D01*
X158166939Y-116252247D01*
X157910697Y-116146108D01*
X157638675Y-116092000D01*
X157361325Y-116092000D01*
X157089302Y-116146108D01*
X156833060Y-116252247D01*
X156602455Y-116406333D01*
X156406333Y-116602455D01*
X156317859Y-116734867D01*
X156282819Y-116769907D01*
X156237038Y-116788870D01*
X156187485Y-116788870D01*
X156172548Y-116784941D01*
X156098611Y-116760599D01*
X155359211Y-117500000D01*
X156098611Y-118239400D01*
X156172548Y-118215059D01*
X156221734Y-118209044D01*
X156269478Y-118222309D01*
X156308512Y-118252835D01*
X156317859Y-118265133D01*
X156406333Y-118397544D01*
X156602455Y-118593666D01*
X156833060Y-118747752D01*
X157089302Y-118853891D01*
X157361325Y-118908000D01*
X157429868Y-118908000D01*
X157478469Y-118917667D01*
X157519670Y-118945197D01*
X157726662Y-119152188D01*
X157726663Y-119152188D01*
X158631805Y-120057331D01*
X158659335Y-120098533D01*
X158669002Y-120147134D01*
X158669002Y-128345656D01*
X158659335Y-128394257D01*
X158631805Y-128435459D01*
X158590603Y-128462989D01*
X158542002Y-128472656D01*
X158493401Y-128462989D01*
X158468165Y-128446127D01*
X158467426Y-128447234D01*
X158128146Y-128220534D01*
X157762711Y-128069166D01*
X157374769Y-127992000D01*
X156979231Y-127992000D01*
X156591288Y-128069166D01*
X156225853Y-128220534D01*
X155896977Y-128440282D01*
X155617282Y-128719977D01*
X155397534Y-129048853D01*
X155352333Y-129157981D01*
X155324803Y-129199182D01*
X155283601Y-129226713D01*
X155235000Y-129236380D01*
X155186399Y-129226713D01*
X155145198Y-129199183D01*
X155117667Y-129157981D01*
X155108000Y-129109380D01*
X155108000Y-119023753D01*
X155108611Y-119011309D01*
X155109283Y-119004484D01*
X155123666Y-118957064D01*
X155155101Y-118918758D01*
X155198802Y-118895398D01*
X155217782Y-118891194D01*
X155335633Y-118874424D01*
X155599931Y-118781621D01*
X155696066Y-118730235D01*
X155739400Y-118598611D01*
X154955498Y-117814709D01*
X154937261Y-117811082D01*
X154896059Y-117783554D01*
X154896055Y-117783551D01*
X154716450Y-117603946D01*
X154688920Y-117562744D01*
X154679253Y-117514143D01*
X154682066Y-117500000D01*
X154679253Y-117485858D01*
X154688920Y-117437257D01*
X154716450Y-117396055D01*
X154896055Y-117216450D01*
X154937257Y-117188920D01*
X154955497Y-117185291D01*
X155739400Y-116401388D01*
X155697069Y-116272813D01*
X155484520Y-116170739D01*
X155215885Y-116101755D01*
X154938954Y-116086504D01*
X154664365Y-116125575D01*
X154577074Y-116156226D01*
X154528015Y-116163206D01*
X154480020Y-116150881D01*
X154440394Y-116121127D01*
X154415171Y-116078473D01*
X154407999Y-116036398D01*
X154407999Y-113816134D01*
X154417666Y-113767533D01*
X154445196Y-113726331D01*
X156303770Y-111867757D01*
X160741453Y-111867757D01*
X160889237Y-112118546D01*
X161305913Y-112336617D01*
X161779903Y-112475900D01*
X162271959Y-112520038D01*
X162763169Y-112467332D01*
X163235200Y-112319640D01*
X163610458Y-112119062D01*
X163758546Y-111867757D01*
X162250000Y-110359211D01*
X160741453Y-111867757D01*
X156303770Y-111867757D01*
X158149568Y-110021959D01*
X159729961Y-110021959D01*
X159782667Y-110513169D01*
X159930359Y-110985200D01*
X160130937Y-111360458D01*
X160382242Y-111508546D01*
X161890789Y-110000000D01*
X160382242Y-108491453D01*
X160131453Y-108639237D01*
X159913382Y-109055913D01*
X159774099Y-109529903D01*
X159729961Y-110021959D01*
X158149568Y-110021959D01*
X160039285Y-108132242D01*
X160741453Y-108132242D01*
X162250000Y-109640789D01*
X163758546Y-108132242D01*
X163610762Y-107881453D01*
X163194086Y-107663382D01*
X162720096Y-107524099D01*
X162228040Y-107479961D01*
X161736830Y-107532667D01*
X161264799Y-107680359D01*
X160889541Y-107880937D01*
X160741453Y-108132242D01*
X160039285Y-108132242D01*
X160108829Y-108062698D01*
X164250197Y-103921331D01*
X164291399Y-103893801D01*
X164340000Y-103884134D01*
X164388601Y-103893801D01*
X164429803Y-103921331D01*
X164457333Y-103962533D01*
X164467000Y-104011134D01*
X164467000Y-108475006D01*
X164457333Y-108523607D01*
X164429803Y-108564809D01*
X164388601Y-108592339D01*
X164340000Y-108602006D01*
X164291399Y-108592339D01*
X164275524Y-108584422D01*
X164117757Y-108491453D01*
X162609211Y-110000000D01*
X164117757Y-111508546D01*
X164275524Y-111415578D01*
X164322303Y-111399233D01*
X164371777Y-111402034D01*
X164416413Y-111423554D01*
X164449416Y-111460518D01*
X164465761Y-111507297D01*
X164467000Y-111524994D01*
X164467000Y-149340000D01*
X164457333Y-149388601D01*
X164429803Y-149429803D01*
X164388601Y-149457333D01*
X164340000Y-149467000D01*
X150660000Y-149467000D01*
X150611399Y-149457333D01*
X150570197Y-149429803D01*
X150542667Y-149388601D01*
X150533000Y-149340000D01*
X150533000Y-146388644D01*
X150954000Y-146388644D01*
X151038613Y-146473257D01*
X151609060Y-146476041D01*
X151714590Y-146465648D01*
X151810340Y-146436603D01*
X151898597Y-146389428D01*
X151975948Y-146325948D01*
X152039428Y-146248597D01*
X152086603Y-146160340D01*
X152115648Y-146064590D01*
X152126043Y-145959045D01*
X152123237Y-145338593D01*
X152038644Y-145254000D01*
X150954000Y-145254000D01*
X150954000Y-146388644D01*
X150533000Y-146388644D01*
X150533000Y-143611356D01*
X150954000Y-143611356D01*
X150954000Y-144746000D01*
X152038644Y-144746000D01*
X152123237Y-144661406D01*
X152126043Y-144040943D01*
X152125773Y-144038198D01*
X152542000Y-144038198D01*
X152542000Y-145961801D01*
X152560201Y-146146609D01*
X152632135Y-146383742D01*
X152748950Y-146602288D01*
X152906156Y-146793843D01*
X153097710Y-146951049D01*
X153316256Y-147067864D01*
X153553389Y-147139798D01*
X153799999Y-147164086D01*
X154046609Y-147139798D01*
X154283742Y-147067864D01*
X154502288Y-146951049D01*
X154693843Y-146793843D01*
X154851049Y-146602289D01*
X154967864Y-146383743D01*
X155039798Y-146146610D01*
X155058000Y-145961802D01*
X155058000Y-145769910D01*
X155067667Y-145721309D01*
X155095197Y-145680107D01*
X155136399Y-145652577D01*
X155185000Y-145642910D01*
X155233601Y-145652577D01*
X155274803Y-145680107D01*
X155302333Y-145721309D01*
X155397534Y-145951146D01*
X155617282Y-146280022D01*
X155896977Y-146559717D01*
X156225853Y-146779465D01*
X156591288Y-146930833D01*
X156979231Y-147008000D01*
X157374769Y-147008000D01*
X157762711Y-146930833D01*
X158128146Y-146779465D01*
X158457022Y-146559717D01*
X158736717Y-146280022D01*
X158956465Y-145951146D01*
X159107833Y-145585711D01*
X159185000Y-145197768D01*
X159185000Y-144802231D01*
X159107833Y-144414288D01*
X158956465Y-144048853D01*
X158736717Y-143719977D01*
X158457022Y-143440282D01*
X158128146Y-143220534D01*
X157762711Y-143069166D01*
X157374769Y-142992000D01*
X156979231Y-142992000D01*
X156591288Y-143069166D01*
X156225853Y-143220534D01*
X155896977Y-143440282D01*
X155617282Y-143719977D01*
X155397534Y-144048853D01*
X155302333Y-144278691D01*
X155274803Y-144319893D01*
X155233601Y-144347423D01*
X155185000Y-144357090D01*
X155136399Y-144347423D01*
X155095197Y-144319893D01*
X155067667Y-144278691D01*
X155058000Y-144230090D01*
X155058000Y-144038197D01*
X155039798Y-143853389D01*
X154967864Y-143616256D01*
X154851049Y-143397710D01*
X154693844Y-143206155D01*
X154502289Y-143048950D01*
X154283743Y-142932135D01*
X154046610Y-142860201D01*
X153800000Y-142835913D01*
X153553390Y-142860201D01*
X153316257Y-142932135D01*
X153097711Y-143048950D01*
X152906156Y-143206155D01*
X152748951Y-143397710D01*
X152632136Y-143616256D01*
X152560202Y-143853389D01*
X152542000Y-144038198D01*
X152125773Y-144038198D01*
X152115650Y-143935414D01*
X152086603Y-143839659D01*
X152039428Y-143751402D01*
X151975948Y-143674051D01*
X151898597Y-143610571D01*
X151810340Y-143563396D01*
X151714590Y-143534351D01*
X151609060Y-143523958D01*
X151038613Y-143526742D01*
X150954000Y-143611356D01*
X150533000Y-143611356D01*
X150533000Y-131388644D01*
X150954000Y-131388644D01*
X151038613Y-131473257D01*
X151609060Y-131476041D01*
X151714590Y-131465648D01*
X151810340Y-131436603D01*
X151898597Y-131389428D01*
X151975948Y-131325948D01*
X152039428Y-131248597D01*
X152086603Y-131160340D01*
X152115648Y-131064590D01*
X152126043Y-130959045D01*
X152123237Y-130338593D01*
X152038644Y-130254000D01*
X150954000Y-130254000D01*
X150954000Y-131388644D01*
X150533000Y-131388644D01*
X150533000Y-128611356D01*
X150954000Y-128611356D01*
X150954000Y-129746000D01*
X152038644Y-129746000D01*
X152123237Y-129661406D01*
X152126043Y-129040954D01*
X152115648Y-128935409D01*
X152086603Y-128839659D01*
X152039428Y-128751402D01*
X151975948Y-128674051D01*
X151898597Y-128610571D01*
X151810340Y-128563396D01*
X151714590Y-128534351D01*
X151609060Y-128523958D01*
X151038613Y-128526742D01*
X150954000Y-128611356D01*
X150533000Y-128611356D01*
X150533000Y-111524994D01*
X150542667Y-111476393D01*
X150570197Y-111435191D01*
X150611399Y-111407661D01*
X150660000Y-111397994D01*
X150708601Y-111407661D01*
X150724476Y-111415578D01*
X150882242Y-111508546D01*
X152390789Y-110000000D01*
X150882242Y-108491453D01*
X150724476Y-108584422D01*
X150677697Y-108600767D01*
X150628223Y-108597966D01*
X150583587Y-108576446D01*
X150550584Y-108539482D01*
X150534239Y-108492703D01*
X150533000Y-108475006D01*
X150533000Y-108132242D01*
X151241453Y-108132242D01*
X152750000Y-109640789D01*
X154258546Y-108132242D01*
X154110762Y-107881453D01*
X153694086Y-107663382D01*
X153220096Y-107524099D01*
X152728040Y-107479961D01*
X152236830Y-107532667D01*
X151764799Y-107680359D01*
X151389541Y-107880937D01*
X151241453Y-108132242D01*
X150533000Y-108132242D01*
X150533000Y-91388644D01*
X150954000Y-91388644D01*
X151038613Y-91473257D01*
X151609060Y-91476041D01*
X151714590Y-91465648D01*
X151810340Y-91436603D01*
X151898597Y-91389428D01*
X151975948Y-91325948D01*
X152039428Y-91248597D01*
X152086603Y-91160340D01*
X152115648Y-91064590D01*
X152126043Y-90959045D01*
X152123237Y-90338593D01*
X152038644Y-90254000D01*
X150954000Y-90254000D01*
X150954000Y-91388644D01*
X150533000Y-91388644D01*
X150533000Y-88611356D01*
X150954000Y-88611356D01*
X150954000Y-89746000D01*
X152038644Y-89746000D01*
X152123237Y-89661406D01*
X152126043Y-89040943D01*
X152125773Y-89038198D01*
X152542000Y-89038198D01*
X152542000Y-90961801D01*
X152560201Y-91146609D01*
X152632135Y-91383742D01*
X152748950Y-91602288D01*
X152906156Y-91793843D01*
X153097710Y-91951049D01*
X153316256Y-92067864D01*
X153553389Y-92139798D01*
X153799999Y-92164086D01*
X154046609Y-92139798D01*
X154283742Y-92067864D01*
X154502288Y-91951049D01*
X154693843Y-91793843D01*
X154851049Y-91602289D01*
X154967864Y-91383743D01*
X155039798Y-91146610D01*
X155058000Y-90961802D01*
X155058000Y-90769910D01*
X155067667Y-90721309D01*
X155095197Y-90680107D01*
X155136399Y-90652577D01*
X155185000Y-90642910D01*
X155233601Y-90652577D01*
X155274803Y-90680107D01*
X155302333Y-90721309D01*
X155397534Y-90951146D01*
X155617282Y-91280022D01*
X155896977Y-91559717D01*
X156225853Y-91779465D01*
X156591288Y-91930833D01*
X156979231Y-92008000D01*
X157374769Y-92008000D01*
X157762711Y-91930833D01*
X158128146Y-91779465D01*
X158457022Y-91559717D01*
X158736717Y-91280022D01*
X158956465Y-90951146D01*
X159107833Y-90585711D01*
X159185000Y-90197768D01*
X159185000Y-89802231D01*
X159107833Y-89414288D01*
X158956465Y-89048853D01*
X158736717Y-88719977D01*
X158457022Y-88440282D01*
X158128146Y-88220534D01*
X157762711Y-88069166D01*
X157374769Y-87992000D01*
X156979231Y-87992000D01*
X156591288Y-88069166D01*
X156225853Y-88220534D01*
X155896977Y-88440282D01*
X155617282Y-88719977D01*
X155397534Y-89048853D01*
X155302333Y-89278691D01*
X155274803Y-89319893D01*
X155233601Y-89347423D01*
X155185000Y-89357090D01*
X155136399Y-89347423D01*
X155095197Y-89319893D01*
X155067667Y-89278691D01*
X155058000Y-89230090D01*
X155058000Y-89038197D01*
X155039798Y-88853389D01*
X154967864Y-88616256D01*
X154851049Y-88397710D01*
X154693844Y-88206155D01*
X154502289Y-88048950D01*
X154283743Y-87932135D01*
X154046610Y-87860201D01*
X153800000Y-87835913D01*
X153553390Y-87860201D01*
X153316257Y-87932135D01*
X153097711Y-88048950D01*
X152906156Y-88206155D01*
X152748951Y-88397710D01*
X152632136Y-88616256D01*
X152560202Y-88853389D01*
X152542000Y-89038198D01*
X152125773Y-89038198D01*
X152115650Y-88935414D01*
X152086603Y-88839659D01*
X152039428Y-88751402D01*
X151975948Y-88674051D01*
X151898597Y-88610571D01*
X151810340Y-88563396D01*
X151714590Y-88534351D01*
X151609060Y-88523958D01*
X151038613Y-88526742D01*
X150954000Y-88611356D01*
X150533000Y-88611356D01*
X150533000Y-76388644D01*
X150954000Y-76388644D01*
X151038613Y-76473257D01*
X151609060Y-76476041D01*
X151714590Y-76465648D01*
X151810340Y-76436603D01*
X151898597Y-76389428D01*
X151975948Y-76325948D01*
X152039428Y-76248597D01*
X152086603Y-76160340D01*
X152115648Y-76064590D01*
X152126043Y-75959045D01*
X152123237Y-75338593D01*
X152038644Y-75254000D01*
X150954000Y-75254000D01*
X150954000Y-76388644D01*
X150533000Y-76388644D01*
X150533000Y-73611356D01*
X150954000Y-73611356D01*
X150954000Y-74746000D01*
X152038644Y-74746000D01*
X152123237Y-74661406D01*
X152126043Y-74040954D01*
X152115648Y-73935409D01*
X152086603Y-73839659D01*
X152039428Y-73751402D01*
X151975948Y-73674051D01*
X151898597Y-73610571D01*
X151810340Y-73563396D01*
X151714590Y-73534351D01*
X151609060Y-73523958D01*
X151038613Y-73526742D01*
X150954000Y-73611356D01*
X150533000Y-73611356D01*
X150533000Y-63598611D01*
X154260599Y-63598611D01*
X154302930Y-63727186D01*
X154515479Y-63829260D01*
X154784114Y-63898244D01*
X155061045Y-63913495D01*
X155335634Y-63874424D01*
X155599931Y-63781621D01*
X155696066Y-63730235D01*
X155739400Y-63598611D01*
X155000000Y-62859211D01*
X154260599Y-63598611D01*
X150533000Y-63598611D01*
X150533000Y-62561045D01*
X153586504Y-62561045D01*
X153625575Y-62835634D01*
X153718378Y-63099931D01*
X153769764Y-63196066D01*
X153901388Y-63239400D01*
X154640789Y-62500000D01*
X153901388Y-61760599D01*
X153772813Y-61802930D01*
X153670739Y-62015479D01*
X153601755Y-62284114D01*
X153586504Y-62561045D01*
X150533000Y-62561045D01*
X150533000Y-61401388D01*
X154260599Y-61401388D01*
X155000000Y-62140789D01*
X155739400Y-61401388D01*
X155697069Y-61272813D01*
X155484520Y-61170739D01*
X155215885Y-61101755D01*
X154938954Y-61086504D01*
X154664365Y-61125575D01*
X154400068Y-61218378D01*
X154303933Y-61269764D01*
X154260599Y-61401388D01*
X150533000Y-61401388D01*
X150533000Y-56867757D01*
X151241453Y-56867757D01*
X151389237Y-57118546D01*
X151805913Y-57336617D01*
X152279903Y-57475900D01*
X152771959Y-57520038D01*
X153263169Y-57467332D01*
X153735200Y-57319640D01*
X154110458Y-57119062D01*
X154258546Y-56867757D01*
X160741453Y-56867757D01*
X160889237Y-57118546D01*
X161305913Y-57336617D01*
X161779903Y-57475900D01*
X162271959Y-57520038D01*
X162763169Y-57467332D01*
X163235200Y-57319640D01*
X163610458Y-57119062D01*
X163758546Y-56867757D01*
X162250000Y-55359211D01*
X160741453Y-56867757D01*
X154258546Y-56867757D01*
X152750000Y-55359211D01*
X151241453Y-56867757D01*
X150533000Y-56867757D01*
X150533000Y-56524994D01*
X150542667Y-56476393D01*
X150570197Y-56435191D01*
X150611399Y-56407661D01*
X150660000Y-56397994D01*
X150708601Y-56407661D01*
X150724476Y-56415578D01*
X150882242Y-56508546D01*
X152390789Y-55000000D01*
X153109211Y-55000000D01*
X154617757Y-56508546D01*
X154868546Y-56360762D01*
X155086617Y-55944086D01*
X155225900Y-55470096D01*
X155266099Y-55021959D01*
X159729961Y-55021959D01*
X159782667Y-55513169D01*
X159930359Y-55985200D01*
X160130937Y-56360458D01*
X160382242Y-56508546D01*
X161890789Y-55000000D01*
X160382242Y-53491453D01*
X160131453Y-53639237D01*
X159913382Y-54055913D01*
X159774099Y-54529903D01*
X159729961Y-55021959D01*
X155266099Y-55021959D01*
X155267017Y-55011725D01*
X155267017Y-55011724D01*
X155270038Y-54978040D01*
X155217332Y-54486830D01*
X155069640Y-54014799D01*
X154869062Y-53639541D01*
X154617757Y-53491453D01*
X153109211Y-55000000D01*
X152390789Y-55000000D01*
X150882242Y-53491453D01*
X150724476Y-53584422D01*
X150677697Y-53600767D01*
X150628223Y-53597966D01*
X150583587Y-53576446D01*
X150550584Y-53539482D01*
X150534239Y-53492703D01*
X150533000Y-53475006D01*
X150533000Y-53132242D01*
X151241453Y-53132242D01*
X152750000Y-54640789D01*
X154258546Y-53132242D01*
X160741453Y-53132242D01*
X162250000Y-54640789D01*
X163758546Y-53132242D01*
X163610762Y-52881453D01*
X163194086Y-52663382D01*
X162720096Y-52524099D01*
X162228040Y-52479961D01*
X161736830Y-52532667D01*
X161264799Y-52680359D01*
X160889541Y-52880937D01*
X160741453Y-53132242D01*
X154258546Y-53132242D01*
X154110762Y-52881453D01*
X153694086Y-52663382D01*
X153220096Y-52524099D01*
X152728040Y-52479961D01*
X152236830Y-52532667D01*
X151764799Y-52680359D01*
X151389541Y-52880937D01*
X151241453Y-53132242D01*
X150533000Y-53132242D01*
X150533000Y-50660000D01*
X150542667Y-50611399D01*
X150570197Y-50570197D01*
X150611399Y-50542667D01*
X150660000Y-50533000D01*
X164340001Y-50533000D01*
X164388602Y-50542667D01*
G37*
G04 #@! TD.AperFunction*
M02*
