G04 #@! TF.GenerationSoftware,KiCad,Pcbnew,10.0.6*
G04 #@! TF.CreationDate,2026-10-07T21:11:45-07:00*
G04 #@! TF.ProjectId,Levels,4c657665-6c73-42e6-9b69-6361645f7063,1.0*
G04 #@! TF.SameCoordinates,Original*
G04 #@! TF.FileFunction,Legend,Top*
G04 #@! TF.FilePolarity,Positive*
%FSLAX46Y46*%
G04 Gerber Fmt 4.6, Leading zero omitted, Abs format (unit mm)*
G04 Created by KiCad (PCBNEW 10.0.6) date 2026-10-07 21:11:45*
%MOMM*%
%LPD*%
G01*
G04 APERTURE LIST*
%ADD10C,0.150000*%
%ADD11C,0.120000*%
G04 APERTURE END LIST*
D10*
X151234819Y-94363333D02*
X151949104Y-94363333D01*
X151949104Y-94363333D02*
X152091961Y-94410952D01*
X152091961Y-94410952D02*
X152187200Y-94506190D01*
X152187200Y-94506190D02*
X152234819Y-94649047D01*
X152234819Y-94649047D02*
X152234819Y-94744285D01*
X151330057Y-93934761D02*
X151282438Y-93887142D01*
X151282438Y-93887142D02*
X151234819Y-93791904D01*
X151234819Y-93791904D02*
X151234819Y-93553809D01*
X151234819Y-93553809D02*
X151282438Y-93458571D01*
X151282438Y-93458571D02*
X151330057Y-93410952D01*
X151330057Y-93410952D02*
X151425295Y-93363333D01*
X151425295Y-93363333D02*
X151520533Y-93363333D01*
X151520533Y-93363333D02*
X151663390Y-93410952D01*
X151663390Y-93410952D02*
X152234819Y-93982380D01*
X152234819Y-93982380D02*
X152234819Y-93363333D01*
X151404761Y-64954819D02*
X151071428Y-64478628D01*
X150833333Y-64954819D02*
X150833333Y-63954819D01*
X150833333Y-63954819D02*
X151214285Y-63954819D01*
X151214285Y-63954819D02*
X151309523Y-64002438D01*
X151309523Y-64002438D02*
X151357142Y-64050057D01*
X151357142Y-64050057D02*
X151404761Y-64145295D01*
X151404761Y-64145295D02*
X151404761Y-64288152D01*
X151404761Y-64288152D02*
X151357142Y-64383390D01*
X151357142Y-64383390D02*
X151309523Y-64431009D01*
X151309523Y-64431009D02*
X151214285Y-64478628D01*
X151214285Y-64478628D02*
X150833333Y-64478628D01*
X151690476Y-63954819D02*
X152023809Y-64954819D01*
X152023809Y-64954819D02*
X152357142Y-63954819D01*
X153214285Y-64954819D02*
X152642857Y-64954819D01*
X152928571Y-64954819D02*
X152928571Y-63954819D01*
X152928571Y-63954819D02*
X152833333Y-64097676D01*
X152833333Y-64097676D02*
X152738095Y-64192914D01*
X152738095Y-64192914D02*
X152642857Y-64240533D01*
X151234819Y-149363333D02*
X151949104Y-149363333D01*
X151949104Y-149363333D02*
X152091961Y-149410952D01*
X152091961Y-149410952D02*
X152187200Y-149506190D01*
X152187200Y-149506190D02*
X152234819Y-149649047D01*
X152234819Y-149649047D02*
X152234819Y-149744285D01*
X151568152Y-148458571D02*
X152234819Y-148458571D01*
X151187200Y-148696666D02*
X151901485Y-148934761D01*
X151901485Y-148934761D02*
X151901485Y-148315714D01*
X150904761Y-104454819D02*
X150571428Y-103978628D01*
X150333333Y-104454819D02*
X150333333Y-103454819D01*
X150333333Y-103454819D02*
X150714285Y-103454819D01*
X150714285Y-103454819D02*
X150809523Y-103502438D01*
X150809523Y-103502438D02*
X150857142Y-103550057D01*
X150857142Y-103550057D02*
X150904761Y-103645295D01*
X150904761Y-103645295D02*
X150904761Y-103788152D01*
X150904761Y-103788152D02*
X150857142Y-103883390D01*
X150857142Y-103883390D02*
X150809523Y-103931009D01*
X150809523Y-103931009D02*
X150714285Y-103978628D01*
X150714285Y-103978628D02*
X150333333Y-103978628D01*
X151190476Y-103454819D02*
X151523809Y-104454819D01*
X151523809Y-104454819D02*
X151857142Y-103454819D01*
X152142857Y-103550057D02*
X152190476Y-103502438D01*
X152190476Y-103502438D02*
X152285714Y-103454819D01*
X152285714Y-103454819D02*
X152523809Y-103454819D01*
X152523809Y-103454819D02*
X152619047Y-103502438D01*
X152619047Y-103502438D02*
X152666666Y-103550057D01*
X152666666Y-103550057D02*
X152714285Y-103645295D01*
X152714285Y-103645295D02*
X152714285Y-103740533D01*
X152714285Y-103740533D02*
X152666666Y-103883390D01*
X152666666Y-103883390D02*
X152095238Y-104454819D01*
X152095238Y-104454819D02*
X152714285Y-104454819D01*
X151234819Y-134363333D02*
X151949104Y-134363333D01*
X151949104Y-134363333D02*
X152091961Y-134410952D01*
X152091961Y-134410952D02*
X152187200Y-134506190D01*
X152187200Y-134506190D02*
X152234819Y-134649047D01*
X152234819Y-134649047D02*
X152234819Y-134744285D01*
X151234819Y-133982380D02*
X151234819Y-133363333D01*
X151234819Y-133363333D02*
X151615771Y-133696666D01*
X151615771Y-133696666D02*
X151615771Y-133553809D01*
X151615771Y-133553809D02*
X151663390Y-133458571D01*
X151663390Y-133458571D02*
X151711009Y-133410952D01*
X151711009Y-133410952D02*
X151806247Y-133363333D01*
X151806247Y-133363333D02*
X152044342Y-133363333D01*
X152044342Y-133363333D02*
X152139580Y-133410952D01*
X152139580Y-133410952D02*
X152187200Y-133458571D01*
X152187200Y-133458571D02*
X152234819Y-133553809D01*
X152234819Y-133553809D02*
X152234819Y-133839523D01*
X152234819Y-133839523D02*
X152187200Y-133934761D01*
X152187200Y-133934761D02*
X152139580Y-133982380D01*
X151234819Y-79363333D02*
X151949104Y-79363333D01*
X151949104Y-79363333D02*
X152091961Y-79410952D01*
X152091961Y-79410952D02*
X152187200Y-79506190D01*
X152187200Y-79506190D02*
X152234819Y-79649047D01*
X152234819Y-79649047D02*
X152234819Y-79744285D01*
X152234819Y-78363333D02*
X152234819Y-78934761D01*
X152234819Y-78649047D02*
X151234819Y-78649047D01*
X151234819Y-78649047D02*
X151377676Y-78744285D01*
X151377676Y-78744285D02*
X151472914Y-78839523D01*
X151472914Y-78839523D02*
X151520533Y-78934761D01*
D11*
X149700000Y-91060000D02*
X149700000Y-90200000D01*
X149700000Y-91060000D02*
X150500000Y-91060000D01*
X152680000Y-85500000D02*
X152680000Y-89650000D01*
X152680000Y-85500000D02*
X163180000Y-85500000D01*
X152680000Y-90350000D02*
X152680000Y-94500000D01*
X152680000Y-94500000D02*
X163180000Y-94500000D01*
X163180000Y-85500000D02*
X163180000Y-89500000D01*
X163180000Y-90500000D02*
X163180000Y-94500000D01*
X158980000Y-90000000D02*
G75*
G02*
X155380000Y-90000000I-1800000J0D01*
G01*
X155380000Y-90000000D02*
G75*
G02*
X158980000Y-90000000I1800000J0D01*
G01*
X151390000Y-50090000D02*
X163610000Y-50090000D01*
X151390000Y-53097000D02*
X151390000Y-50090000D01*
X151390000Y-61560000D02*
X151390000Y-56902000D01*
X151390000Y-61560000D02*
X154175000Y-61560000D01*
X155825000Y-61560000D02*
X156675000Y-61560000D01*
X158325000Y-61560000D02*
X159175000Y-61560000D01*
X160825000Y-61560000D02*
X163610000Y-61560000D01*
X163610000Y-53097000D02*
X163610000Y-50090000D01*
X163610000Y-61560000D02*
X163610000Y-56902000D01*
X154875582Y-53545754D02*
G75*
G02*
X160124000Y-53545000I2624418J-1454246D01*
G01*
X160124100Y-56455624D02*
G75*
G02*
X154875000Y-56454000I-2624100J1455624D01*
G01*
X149700000Y-146060000D02*
X149700000Y-145200000D01*
X149700000Y-146060000D02*
X150500000Y-146060000D01*
X152680000Y-140500000D02*
X152680000Y-144650000D01*
X152680000Y-140500000D02*
X163180000Y-140500000D01*
X152680000Y-145350000D02*
X152680000Y-149500000D01*
X152680000Y-149500000D02*
X163180000Y-149500000D01*
X163180000Y-140500000D02*
X163180000Y-144500000D01*
X163180000Y-145500000D02*
X163180000Y-149500000D01*
X158980000Y-145000000D02*
G75*
G02*
X155380000Y-145000000I-1800000J0D01*
G01*
X155380000Y-145000000D02*
G75*
G02*
X158980000Y-145000000I1800000J0D01*
G01*
X151390000Y-105090000D02*
X163610000Y-105090000D01*
X151390000Y-108097000D02*
X151390000Y-105090000D01*
X151390000Y-116560000D02*
X151390000Y-111902000D01*
X151390000Y-116560000D02*
X154175000Y-116560000D01*
X155825000Y-116560000D02*
X156675000Y-116560000D01*
X158325000Y-116560000D02*
X159175000Y-116560000D01*
X160825000Y-116560000D02*
X163610000Y-116560000D01*
X163610000Y-108097000D02*
X163610000Y-105090000D01*
X163610000Y-116560000D02*
X163610000Y-111902000D01*
X154875582Y-108545754D02*
G75*
G02*
X160124000Y-108545000I2624418J-1454246D01*
G01*
X160124100Y-111455624D02*
G75*
G02*
X154875000Y-111454000I-2624100J1455624D01*
G01*
X149700000Y-131060000D02*
X149700000Y-130200000D01*
X149700000Y-131060000D02*
X150500000Y-131060000D01*
X152680000Y-125500000D02*
X152680000Y-129650000D01*
X152680000Y-125500000D02*
X163180000Y-125500000D01*
X152680000Y-130350000D02*
X152680000Y-134500000D01*
X152680000Y-134500000D02*
X163180000Y-134500000D01*
X163180000Y-125500000D02*
X163180000Y-129500000D01*
X163180000Y-130500000D02*
X163180000Y-134500000D01*
X158980000Y-130000000D02*
G75*
G02*
X155380000Y-130000000I-1800000J0D01*
G01*
X155380000Y-130000000D02*
G75*
G02*
X158980000Y-130000000I1800000J0D01*
G01*
X149700000Y-76060000D02*
X149700000Y-75200000D01*
X149700000Y-76060000D02*
X150500000Y-76060000D01*
X152680000Y-70500000D02*
X152680000Y-74650000D01*
X152680000Y-70500000D02*
X163180000Y-70500000D01*
X152680000Y-75350000D02*
X152680000Y-79500000D01*
X152680000Y-79500000D02*
X163180000Y-79500000D01*
X163180000Y-70500000D02*
X163180000Y-74500000D01*
X163180000Y-75500000D02*
X163180000Y-79500000D01*
X158980000Y-75000000D02*
G75*
G02*
X155380000Y-75000000I-1800000J0D01*
G01*
X155380000Y-75000000D02*
G75*
G02*
X158980000Y-75000000I1800000J0D01*
G01*
M02*
