G04 #@! TF.GenerationSoftware,KiCad,Pcbnew,10.0.6*
G04 #@! TF.CreationDate,2026-10-07T19:37:00-07:00*
G04 #@! TF.ProjectId,PassiveAttenuator,50617373-6976-4654-9174-74656e756174,1.0*
G04 #@! TF.SameCoordinates,Original*
G04 #@! TF.FileFunction,Copper,L1,Top*
G04 #@! TF.FilePolarity,Positive*
%FSLAX46Y46*%
G04 Gerber Fmt 4.6, Leading zero omitted, Abs format (unit mm)*
G04 Created by KiCad (PCBNEW 10.0.6) date 2026-10-07 19:37:00*
%MOMM*%
%LPD*%
G01*
G04 APERTURE LIST*
G04 #@! TA.AperFunction,ComponentPad*
%ADD10R,1.830000X1.930000*%
G04 #@! TD*
G04 #@! TA.AperFunction,ComponentPad*
%ADD11O,1.500000X3.300000*%
G04 #@! TD*
G04 #@! TA.AperFunction,ComponentPad*
%ADD12C,4.000000*%
G04 #@! TD*
G04 #@! TA.AperFunction,ComponentPad*
%ADD13C,1.800000*%
G04 #@! TD*
G04 APERTURE END LIST*
D10*
X150700000Y-90000000D03*
D11*
X162100000Y-90000000D03*
X153800000Y-90000000D03*
D12*
X152750000Y-55000000D03*
X162250000Y-55000000D03*
D13*
X160000000Y-62500000D03*
X157500000Y-62500000D03*
X155000000Y-62500000D03*
D10*
X150700000Y-145000000D03*
D11*
X162100000Y-145000000D03*
X153800000Y-145000000D03*
D12*
X152750000Y-110000000D03*
X162250000Y-110000000D03*
D13*
X160000000Y-117500000D03*
X157500000Y-117500000D03*
X155000000Y-117500000D03*
D10*
X150700000Y-130000000D03*
D11*
X162100000Y-130000000D03*
X153800000Y-130000000D03*
D10*
X150700000Y-75000000D03*
D11*
X162100000Y-75000000D03*
X153800000Y-75000000D03*
G04 #@! TA.AperFunction,Conductor*
G36*
X164388602Y-50542667D02*
G01*
X164429804Y-50570197D01*
X164457334Y-50611399D01*
X164467001Y-50660000D01*
X164467001Y-53475006D01*
X164457334Y-53523607D01*
X164429804Y-53564809D01*
X164388602Y-53592339D01*
X164340001Y-53602006D01*
X164291400Y-53592339D01*
X164275525Y-53584422D01*
X164117757Y-53491453D01*
X162609211Y-55000000D01*
X164117757Y-56508546D01*
X164275525Y-56415578D01*
X164322305Y-56399233D01*
X164371778Y-56402034D01*
X164416414Y-56423554D01*
X164449417Y-56460518D01*
X164465762Y-56507298D01*
X164467001Y-56524994D01*
X164467000Y-108475006D01*
X164457333Y-108523607D01*
X164429803Y-108564809D01*
X164388601Y-108592339D01*
X164340000Y-108602006D01*
X164291399Y-108592339D01*
X164275524Y-108584422D01*
X164117757Y-108491453D01*
X162609211Y-110000000D01*
X164117757Y-111508546D01*
X164275524Y-111415578D01*
X164322303Y-111399233D01*
X164371777Y-111402034D01*
X164416413Y-111423554D01*
X164449416Y-111460518D01*
X164465761Y-111507297D01*
X164467000Y-111524994D01*
X164467000Y-149340000D01*
X164457333Y-149388601D01*
X164429803Y-149429803D01*
X164388601Y-149457333D01*
X164340000Y-149467000D01*
X150660000Y-149467000D01*
X150611399Y-149457333D01*
X150570197Y-149429803D01*
X150542667Y-149388601D01*
X150533000Y-149340000D01*
X150533000Y-146388644D01*
X150954000Y-146388644D01*
X151038613Y-146473257D01*
X151609060Y-146476041D01*
X151714590Y-146465648D01*
X151810340Y-146436603D01*
X151898597Y-146389428D01*
X151975948Y-146325948D01*
X152039428Y-146248597D01*
X152086603Y-146160340D01*
X152115648Y-146064590D01*
X152126043Y-145959045D01*
X152123237Y-145338593D01*
X152038644Y-145254000D01*
X150954000Y-145254000D01*
X150954000Y-146388644D01*
X150533000Y-146388644D01*
X150533000Y-143611356D01*
X150954000Y-143611356D01*
X150954000Y-144746000D01*
X152038644Y-144746000D01*
X152123237Y-144661406D01*
X152126043Y-144040943D01*
X152125773Y-144038198D01*
X152542000Y-144038198D01*
X152542000Y-145961801D01*
X152560201Y-146146609D01*
X152632135Y-146383742D01*
X152748950Y-146602288D01*
X152906156Y-146793843D01*
X153097710Y-146951049D01*
X153316256Y-147067864D01*
X153553389Y-147139798D01*
X153799999Y-147164086D01*
X154046609Y-147139798D01*
X154283742Y-147067864D01*
X154502288Y-146951049D01*
X154693843Y-146793843D01*
X154851049Y-146602289D01*
X154967864Y-146383743D01*
X155039798Y-146146610D01*
X155058000Y-145961802D01*
X155058000Y-145769910D01*
X155067667Y-145721309D01*
X155095197Y-145680107D01*
X155136399Y-145652577D01*
X155185000Y-145642910D01*
X155233601Y-145652577D01*
X155274803Y-145680107D01*
X155302333Y-145721309D01*
X155397534Y-145951146D01*
X155617282Y-146280022D01*
X155896977Y-146559717D01*
X156225853Y-146779465D01*
X156591288Y-146930833D01*
X156979231Y-147008000D01*
X157374769Y-147008000D01*
X157762711Y-146930833D01*
X158128146Y-146779465D01*
X158457022Y-146559717D01*
X158736717Y-146280022D01*
X158956465Y-145951146D01*
X159107833Y-145585711D01*
X159185000Y-145197768D01*
X159185000Y-144802231D01*
X159107833Y-144414288D01*
X158969600Y-144080564D01*
X158956465Y-144048853D01*
X158949346Y-144038198D01*
X160842000Y-144038198D01*
X160842000Y-145961801D01*
X160860201Y-146146609D01*
X160932135Y-146383742D01*
X161048950Y-146602288D01*
X161206156Y-146793843D01*
X161397710Y-146951049D01*
X161616256Y-147067864D01*
X161853389Y-147139798D01*
X162099999Y-147164086D01*
X162346609Y-147139798D01*
X162583742Y-147067864D01*
X162802288Y-146951049D01*
X162993843Y-146793843D01*
X163151049Y-146602289D01*
X163267864Y-146383743D01*
X163339798Y-146146610D01*
X163358000Y-145961802D01*
X163358000Y-144038197D01*
X163339798Y-143853389D01*
X163267864Y-143616256D01*
X163151049Y-143397710D01*
X162993844Y-143206155D01*
X162802289Y-143048950D01*
X162583743Y-142932135D01*
X162346610Y-142860201D01*
X162100000Y-142835913D01*
X161853390Y-142860201D01*
X161616257Y-142932135D01*
X161397711Y-143048950D01*
X161206156Y-143206155D01*
X161048951Y-143397710D01*
X160932136Y-143616256D01*
X160860202Y-143853389D01*
X160842000Y-144038198D01*
X158949346Y-144038198D01*
X158736717Y-143719977D01*
X158457022Y-143440282D01*
X158128146Y-143220534D01*
X157762711Y-143069166D01*
X157374769Y-142992000D01*
X156979231Y-142992000D01*
X156591288Y-143069166D01*
X156225853Y-143220534D01*
X155896977Y-143440282D01*
X155617282Y-143719977D01*
X155397534Y-144048853D01*
X155302333Y-144278691D01*
X155274803Y-144319893D01*
X155233601Y-144347423D01*
X155185000Y-144357090D01*
X155136399Y-144347423D01*
X155095197Y-144319893D01*
X155067667Y-144278691D01*
X155058000Y-144230090D01*
X155058000Y-144038197D01*
X155039798Y-143853389D01*
X154967864Y-143616256D01*
X154851049Y-143397710D01*
X154693844Y-143206155D01*
X154502289Y-143048950D01*
X154283743Y-142932135D01*
X154046610Y-142860201D01*
X153800000Y-142835913D01*
X153553390Y-142860201D01*
X153316257Y-142932135D01*
X153097711Y-143048950D01*
X152906156Y-143206155D01*
X152748951Y-143397710D01*
X152632136Y-143616256D01*
X152560202Y-143853389D01*
X152542000Y-144038198D01*
X152125773Y-144038198D01*
X152115650Y-143935414D01*
X152086603Y-143839659D01*
X152039428Y-143751402D01*
X151975948Y-143674051D01*
X151898597Y-143610571D01*
X151810340Y-143563396D01*
X151714590Y-143534351D01*
X151609060Y-143523958D01*
X151038613Y-143526742D01*
X150954000Y-143611356D01*
X150533000Y-143611356D01*
X150533000Y-131388644D01*
X150954000Y-131388644D01*
X151038613Y-131473257D01*
X151609060Y-131476041D01*
X151714590Y-131465648D01*
X151810340Y-131436603D01*
X151898597Y-131389428D01*
X151975948Y-131325948D01*
X152039428Y-131248597D01*
X152086603Y-131160340D01*
X152115648Y-131064590D01*
X152126043Y-130959045D01*
X152123237Y-130338593D01*
X152038644Y-130254000D01*
X150954000Y-130254000D01*
X150954000Y-131388644D01*
X150533000Y-131388644D01*
X150533000Y-128611356D01*
X150954000Y-128611356D01*
X150954000Y-129746000D01*
X152038644Y-129746000D01*
X152123237Y-129661406D01*
X152126043Y-129040943D01*
X152125773Y-129038198D01*
X152542000Y-129038198D01*
X152542000Y-130961801D01*
X152560201Y-131146609D01*
X152632135Y-131383742D01*
X152748950Y-131602288D01*
X152906156Y-131793843D01*
X153097710Y-131951049D01*
X153316256Y-132067864D01*
X153553389Y-132139798D01*
X153799999Y-132164086D01*
X154046609Y-132139798D01*
X154283742Y-132067864D01*
X154502288Y-131951049D01*
X154693843Y-131793843D01*
X154851049Y-131602289D01*
X154967864Y-131383743D01*
X155039798Y-131146610D01*
X155058000Y-130961802D01*
X155058000Y-130769910D01*
X155067667Y-130721309D01*
X155095197Y-130680107D01*
X155136399Y-130652577D01*
X155185000Y-130642910D01*
X155233601Y-130652577D01*
X155274803Y-130680107D01*
X155302333Y-130721309D01*
X155397534Y-130951146D01*
X155617282Y-131280022D01*
X155896977Y-131559717D01*
X156225853Y-131779465D01*
X156591288Y-131930833D01*
X156979231Y-132008000D01*
X157374769Y-132008000D01*
X157762711Y-131930833D01*
X158128146Y-131779465D01*
X158457022Y-131559717D01*
X158736717Y-131280022D01*
X158956465Y-130951146D01*
X159107833Y-130585711D01*
X159185000Y-130197768D01*
X159185000Y-129802231D01*
X159107833Y-129414288D01*
X158969600Y-129080564D01*
X158956465Y-129048853D01*
X158949346Y-129038198D01*
X160842000Y-129038198D01*
X160842000Y-130961801D01*
X160860201Y-131146609D01*
X160932135Y-131383742D01*
X161048950Y-131602288D01*
X161206156Y-131793843D01*
X161397710Y-131951049D01*
X161616256Y-132067864D01*
X161853389Y-132139798D01*
X162099999Y-132164086D01*
X162346609Y-132139798D01*
X162583742Y-132067864D01*
X162802288Y-131951049D01*
X162993843Y-131793843D01*
X163151049Y-131602289D01*
X163267864Y-131383743D01*
X163339798Y-131146610D01*
X163358000Y-130961802D01*
X163358000Y-129038197D01*
X163339798Y-128853389D01*
X163267864Y-128616256D01*
X163151049Y-128397710D01*
X162993844Y-128206155D01*
X162802289Y-128048950D01*
X162583743Y-127932135D01*
X162346610Y-127860201D01*
X162100000Y-127835913D01*
X161853390Y-127860201D01*
X161616257Y-127932135D01*
X161397711Y-128048950D01*
X161206156Y-128206155D01*
X161048951Y-128397710D01*
X160932136Y-128616256D01*
X160860202Y-128853389D01*
X160842000Y-129038198D01*
X158949346Y-129038198D01*
X158736717Y-128719977D01*
X158457022Y-128440282D01*
X158128146Y-128220534D01*
X157762711Y-128069166D01*
X157374769Y-127992000D01*
X156979231Y-127992000D01*
X156591288Y-128069166D01*
X156225853Y-128220534D01*
X155896977Y-128440282D01*
X155617282Y-128719977D01*
X155397534Y-129048853D01*
X155302333Y-129278691D01*
X155274803Y-129319893D01*
X155233601Y-129347423D01*
X155185000Y-129357090D01*
X155136399Y-129347423D01*
X155095197Y-129319893D01*
X155067667Y-129278691D01*
X155058000Y-129230090D01*
X155058000Y-129038197D01*
X155039798Y-128853389D01*
X154967864Y-128616256D01*
X154851049Y-128397710D01*
X154693844Y-128206155D01*
X154502289Y-128048950D01*
X154283743Y-127932135D01*
X154046610Y-127860201D01*
X153800000Y-127835913D01*
X153553390Y-127860201D01*
X153316257Y-127932135D01*
X153097711Y-128048950D01*
X152906156Y-128206155D01*
X152748951Y-128397710D01*
X152632136Y-128616256D01*
X152560202Y-128853389D01*
X152542000Y-129038198D01*
X152125773Y-129038198D01*
X152115650Y-128935414D01*
X152086603Y-128839659D01*
X152039428Y-128751402D01*
X151975948Y-128674051D01*
X151898597Y-128610571D01*
X151810340Y-128563396D01*
X151714590Y-128534351D01*
X151609060Y-128523958D01*
X151038613Y-128526742D01*
X150954000Y-128611356D01*
X150533000Y-128611356D01*
X150533000Y-118598611D01*
X154260599Y-118598611D01*
X154302930Y-118727186D01*
X154515479Y-118829260D01*
X154784114Y-118898244D01*
X155061045Y-118913495D01*
X155335634Y-118874424D01*
X155599931Y-118781621D01*
X155696066Y-118730235D01*
X155739400Y-118598611D01*
X155000000Y-117859211D01*
X154260599Y-118598611D01*
X150533000Y-118598611D01*
X150533000Y-117561045D01*
X153586504Y-117561045D01*
X153625575Y-117835634D01*
X153718378Y-118099931D01*
X153769764Y-118196066D01*
X153901388Y-118239400D01*
X154640789Y-117500000D01*
X155359211Y-117500000D01*
X156098611Y-118239400D01*
X156172548Y-118215059D01*
X156221734Y-118209044D01*
X156269478Y-118222309D01*
X156308512Y-118252835D01*
X156317859Y-118265133D01*
X156406333Y-118397544D01*
X156602455Y-118593666D01*
X156833060Y-118747752D01*
X157089302Y-118853891D01*
X157361325Y-118908000D01*
X157638675Y-118908000D01*
X157910697Y-118853891D01*
X158166939Y-118747752D01*
X158397544Y-118593666D01*
X158593664Y-118397546D01*
X158644403Y-118321611D01*
X158679443Y-118286572D01*
X158725224Y-118267609D01*
X158774777Y-118267609D01*
X158820558Y-118286572D01*
X158855597Y-118321611D01*
X158906335Y-118397546D01*
X159102455Y-118593666D01*
X159333060Y-118747752D01*
X159589302Y-118853891D01*
X159861325Y-118908000D01*
X160138675Y-118908000D01*
X160410697Y-118853891D01*
X160666939Y-118747752D01*
X160897544Y-118593666D01*
X161093666Y-118397544D01*
X161247752Y-118166939D01*
X161353891Y-117910697D01*
X161408000Y-117638674D01*
X161408000Y-117361325D01*
X161353891Y-117089302D01*
X161247752Y-116833060D01*
X161093666Y-116602455D01*
X160897544Y-116406333D01*
X160666939Y-116252247D01*
X160410697Y-116146108D01*
X160138675Y-116092000D01*
X159861325Y-116092000D01*
X159589302Y-116146108D01*
X159333060Y-116252247D01*
X159102455Y-116406333D01*
X158906335Y-116602453D01*
X158855597Y-116678389D01*
X158820557Y-116713428D01*
X158774776Y-116732391D01*
X158725223Y-116732391D01*
X158679442Y-116713428D01*
X158644403Y-116678389D01*
X158593664Y-116602453D01*
X158397544Y-116406333D01*
X158166939Y-116252247D01*
X157910697Y-116146108D01*
X157638675Y-116092000D01*
X157361325Y-116092000D01*
X157089302Y-116146108D01*
X156833060Y-116252247D01*
X156602455Y-116406333D01*
X156406333Y-116602455D01*
X156317859Y-116734867D01*
X156282819Y-116769907D01*
X156237038Y-116788870D01*
X156187485Y-116788870D01*
X156172548Y-116784941D01*
X156098611Y-116760599D01*
X155359211Y-117500000D01*
X154640789Y-117500000D01*
X153901388Y-116760599D01*
X153772813Y-116802930D01*
X153670739Y-117015479D01*
X153601755Y-117284114D01*
X153586504Y-117561045D01*
X150533000Y-117561045D01*
X150533000Y-116401388D01*
X154260599Y-116401388D01*
X155000000Y-117140789D01*
X155739400Y-116401388D01*
X155697069Y-116272813D01*
X155484520Y-116170739D01*
X155215885Y-116101755D01*
X154938954Y-116086504D01*
X154664365Y-116125575D01*
X154400068Y-116218378D01*
X154303933Y-116269764D01*
X154260599Y-116401388D01*
X150533000Y-116401388D01*
X150533000Y-111867757D01*
X151241453Y-111867757D01*
X151389237Y-112118546D01*
X151805913Y-112336617D01*
X152279903Y-112475900D01*
X152771959Y-112520038D01*
X153263169Y-112467332D01*
X153735200Y-112319640D01*
X154110458Y-112119062D01*
X154258546Y-111867757D01*
X160741453Y-111867757D01*
X160889237Y-112118546D01*
X161305913Y-112336617D01*
X161779903Y-112475900D01*
X162271959Y-112520038D01*
X162763169Y-112467332D01*
X163235200Y-112319640D01*
X163610458Y-112119062D01*
X163758546Y-111867757D01*
X162250000Y-110359211D01*
X160741453Y-111867757D01*
X154258546Y-111867757D01*
X152750000Y-110359211D01*
X151241453Y-111867757D01*
X150533000Y-111867757D01*
X150533000Y-111524994D01*
X150542667Y-111476393D01*
X150570197Y-111435191D01*
X150611399Y-111407661D01*
X150660000Y-111397994D01*
X150708601Y-111407661D01*
X150724476Y-111415578D01*
X150882242Y-111508546D01*
X152390789Y-110000000D01*
X153109211Y-110000000D01*
X154617757Y-111508546D01*
X154868546Y-111360762D01*
X155086617Y-110944086D01*
X155225900Y-110470096D01*
X155266099Y-110021959D01*
X159729961Y-110021959D01*
X159782667Y-110513169D01*
X159930359Y-110985200D01*
X160130937Y-111360458D01*
X160382242Y-111508546D01*
X161890789Y-110000000D01*
X160382242Y-108491453D01*
X160131453Y-108639237D01*
X159913382Y-109055913D01*
X159774099Y-109529903D01*
X159729961Y-110021959D01*
X155266099Y-110021959D01*
X155267017Y-110011725D01*
X155267017Y-110011724D01*
X155270038Y-109978040D01*
X155217332Y-109486830D01*
X155069640Y-109014799D01*
X154869062Y-108639541D01*
X154617757Y-108491453D01*
X153109211Y-110000000D01*
X152390789Y-110000000D01*
X150882242Y-108491453D01*
X150724476Y-108584422D01*
X150677697Y-108600767D01*
X150628223Y-108597966D01*
X150583587Y-108576446D01*
X150550584Y-108539482D01*
X150534239Y-108492703D01*
X150533000Y-108475006D01*
X150533000Y-108132242D01*
X151241453Y-108132242D01*
X152750000Y-109640789D01*
X154258546Y-108132242D01*
X160741453Y-108132242D01*
X162250000Y-109640789D01*
X163758546Y-108132242D01*
X163610762Y-107881453D01*
X163194086Y-107663382D01*
X162720096Y-107524099D01*
X162228040Y-107479961D01*
X161736830Y-107532667D01*
X161264799Y-107680359D01*
X160889541Y-107880937D01*
X160741453Y-108132242D01*
X154258546Y-108132242D01*
X154110762Y-107881453D01*
X153694086Y-107663382D01*
X153220096Y-107524099D01*
X152728040Y-107479961D01*
X152236830Y-107532667D01*
X151764799Y-107680359D01*
X151389541Y-107880937D01*
X151241453Y-108132242D01*
X150533000Y-108132242D01*
X150533000Y-91388644D01*
X150954000Y-91388644D01*
X151038613Y-91473257D01*
X151609060Y-91476041D01*
X151714590Y-91465648D01*
X151810340Y-91436603D01*
X151898597Y-91389428D01*
X151975948Y-91325948D01*
X152039428Y-91248597D01*
X152086603Y-91160340D01*
X152115648Y-91064590D01*
X152126043Y-90959045D01*
X152123237Y-90338593D01*
X152038644Y-90254000D01*
X150954000Y-90254000D01*
X150954000Y-91388644D01*
X150533000Y-91388644D01*
X150533000Y-88611356D01*
X150954000Y-88611356D01*
X150954000Y-89746000D01*
X152038644Y-89746000D01*
X152123237Y-89661406D01*
X152126043Y-89040943D01*
X152125773Y-89038198D01*
X152542000Y-89038198D01*
X152542000Y-90961801D01*
X152560201Y-91146609D01*
X152632135Y-91383742D01*
X152748950Y-91602288D01*
X152906156Y-91793843D01*
X153097710Y-91951049D01*
X153316256Y-92067864D01*
X153553389Y-92139798D01*
X153799999Y-92164086D01*
X154046609Y-92139798D01*
X154283742Y-92067864D01*
X154502288Y-91951049D01*
X154693843Y-91793843D01*
X154851049Y-91602289D01*
X154967864Y-91383743D01*
X155039798Y-91146610D01*
X155058000Y-90961802D01*
X155058000Y-90769910D01*
X155067667Y-90721309D01*
X155095197Y-90680107D01*
X155136399Y-90652577D01*
X155185000Y-90642910D01*
X155233601Y-90652577D01*
X155274803Y-90680107D01*
X155302333Y-90721309D01*
X155397534Y-90951146D01*
X155617282Y-91280022D01*
X155896977Y-91559717D01*
X156225853Y-91779465D01*
X156591288Y-91930833D01*
X156979231Y-92008000D01*
X157374769Y-92008000D01*
X157762711Y-91930833D01*
X158128146Y-91779465D01*
X158457022Y-91559717D01*
X158736717Y-91280022D01*
X158956465Y-90951146D01*
X159107833Y-90585711D01*
X159185000Y-90197768D01*
X159185000Y-89802231D01*
X159107833Y-89414288D01*
X158969600Y-89080564D01*
X158956465Y-89048853D01*
X158949346Y-89038198D01*
X160842000Y-89038198D01*
X160842000Y-90961801D01*
X160860201Y-91146609D01*
X160932135Y-91383742D01*
X161048950Y-91602288D01*
X161206156Y-91793843D01*
X161397710Y-91951049D01*
X161616256Y-92067864D01*
X161853389Y-92139798D01*
X162099999Y-92164086D01*
X162346609Y-92139798D01*
X162583742Y-92067864D01*
X162802288Y-91951049D01*
X162993843Y-91793843D01*
X163151049Y-91602289D01*
X163267864Y-91383743D01*
X163339798Y-91146610D01*
X163358000Y-90961802D01*
X163358000Y-89038197D01*
X163339798Y-88853389D01*
X163267864Y-88616256D01*
X163151049Y-88397710D01*
X162993844Y-88206155D01*
X162802289Y-88048950D01*
X162583743Y-87932135D01*
X162346610Y-87860201D01*
X162100000Y-87835913D01*
X161853390Y-87860201D01*
X161616257Y-87932135D01*
X161397711Y-88048950D01*
X161206156Y-88206155D01*
X161048951Y-88397710D01*
X160932136Y-88616256D01*
X160860202Y-88853389D01*
X160842000Y-89038198D01*
X158949346Y-89038198D01*
X158736717Y-88719977D01*
X158457022Y-88440282D01*
X158128146Y-88220534D01*
X157762711Y-88069166D01*
X157374769Y-87992000D01*
X156979231Y-87992000D01*
X156591288Y-88069166D01*
X156225853Y-88220534D01*
X155896977Y-88440282D01*
X155617282Y-88719977D01*
X155397534Y-89048853D01*
X155302333Y-89278691D01*
X155274803Y-89319893D01*
X155233601Y-89347423D01*
X155185000Y-89357090D01*
X155136399Y-89347423D01*
X155095197Y-89319893D01*
X155067667Y-89278691D01*
X155058000Y-89230090D01*
X155058000Y-89038197D01*
X155039798Y-88853389D01*
X154967864Y-88616256D01*
X154851049Y-88397710D01*
X154693844Y-88206155D01*
X154502289Y-88048950D01*
X154283743Y-87932135D01*
X154046610Y-87860201D01*
X153800000Y-87835913D01*
X153553390Y-87860201D01*
X153316257Y-87932135D01*
X153097711Y-88048950D01*
X152906156Y-88206155D01*
X152748951Y-88397710D01*
X152632136Y-88616256D01*
X152560202Y-88853389D01*
X152542000Y-89038198D01*
X152125773Y-89038198D01*
X152115650Y-88935414D01*
X152086603Y-88839659D01*
X152039428Y-88751402D01*
X151975948Y-88674051D01*
X151898597Y-88610571D01*
X151810340Y-88563396D01*
X151714590Y-88534351D01*
X151609060Y-88523958D01*
X151038613Y-88526742D01*
X150954000Y-88611356D01*
X150533000Y-88611356D01*
X150533000Y-76388644D01*
X150954000Y-76388644D01*
X151038613Y-76473257D01*
X151609060Y-76476041D01*
X151714590Y-76465648D01*
X151810340Y-76436603D01*
X151898597Y-76389428D01*
X151975948Y-76325948D01*
X152039428Y-76248597D01*
X152086603Y-76160340D01*
X152115648Y-76064590D01*
X152126043Y-75959045D01*
X152123237Y-75338593D01*
X152038644Y-75254000D01*
X150954000Y-75254000D01*
X150954000Y-76388644D01*
X150533000Y-76388644D01*
X150533000Y-73611356D01*
X150954000Y-73611356D01*
X150954000Y-74746000D01*
X152038644Y-74746000D01*
X152123237Y-74661406D01*
X152126043Y-74040943D01*
X152125773Y-74038198D01*
X152542000Y-74038198D01*
X152542000Y-75961801D01*
X152560201Y-76146609D01*
X152632135Y-76383742D01*
X152748950Y-76602288D01*
X152906156Y-76793843D01*
X153097710Y-76951049D01*
X153316256Y-77067864D01*
X153553389Y-77139798D01*
X153799999Y-77164086D01*
X154046609Y-77139798D01*
X154283742Y-77067864D01*
X154502288Y-76951049D01*
X154693843Y-76793843D01*
X154851049Y-76602289D01*
X154967864Y-76383743D01*
X155039798Y-76146610D01*
X155058000Y-75961802D01*
X155058000Y-75769910D01*
X155067667Y-75721309D01*
X155095197Y-75680107D01*
X155136399Y-75652577D01*
X155185000Y-75642910D01*
X155233601Y-75652577D01*
X155274803Y-75680107D01*
X155302333Y-75721309D01*
X155397534Y-75951146D01*
X155617282Y-76280022D01*
X155896977Y-76559717D01*
X156225853Y-76779465D01*
X156591288Y-76930833D01*
X156979231Y-77008000D01*
X157374769Y-77008000D01*
X157762711Y-76930833D01*
X158128146Y-76779465D01*
X158457022Y-76559717D01*
X158736717Y-76280022D01*
X158956465Y-75951146D01*
X159107833Y-75585711D01*
X159185000Y-75197768D01*
X159185000Y-74802231D01*
X159107833Y-74414288D01*
X158969600Y-74080564D01*
X158956465Y-74048853D01*
X158949346Y-74038198D01*
X160842000Y-74038198D01*
X160842000Y-75961801D01*
X160860201Y-76146609D01*
X160932135Y-76383742D01*
X161048950Y-76602288D01*
X161206156Y-76793843D01*
X161397710Y-76951049D01*
X161616256Y-77067864D01*
X161853389Y-77139798D01*
X162099999Y-77164086D01*
X162346609Y-77139798D01*
X162583742Y-77067864D01*
X162802288Y-76951049D01*
X162993843Y-76793843D01*
X163151049Y-76602289D01*
X163267864Y-76383743D01*
X163339798Y-76146610D01*
X163358000Y-75961802D01*
X163358000Y-74038197D01*
X163339798Y-73853389D01*
X163267864Y-73616256D01*
X163151049Y-73397710D01*
X162993844Y-73206155D01*
X162802289Y-73048950D01*
X162583743Y-72932135D01*
X162346610Y-72860201D01*
X162100000Y-72835913D01*
X161853390Y-72860201D01*
X161616257Y-72932135D01*
X161397711Y-73048950D01*
X161206156Y-73206155D01*
X161048951Y-73397710D01*
X160932136Y-73616256D01*
X160860202Y-73853389D01*
X160842000Y-74038198D01*
X158949346Y-74038198D01*
X158736717Y-73719977D01*
X158457022Y-73440282D01*
X158128146Y-73220534D01*
X157762711Y-73069166D01*
X157374769Y-72992000D01*
X156979231Y-72992000D01*
X156591288Y-73069166D01*
X156225853Y-73220534D01*
X155896977Y-73440282D01*
X155617282Y-73719977D01*
X155397534Y-74048853D01*
X155302333Y-74278691D01*
X155274803Y-74319893D01*
X155233601Y-74347423D01*
X155185000Y-74357090D01*
X155136399Y-74347423D01*
X155095197Y-74319893D01*
X155067667Y-74278691D01*
X155058000Y-74230090D01*
X155058000Y-74038197D01*
X155039798Y-73853389D01*
X154967864Y-73616256D01*
X154851049Y-73397710D01*
X154693844Y-73206155D01*
X154502289Y-73048950D01*
X154283743Y-72932135D01*
X154046610Y-72860201D01*
X153800000Y-72835913D01*
X153553390Y-72860201D01*
X153316257Y-72932135D01*
X153097711Y-73048950D01*
X152906156Y-73206155D01*
X152748951Y-73397710D01*
X152632136Y-73616256D01*
X152560202Y-73853389D01*
X152542000Y-74038198D01*
X152125773Y-74038198D01*
X152115650Y-73935414D01*
X152086603Y-73839659D01*
X152039428Y-73751402D01*
X151975948Y-73674051D01*
X151898597Y-73610571D01*
X151810340Y-73563396D01*
X151714590Y-73534351D01*
X151609060Y-73523958D01*
X151038613Y-73526742D01*
X150954000Y-73611356D01*
X150533000Y-73611356D01*
X150533000Y-63598611D01*
X154260599Y-63598611D01*
X154302930Y-63727186D01*
X154515479Y-63829260D01*
X154784114Y-63898244D01*
X155061045Y-63913495D01*
X155335634Y-63874424D01*
X155599931Y-63781621D01*
X155696066Y-63730235D01*
X155739400Y-63598611D01*
X155000000Y-62859211D01*
X154260599Y-63598611D01*
X150533000Y-63598611D01*
X150533000Y-62561045D01*
X153586504Y-62561045D01*
X153625575Y-62835634D01*
X153718378Y-63099931D01*
X153769764Y-63196066D01*
X153901388Y-63239400D01*
X154640789Y-62500000D01*
X155359211Y-62500000D01*
X156098611Y-63239400D01*
X156172548Y-63215059D01*
X156221734Y-63209044D01*
X156269478Y-63222309D01*
X156308512Y-63252835D01*
X156317859Y-63265133D01*
X156406333Y-63397544D01*
X156602455Y-63593666D01*
X156833060Y-63747752D01*
X157089302Y-63853891D01*
X157361325Y-63908000D01*
X157638675Y-63908000D01*
X157910697Y-63853891D01*
X158166939Y-63747752D01*
X158397544Y-63593666D01*
X158593664Y-63397546D01*
X158644403Y-63321611D01*
X158679443Y-63286572D01*
X158725224Y-63267609D01*
X158774777Y-63267609D01*
X158820558Y-63286572D01*
X158855597Y-63321611D01*
X158906335Y-63397546D01*
X159102455Y-63593666D01*
X159333060Y-63747752D01*
X159589302Y-63853891D01*
X159861325Y-63908000D01*
X160138675Y-63908000D01*
X160410697Y-63853891D01*
X160666939Y-63747752D01*
X160897544Y-63593666D01*
X161093666Y-63397544D01*
X161247752Y-63166939D01*
X161353891Y-62910697D01*
X161408000Y-62638674D01*
X161408000Y-62361325D01*
X161353891Y-62089302D01*
X161247752Y-61833060D01*
X161093666Y-61602455D01*
X160897544Y-61406333D01*
X160666939Y-61252247D01*
X160410697Y-61146108D01*
X160138675Y-61092000D01*
X159861325Y-61092000D01*
X159589302Y-61146108D01*
X159333060Y-61252247D01*
X159102455Y-61406333D01*
X158906335Y-61602453D01*
X158855597Y-61678389D01*
X158820557Y-61713428D01*
X158774776Y-61732391D01*
X158725223Y-61732391D01*
X158679442Y-61713428D01*
X158644403Y-61678389D01*
X158593664Y-61602453D01*
X158397544Y-61406333D01*
X158166939Y-61252247D01*
X157910697Y-61146108D01*
X157638675Y-61092000D01*
X157361325Y-61092000D01*
X157089302Y-61146108D01*
X156833060Y-61252247D01*
X156602455Y-61406333D01*
X156406333Y-61602455D01*
X156317859Y-61734867D01*
X156282819Y-61769907D01*
X156237038Y-61788870D01*
X156187485Y-61788870D01*
X156172548Y-61784941D01*
X156098611Y-61760599D01*
X155359211Y-62500000D01*
X154640789Y-62500000D01*
X153901388Y-61760599D01*
X153772813Y-61802930D01*
X153670739Y-62015479D01*
X153601755Y-62284114D01*
X153586504Y-62561045D01*
X150533000Y-62561045D01*
X150533000Y-61401388D01*
X154260599Y-61401388D01*
X155000000Y-62140789D01*
X155739400Y-61401388D01*
X155697069Y-61272813D01*
X155484520Y-61170739D01*
X155215885Y-61101755D01*
X154938954Y-61086504D01*
X154664365Y-61125575D01*
X154400068Y-61218378D01*
X154303933Y-61269764D01*
X154260599Y-61401388D01*
X150533000Y-61401388D01*
X150533000Y-56867757D01*
X151241453Y-56867757D01*
X151389237Y-57118546D01*
X151805913Y-57336617D01*
X152279903Y-57475900D01*
X152771959Y-57520038D01*
X153263169Y-57467332D01*
X153735200Y-57319640D01*
X154110458Y-57119062D01*
X154258546Y-56867757D01*
X160741453Y-56867757D01*
X160889237Y-57118546D01*
X161305913Y-57336617D01*
X161779903Y-57475900D01*
X162271959Y-57520038D01*
X162763169Y-57467332D01*
X163235200Y-57319640D01*
X163610458Y-57119062D01*
X163758546Y-56867757D01*
X162250000Y-55359211D01*
X160741453Y-56867757D01*
X154258546Y-56867757D01*
X152750000Y-55359211D01*
X151241453Y-56867757D01*
X150533000Y-56867757D01*
X150533000Y-56524994D01*
X150542667Y-56476393D01*
X150570197Y-56435191D01*
X150611399Y-56407661D01*
X150660000Y-56397994D01*
X150708601Y-56407661D01*
X150724476Y-56415578D01*
X150882242Y-56508546D01*
X152390789Y-55000000D01*
X153109211Y-55000000D01*
X154617757Y-56508546D01*
X154868546Y-56360762D01*
X155086617Y-55944086D01*
X155225900Y-55470096D01*
X155266099Y-55021959D01*
X159729961Y-55021959D01*
X159782667Y-55513169D01*
X159930359Y-55985200D01*
X160130937Y-56360458D01*
X160382242Y-56508546D01*
X161890789Y-55000000D01*
X160382242Y-53491453D01*
X160131453Y-53639237D01*
X159913382Y-54055913D01*
X159774099Y-54529903D01*
X159729961Y-55021959D01*
X155266099Y-55021959D01*
X155267017Y-55011725D01*
X155267017Y-55011724D01*
X155270038Y-54978040D01*
X155217332Y-54486830D01*
X155069640Y-54014799D01*
X154869062Y-53639541D01*
X154617757Y-53491453D01*
X153109211Y-55000000D01*
X152390789Y-55000000D01*
X150882242Y-53491453D01*
X150724476Y-53584422D01*
X150677697Y-53600767D01*
X150628223Y-53597966D01*
X150583587Y-53576446D01*
X150550584Y-53539482D01*
X150534239Y-53492703D01*
X150533000Y-53475006D01*
X150533000Y-53132242D01*
X151241453Y-53132242D01*
X152750000Y-54640789D01*
X154258546Y-53132242D01*
X160741453Y-53132242D01*
X162250000Y-54640789D01*
X163758546Y-53132242D01*
X163610762Y-52881453D01*
X163194086Y-52663382D01*
X162720096Y-52524099D01*
X162228040Y-52479961D01*
X161736830Y-52532667D01*
X161264799Y-52680359D01*
X160889541Y-52880937D01*
X160741453Y-53132242D01*
X154258546Y-53132242D01*
X154110762Y-52881453D01*
X153694086Y-52663382D01*
X153220096Y-52524099D01*
X152728040Y-52479961D01*
X152236830Y-52532667D01*
X151764799Y-52680359D01*
X151389541Y-52880937D01*
X151241453Y-53132242D01*
X150533000Y-53132242D01*
X150533000Y-50660000D01*
X150542667Y-50611399D01*
X150570197Y-50570197D01*
X150611399Y-50542667D01*
X150660000Y-50533000D01*
X164340001Y-50533000D01*
X164388602Y-50542667D01*
G37*
G04 #@! TD.AperFunction*
M02*
