M48
; DRILL file KiCad 10.0.6 date 2026-10-07T19:37:00
; FORMAT={-:-/ absolute / metric / decimal}
; #@! TF.CreationDate,2026-10-07T19:37:00-07:00
; #@! TF.GenerationSoftware,Kicad,Pcbnew,10.0.6
; #@! TF.FileFunction,Plated,1,2,PTH
FMAT,2
METRIC
; #@! TA.AperFunction,Plated,PTH,ComponentDrill
T1C0.750
; #@! TA.AperFunction,Plated,PTH,ComponentDrill
T2C1.000
; #@! TA.AperFunction,Plated,PTH,ComponentDrill
T3C1.220
; #@! TA.AperFunction,Plated,PTH,ComponentDrill
T4C2.000
%
G90
G05
T2
X155.0Y-62.5
X155.0Y-117.5
X157.5Y-62.5
X157.5Y-117.5
X160.0Y-62.5
X160.0Y-117.5
T3
X150.7Y-75.0
X150.7Y-90.0
X150.7Y-130.0
X150.7Y-145.0
T4
X152.75Y-55.0
X152.75Y-110.0
X162.25Y-55.0
X162.25Y-110.0
T1
X153.8Y-74.125G85X153.8Y-75.875
G05
X153.8Y-89.125G85X153.8Y-90.875
G05
X153.8Y-129.125G85X153.8Y-130.875
G05
X153.8Y-144.125G85X153.8Y-145.875
G05
X162.1Y-74.125G85X162.1Y-75.875
G05
X162.1Y-89.125G85X162.1Y-90.875
G05
X162.1Y-129.125G85X162.1Y-130.875
G05
X162.1Y-144.125G85X162.1Y-145.875
G05
M30
