G04 #@! TF.GenerationSoftware,KiCad,Pcbnew,10.0.6*
G04 #@! TF.CreationDate,2026-10-07T21:11:50-07:00*
G04 #@! TF.ProjectId,LevelsFaceplate,4c657665-6c73-4466-9163-65706c617465,1.0*
G04 #@! TF.SameCoordinates,Original*
G04 #@! TF.FileFunction,Legend,Top*
G04 #@! TF.FilePolarity,Positive*
%FSLAX46Y46*%
G04 Gerber Fmt 4.6, Leading zero omitted, Abs format (unit mm)*
G04 Created by KiCad (PCBNEW 10.0.6) date 2026-10-07 21:11:50*
%MOMM*%
%LPD*%
G01*
G04 APERTURE LIST*
%ADD10C,1.000000*%
%ADD11C,0.300000*%
%ADD12C,0.200000*%
%ADD13C,0.500000*%
%ADD14C,4.500000*%
%ADD15C,0.400000*%
%ADD16C,0.010000*%
G04 APERTURE END LIST*
D10*
X142500000Y-87500000D02*
X157500000Y-87500000D01*
D11*
X146452768Y-42500000D02*
X142702768Y-42500000D01*
X146452768Y-97500000D02*
X142702768Y-97500000D01*
D12*
X146572027Y-41594134D02*
X143432768Y-40752972D01*
X146572027Y-43405867D02*
X143432768Y-44247029D01*
X146572027Y-96594134D02*
X143432768Y-95752972D01*
X146572027Y-98405867D02*
X143432768Y-99247029D01*
X146921679Y-40750000D02*
X144107096Y-39125000D01*
X146921679Y-44250000D02*
X144107096Y-45875000D01*
X146921679Y-95750000D02*
X144107096Y-94125000D01*
X146921679Y-99250000D02*
X144107096Y-100875000D01*
D11*
X147477894Y-40025127D02*
X144826243Y-37373476D01*
X147477894Y-44974874D02*
X144826243Y-47626525D01*
X147477894Y-95025127D02*
X144826243Y-92373476D01*
X147477894Y-99974874D02*
X144826243Y-102626525D01*
D12*
X148202768Y-39468912D02*
X146577768Y-36654329D01*
D11*
X148202768Y-45531089D02*
X146577768Y-48345672D01*
D12*
X148202768Y-94468912D02*
X146577768Y-91654329D01*
D11*
X148202768Y-100531089D02*
X146577768Y-103345672D01*
D12*
X149046901Y-39119260D02*
X148205739Y-35980001D01*
X149046901Y-94119260D02*
X148205739Y-90980001D01*
D13*
X149952768Y-39000000D02*
X149952768Y-35250000D01*
X149952768Y-94000000D02*
X149952768Y-90250000D01*
D14*
X153000000Y-77500000D02*
G75*
G02*
X147000000Y-77500000I-3000000J0D01*
G01*
X147000000Y-77500000D02*
G75*
G02*
X153000000Y-77500000I3000000J0D01*
G01*
X153000000Y-132500000D02*
G75*
G02*
X147000000Y-132500000I-3000000J0D01*
G01*
X147000000Y-132500000D02*
G75*
G02*
X153000000Y-132500000I3000000J0D01*
G01*
D12*
X150858634Y-39119260D02*
X151699796Y-35980001D01*
X150858634Y-94119260D02*
X151699796Y-90980001D01*
X151702768Y-39468912D02*
X153327768Y-36654329D01*
D11*
X151702768Y-45531089D02*
X153327768Y-48345672D01*
D12*
X151702768Y-94468912D02*
X153327768Y-91654329D01*
D11*
X151702768Y-100531089D02*
X153327768Y-103345672D01*
X152427641Y-40025127D02*
X155079292Y-37373476D01*
X152427641Y-44974874D02*
X155079292Y-47626525D01*
X152427641Y-95025127D02*
X155079292Y-92373476D01*
X152427641Y-99974874D02*
X155079292Y-102626525D01*
D12*
X152983856Y-40750000D02*
X155798439Y-39125000D01*
X152983856Y-44250000D02*
X155798439Y-45875000D01*
X152983856Y-95750000D02*
X155798439Y-94125000D01*
X152983856Y-99250000D02*
X155798439Y-100875000D01*
X153333508Y-41594134D02*
X156472767Y-40752972D01*
X153333508Y-43405867D02*
X156472767Y-44247029D01*
X153333508Y-96594134D02*
X156472767Y-95752972D01*
X153333508Y-98405867D02*
X156472767Y-99247029D01*
D11*
X153452768Y-42500000D02*
X157202768Y-42500000D01*
X153452768Y-97500000D02*
X157202768Y-97500000D01*
G36*
X145455501Y-149554348D02*
G01*
X145445839Y-149630058D01*
X145417197Y-149698531D01*
X145372020Y-149757073D01*
X145312979Y-149802022D01*
X145244035Y-149830510D01*
X145167966Y-149840118D01*
X145100805Y-149840118D01*
X145100805Y-149644968D01*
X145167447Y-149644968D01*
X145202716Y-149638175D01*
X145232843Y-149617668D01*
X145253346Y-149587627D01*
X145260143Y-149552376D01*
X145260143Y-148413758D01*
X145253343Y-148378525D01*
X145232843Y-148348570D01*
X145202716Y-148328063D01*
X145167447Y-148321270D01*
X144784517Y-148321270D01*
X144749463Y-148328103D01*
X144720366Y-148348570D01*
X144700760Y-148378537D01*
X144694208Y-148413966D01*
X144694208Y-149554867D01*
X144684353Y-149630332D01*
X144655074Y-149698738D01*
X144609476Y-149757363D01*
X144551686Y-149802126D01*
X144484419Y-149830503D01*
X144409164Y-149840118D01*
X144026649Y-149840118D01*
X143951138Y-149830506D01*
X143882882Y-149802022D01*
X143824418Y-149757105D01*
X143779598Y-149698531D01*
X143751115Y-149630070D01*
X143741502Y-149554348D01*
X143741502Y-148411786D01*
X143751166Y-148336092D01*
X143779805Y-148267707D01*
X143824875Y-148209091D01*
X143883712Y-148164215D01*
X143952275Y-148135733D01*
X144028103Y-148126120D01*
X144094952Y-148126120D01*
X144094952Y-148321270D01*
X144028933Y-148321270D01*
X143993807Y-148328068D01*
X143963952Y-148348570D01*
X143943615Y-148378509D01*
X143936860Y-148413758D01*
X143936860Y-149552376D01*
X143943611Y-149587643D01*
X143963952Y-149617668D01*
X143993807Y-149638170D01*
X144028933Y-149644968D01*
X144409164Y-149644968D01*
X144443932Y-149638146D01*
X144472899Y-149617668D01*
X144492347Y-149587630D01*
X144498850Y-149552168D01*
X144498850Y-148411267D01*
X144508781Y-148335836D01*
X144538295Y-148267500D01*
X144584043Y-148208829D01*
X144642099Y-148164112D01*
X144709583Y-148135739D01*
X144785139Y-148126120D01*
X145169211Y-148126120D01*
X145244964Y-148135727D01*
X145313602Y-148164215D01*
X145372353Y-148209083D01*
X145417405Y-148267707D01*
X145445885Y-148336080D01*
X145455501Y-148411786D01*
X145455501Y-149554348D01*
G37*
G36*
X145455501Y-147196873D02*
G01*
X143936860Y-147196873D01*
X143936860Y-147958374D01*
X143741502Y-147958374D01*
X143741502Y-146244375D01*
X143936860Y-146244375D01*
X143936860Y-147001723D01*
X145455501Y-147001723D01*
X145455501Y-147196873D01*
G37*
G36*
X144850951Y-146060021D02*
G01*
X144655593Y-146060021D01*
X144655593Y-145129944D01*
X144850951Y-145129944D01*
X144850951Y-146060021D01*
G37*
G36*
X145243005Y-143117761D02*
G01*
X145311525Y-143147199D01*
X145370467Y-143192983D01*
X145416263Y-143251832D01*
X145445619Y-143320258D01*
X145455501Y-143395807D01*
X145455501Y-144549788D01*
X145445549Y-144627313D01*
X145416263Y-144696046D01*
X145370418Y-144754658D01*
X145311525Y-144799538D01*
X145243079Y-144828024D01*
X145167447Y-144837634D01*
X144032047Y-144837634D01*
X143954273Y-144827947D01*
X143885581Y-144799538D01*
X143826688Y-144754658D01*
X143780843Y-144696046D01*
X143751479Y-144627307D01*
X143741502Y-144549788D01*
X143741502Y-144549684D01*
X143936860Y-144549684D01*
X143943680Y-144585034D01*
X143964264Y-144615184D01*
X143994434Y-144635676D01*
X144029971Y-144642484D01*
X145024094Y-144642484D01*
X143936860Y-143329166D01*
X143936860Y-144549684D01*
X143741502Y-144549684D01*
X143741502Y-143395807D01*
X143751408Y-143320264D01*
X143758831Y-143303007D01*
X144172908Y-143303007D01*
X145260143Y-144618713D01*
X145260143Y-143395807D01*
X145253319Y-143360475D01*
X145232739Y-143330411D01*
X145202575Y-143309833D01*
X145167135Y-143303007D01*
X144172908Y-143303007D01*
X143758831Y-143303007D01*
X143780843Y-143251832D01*
X143826639Y-143192983D01*
X143885581Y-143147199D01*
X143954348Y-143117840D01*
X144032047Y-143107857D01*
X145167447Y-143107857D01*
X145243005Y-143117761D01*
G37*
G36*
X145455501Y-142852917D02*
G01*
X144811402Y-142852917D01*
X144733597Y-142843236D01*
X144664728Y-142814821D01*
X144605900Y-142769877D01*
X144560924Y-142711329D01*
X144532430Y-142642658D01*
X144522725Y-142565070D01*
X144522725Y-141411090D01*
X144515923Y-141375749D01*
X144495425Y-141345694D01*
X144465390Y-141325104D01*
X144430236Y-141318290D01*
X144029348Y-141318290D01*
X143994123Y-141325112D01*
X143964160Y-141345694D01*
X143943661Y-141375749D01*
X143936860Y-141411090D01*
X143936860Y-142564966D01*
X143943658Y-142600325D01*
X143964160Y-142630466D01*
X143994115Y-142650966D01*
X144029348Y-142657766D01*
X144095678Y-142657766D01*
X144095678Y-142852917D01*
X144029660Y-142852917D01*
X143952503Y-142843234D01*
X143884335Y-142814821D01*
X143825934Y-142769965D01*
X143780428Y-142711329D01*
X143751380Y-142642614D01*
X143741502Y-142565070D01*
X143741502Y-141411090D01*
X143751359Y-141335535D01*
X143780636Y-141267115D01*
X143826211Y-141208252D01*
X143884854Y-141162481D01*
X143953390Y-141133116D01*
X144030698Y-141123140D01*
X144431274Y-141123140D01*
X144506426Y-141133039D01*
X144574626Y-141162481D01*
X144633291Y-141208248D01*
X144678949Y-141267115D01*
X144708225Y-141335535D01*
X144718082Y-141411090D01*
X144718082Y-142564966D01*
X144724926Y-142600309D01*
X144745590Y-142630466D01*
X144775746Y-142650963D01*
X144811194Y-142657766D01*
X145167031Y-142657766D01*
X145202497Y-142650967D01*
X145232739Y-142630466D01*
X145253322Y-142600317D01*
X145260143Y-142564966D01*
X145260143Y-141123140D01*
X145455501Y-141123140D01*
X145455501Y-142852917D01*
G37*
D15*
G36*
X143424983Y-32537501D02*
G01*
X143424983Y-30016914D01*
X143711968Y-30016914D01*
X143711968Y-32250210D01*
X145945569Y-32250210D01*
X145945569Y-32537501D01*
X143424983Y-32537501D01*
G37*
G36*
X147883784Y-30520030D02*
G01*
X147984691Y-30563102D01*
X148071238Y-30630301D01*
X148138564Y-30716823D01*
X148181744Y-30817408D01*
X148196267Y-30928245D01*
X148196267Y-31662195D01*
X146418179Y-31662195D01*
X146418179Y-32112976D01*
X146428173Y-32165157D01*
X146458326Y-32209757D01*
X146502654Y-32240153D01*
X146554497Y-32250210D01*
X148196267Y-32250210D01*
X148196267Y-32537501D01*
X146554039Y-32537501D01*
X146443202Y-32522978D01*
X146342616Y-32479798D01*
X146256193Y-32412341D01*
X146188896Y-32325620D01*
X146145717Y-32224734D01*
X146131194Y-32113587D01*
X146131194Y-30929314D01*
X146131274Y-30928703D01*
X146418179Y-30928703D01*
X146418179Y-31374905D01*
X147909281Y-31374905D01*
X147909281Y-30928703D01*
X147899248Y-30876901D01*
X147868981Y-30832838D01*
X147824677Y-30802681D01*
X147772811Y-30792691D01*
X146554802Y-30792691D01*
X146502805Y-30802688D01*
X146458479Y-30832838D01*
X146428212Y-30876901D01*
X146418179Y-30928703D01*
X146131274Y-30928703D01*
X146145722Y-30818189D01*
X146188896Y-30717433D01*
X146256210Y-30630618D01*
X146342616Y-30563255D01*
X146443211Y-30519959D01*
X146554039Y-30505400D01*
X147770063Y-30505400D01*
X147883784Y-30520030D01*
G37*
G36*
X149498386Y-32537501D02*
G01*
X148378380Y-30505400D01*
X148714520Y-30505400D01*
X149666456Y-32257232D01*
X150618393Y-30505400D01*
X150954379Y-30505400D01*
X149831015Y-32537501D01*
X149498386Y-32537501D01*
G37*
G36*
X152893204Y-30520030D02*
G01*
X152994112Y-30563102D01*
X153080659Y-30630301D01*
X153147985Y-30716823D01*
X153191165Y-30817408D01*
X153205688Y-30928245D01*
X153205688Y-31662195D01*
X151427600Y-31662195D01*
X151427600Y-32112976D01*
X151437594Y-32165157D01*
X151467747Y-32209757D01*
X151512075Y-32240153D01*
X151563918Y-32250210D01*
X153205688Y-32250210D01*
X153205688Y-32537501D01*
X151563460Y-32537501D01*
X151452622Y-32522978D01*
X151352037Y-32479798D01*
X151265613Y-32412341D01*
X151198317Y-32325620D01*
X151155138Y-32224734D01*
X151140614Y-32113587D01*
X151140614Y-30929314D01*
X151140694Y-30928703D01*
X151427600Y-30928703D01*
X151427600Y-31374905D01*
X152918702Y-31374905D01*
X152918702Y-30928703D01*
X152908669Y-30876901D01*
X152878402Y-30832838D01*
X152834098Y-30802681D01*
X152782232Y-30792691D01*
X151564223Y-30792691D01*
X151512225Y-30802688D01*
X151467900Y-30832838D01*
X151437633Y-30876901D01*
X151427600Y-30928703D01*
X151140694Y-30928703D01*
X151155142Y-30818189D01*
X151198317Y-30717433D01*
X151265631Y-30630618D01*
X151352037Y-30563255D01*
X151452631Y-30519959D01*
X151563460Y-30505400D01*
X152779484Y-30505400D01*
X152893204Y-30520030D01*
G37*
G36*
X153923914Y-32537501D02*
G01*
X153812658Y-32522968D01*
X153711881Y-32479798D01*
X153625175Y-32412326D01*
X153557703Y-32325620D01*
X153514528Y-32224864D01*
X153500000Y-32113739D01*
X153500000Y-29841059D01*
X153786986Y-29841059D01*
X153786986Y-32113739D01*
X153797009Y-32165594D01*
X153827286Y-32209910D01*
X153871750Y-32240184D01*
X153923762Y-32250210D01*
X154266923Y-32250210D01*
X154266923Y-32537501D01*
X153923914Y-32537501D01*
G37*
G36*
X154958435Y-32537501D02*
G01*
X154847475Y-32522937D01*
X154746860Y-32479645D01*
X154660458Y-32412135D01*
X154593140Y-32325162D01*
X154550078Y-32224135D01*
X154535590Y-32112823D01*
X154535590Y-32084735D01*
X154822575Y-32084735D01*
X154822575Y-32112976D01*
X154832582Y-32165262D01*
X154862723Y-32209757D01*
X154907072Y-32240146D01*
X154959046Y-32250210D01*
X156177207Y-32250210D01*
X156229155Y-32240141D01*
X156273378Y-32209757D01*
X156303650Y-32165145D01*
X156313678Y-32112976D01*
X156313678Y-31799429D01*
X156303645Y-31747286D01*
X156273378Y-31702801D01*
X156229143Y-31672297D01*
X156177207Y-31662195D01*
X154959046Y-31662195D01*
X154847921Y-31647667D01*
X154747165Y-31604493D01*
X154660601Y-31537201D01*
X154593292Y-31450772D01*
X154550113Y-31350187D01*
X154535590Y-31239350D01*
X154535590Y-30928245D01*
X154550077Y-30817399D01*
X154593140Y-30716823D01*
X154660438Y-30630290D01*
X154746860Y-30563102D01*
X154847466Y-30519928D01*
X154958435Y-30505400D01*
X156174459Y-30505400D01*
X156288180Y-30520030D01*
X156389088Y-30563102D01*
X156475630Y-30630449D01*
X156542961Y-30717128D01*
X156586136Y-30817734D01*
X156600663Y-30928703D01*
X156600663Y-30956486D01*
X156313678Y-30956486D01*
X156313678Y-30928551D01*
X156303652Y-30876880D01*
X156273378Y-30832838D01*
X156229178Y-30802693D01*
X156177207Y-30792691D01*
X154959046Y-30792691D01*
X154907048Y-30802688D01*
X154862723Y-30832838D01*
X154832575Y-30876890D01*
X154822575Y-30928703D01*
X154822575Y-31238892D01*
X154832570Y-31290732D01*
X154862723Y-31334910D01*
X154906889Y-31364942D01*
X154958741Y-31374905D01*
X156174459Y-31374905D01*
X156288294Y-31389612D01*
X156389240Y-31432912D01*
X156475642Y-31500423D01*
X156542961Y-31587396D01*
X156586134Y-31688452D01*
X156600663Y-31799887D01*
X156600663Y-32112518D01*
X156586134Y-32223953D01*
X156542961Y-32325009D01*
X156475622Y-32412002D01*
X156389088Y-32479645D01*
X156288171Y-32522834D01*
X156174459Y-32537501D01*
X154958435Y-32537501D01*
G37*
D16*
X156142039Y-147459285D02*
X156206334Y-147489357D01*
X156277791Y-147553876D01*
X156278772Y-147554885D01*
X156342485Y-147629891D01*
X156372000Y-147697873D01*
X156378908Y-147779722D01*
X156371270Y-147865085D01*
X156340464Y-147931644D01*
X156279189Y-148001170D01*
X156205715Y-148065089D01*
X156138388Y-148094343D01*
X156060467Y-148100783D01*
X155946726Y-148084199D01*
X155849059Y-148044339D01*
X155811750Y-148024403D01*
X155768857Y-148009777D01*
X155711453Y-147999653D01*
X155630611Y-147993223D01*
X155517406Y-147989680D01*
X155362909Y-147988218D01*
X155226034Y-147988000D01*
X155040533Y-147988240D01*
X154903064Y-147989581D01*
X154805212Y-147992950D01*
X154738565Y-147999275D01*
X154694709Y-148009485D01*
X154665233Y-148024509D01*
X154641722Y-148045273D01*
X154634050Y-148053319D01*
X154583591Y-148141667D01*
X154568185Y-148247807D01*
X154587140Y-148351223D01*
X154639760Y-148431399D01*
X154647047Y-148437507D01*
X154675907Y-148457576D01*
X154709777Y-148472457D01*
X154757004Y-148482919D01*
X154825937Y-148489734D01*
X154924925Y-148493671D01*
X155062317Y-148495501D01*
X155246461Y-148495993D01*
X155280989Y-148496000D01*
X155478606Y-148496587D01*
X155629429Y-148498868D01*
X155743102Y-148503626D01*
X155829269Y-148511640D01*
X155897572Y-148523691D01*
X155957656Y-148540562D01*
X155995147Y-148553835D01*
X156162437Y-148644020D01*
X156289150Y-148771578D01*
X156371640Y-148931200D01*
X156406263Y-149117573D01*
X156407130Y-149154104D01*
X156385501Y-149355369D01*
X156319599Y-149522430D01*
X156207900Y-149657940D01*
X156059658Y-149758986D01*
X156009582Y-149784406D01*
X155963445Y-149803641D01*
X155912437Y-149817711D01*
X155847743Y-149827635D01*
X155760552Y-149834434D01*
X155642050Y-149839126D01*
X155483426Y-149842732D01*
X155310141Y-149845710D01*
X155106502Y-149849533D01*
X154951210Y-149853935D01*
X154836169Y-149859662D01*
X154753284Y-149867463D01*
X154694457Y-149878083D01*
X154651592Y-149892269D01*
X154618697Y-149909474D01*
X154487268Y-149959671D01*
X154352988Y-149957377D01*
X154228193Y-149903563D01*
X154192668Y-149875965D01*
X154131438Y-149815462D01*
X154102064Y-149758755D01*
X154093239Y-149679889D01*
X154092946Y-149650716D01*
X154270765Y-149650716D01*
X154274430Y-149675275D01*
X154320810Y-149741015D01*
X154395924Y-149770573D01*
X154482410Y-149760340D01*
X154537408Y-149729941D01*
X154570924Y-149675450D01*
X154562875Y-149611108D01*
X154521883Y-149552893D01*
X154456571Y-149516787D01*
X154419822Y-149512000D01*
X154347847Y-149533411D01*
X154292820Y-149585648D01*
X154270765Y-149650716D01*
X154092946Y-149650716D01*
X154092908Y-149646938D01*
X154097796Y-149555565D01*
X154120407Y-149493255D01*
X154172658Y-149432929D01*
X154197201Y-149409973D01*
X154311172Y-149336459D01*
X154432660Y-149311128D01*
X154549433Y-149335141D01*
X154608609Y-149370889D01*
X154636176Y-149389758D01*
X154669640Y-149403896D01*
X154716995Y-149413981D01*
X154786233Y-149420688D01*
X154885345Y-149424693D01*
X155022323Y-149426674D01*
X155205160Y-149427305D01*
X155275637Y-149427333D01*
X155474625Y-149427014D01*
X155624947Y-149425615D01*
X155734381Y-149422468D01*
X155810703Y-149416908D01*
X155861692Y-149408270D01*
X155895125Y-149395888D01*
X155918778Y-149379096D01*
X155926635Y-149371606D01*
X155991595Y-149270137D01*
X156007246Y-149153446D01*
X155972942Y-149034906D01*
X155945032Y-148989889D01*
X155928262Y-148971446D01*
X155903427Y-148957178D01*
X155863190Y-148946291D01*
X155800215Y-148937992D01*
X155707165Y-148931490D01*
X155576703Y-148925992D01*
X155401491Y-148920704D01*
X155273529Y-148917347D01*
X155045749Y-148910705D01*
X154866392Y-148902644D01*
X154727438Y-148891450D01*
X154620864Y-148875406D01*
X154538651Y-148852799D01*
X154472778Y-148821912D01*
X154415223Y-148781030D01*
X154357966Y-148728440D01*
X154349162Y-148719690D01*
X154256241Y-148613113D01*
X154199371Y-148507447D01*
X154171119Y-148383518D01*
X154164024Y-148242000D01*
X154167003Y-148121111D01*
X154180044Y-148034145D01*
X154208149Y-147958807D01*
X154241183Y-147898122D01*
X154291985Y-147821983D01*
X155908123Y-147821983D01*
X155948377Y-147877744D01*
X156033115Y-147902473D01*
X156057270Y-147903333D01*
X156126571Y-147894934D01*
X156160293Y-147861828D01*
X156169252Y-147834814D01*
X156175343Y-147755703D01*
X156167392Y-147706254D01*
X156143535Y-147666016D01*
X156095301Y-147652870D01*
X156045414Y-147654828D01*
X155969862Y-147670219D01*
X155929190Y-147708699D01*
X155915956Y-147739369D01*
X155908123Y-147821983D01*
X154291985Y-147821983D01*
X154307940Y-147798072D01*
X154381927Y-147719611D01*
X154470637Y-147660288D01*
X154581563Y-147617654D01*
X154722196Y-147589259D01*
X154900030Y-147572652D01*
X155122557Y-147565384D01*
X155261560Y-147564480D01*
X155445971Y-147563901D01*
X155582963Y-147561748D01*
X155681559Y-147557168D01*
X155750780Y-147549309D01*
X155799646Y-147537319D01*
X155837181Y-147520344D01*
X155856797Y-147508222D01*
X155957931Y-147465672D01*
X156060049Y-147451963D01*
X156142039Y-147459285D01*
G36*
X156142039Y-147459285D02*
G01*
X156206334Y-147489357D01*
X156277791Y-147553876D01*
X156278772Y-147554885D01*
X156342485Y-147629891D01*
X156372000Y-147697873D01*
X156378908Y-147779722D01*
X156371270Y-147865085D01*
X156340464Y-147931644D01*
X156279189Y-148001170D01*
X156205715Y-148065089D01*
X156138388Y-148094343D01*
X156060467Y-148100783D01*
X155946726Y-148084199D01*
X155849059Y-148044339D01*
X155811750Y-148024403D01*
X155768857Y-148009777D01*
X155711453Y-147999653D01*
X155630611Y-147993223D01*
X155517406Y-147989680D01*
X155362909Y-147988218D01*
X155226034Y-147988000D01*
X155040533Y-147988240D01*
X154903064Y-147989581D01*
X154805212Y-147992950D01*
X154738565Y-147999275D01*
X154694709Y-148009485D01*
X154665233Y-148024509D01*
X154641722Y-148045273D01*
X154634050Y-148053319D01*
X154583591Y-148141667D01*
X154568185Y-148247807D01*
X154587140Y-148351223D01*
X154639760Y-148431399D01*
X154647047Y-148437507D01*
X154675907Y-148457576D01*
X154709777Y-148472457D01*
X154757004Y-148482919D01*
X154825937Y-148489734D01*
X154924925Y-148493671D01*
X155062317Y-148495501D01*
X155246461Y-148495993D01*
X155280989Y-148496000D01*
X155478606Y-148496587D01*
X155629429Y-148498868D01*
X155743102Y-148503626D01*
X155829269Y-148511640D01*
X155897572Y-148523691D01*
X155957656Y-148540562D01*
X155995147Y-148553835D01*
X156162437Y-148644020D01*
X156289150Y-148771578D01*
X156371640Y-148931200D01*
X156406263Y-149117573D01*
X156407130Y-149154104D01*
X156385501Y-149355369D01*
X156319599Y-149522430D01*
X156207900Y-149657940D01*
X156059658Y-149758986D01*
X156009582Y-149784406D01*
X155963445Y-149803641D01*
X155912437Y-149817711D01*
X155847743Y-149827635D01*
X155760552Y-149834434D01*
X155642050Y-149839126D01*
X155483426Y-149842732D01*
X155310141Y-149845710D01*
X155106502Y-149849533D01*
X154951210Y-149853935D01*
X154836169Y-149859662D01*
X154753284Y-149867463D01*
X154694457Y-149878083D01*
X154651592Y-149892269D01*
X154618697Y-149909474D01*
X154487268Y-149959671D01*
X154352988Y-149957377D01*
X154228193Y-149903563D01*
X154192668Y-149875965D01*
X154131438Y-149815462D01*
X154102064Y-149758755D01*
X154093239Y-149679889D01*
X154092946Y-149650716D01*
X154270765Y-149650716D01*
X154274430Y-149675275D01*
X154320810Y-149741015D01*
X154395924Y-149770573D01*
X154482410Y-149760340D01*
X154537408Y-149729941D01*
X154570924Y-149675450D01*
X154562875Y-149611108D01*
X154521883Y-149552893D01*
X154456571Y-149516787D01*
X154419822Y-149512000D01*
X154347847Y-149533411D01*
X154292820Y-149585648D01*
X154270765Y-149650716D01*
X154092946Y-149650716D01*
X154092908Y-149646938D01*
X154097796Y-149555565D01*
X154120407Y-149493255D01*
X154172658Y-149432929D01*
X154197201Y-149409973D01*
X154311172Y-149336459D01*
X154432660Y-149311128D01*
X154549433Y-149335141D01*
X154608609Y-149370889D01*
X154636176Y-149389758D01*
X154669640Y-149403896D01*
X154716995Y-149413981D01*
X154786233Y-149420688D01*
X154885345Y-149424693D01*
X155022323Y-149426674D01*
X155205160Y-149427305D01*
X155275637Y-149427333D01*
X155474625Y-149427014D01*
X155624947Y-149425615D01*
X155734381Y-149422468D01*
X155810703Y-149416908D01*
X155861692Y-149408270D01*
X155895125Y-149395888D01*
X155918778Y-149379096D01*
X155926635Y-149371606D01*
X155991595Y-149270137D01*
X156007246Y-149153446D01*
X155972942Y-149034906D01*
X155945032Y-148989889D01*
X155928262Y-148971446D01*
X155903427Y-148957178D01*
X155863190Y-148946291D01*
X155800215Y-148937992D01*
X155707165Y-148931490D01*
X155576703Y-148925992D01*
X155401491Y-148920704D01*
X155273529Y-148917347D01*
X155045749Y-148910705D01*
X154866392Y-148902644D01*
X154727438Y-148891450D01*
X154620864Y-148875406D01*
X154538651Y-148852799D01*
X154472778Y-148821912D01*
X154415223Y-148781030D01*
X154357966Y-148728440D01*
X154349162Y-148719690D01*
X154256241Y-148613113D01*
X154199371Y-148507447D01*
X154171119Y-148383518D01*
X154164024Y-148242000D01*
X154167003Y-148121111D01*
X154180044Y-148034145D01*
X154208149Y-147958807D01*
X154241183Y-147898122D01*
X154291985Y-147821983D01*
X155908123Y-147821983D01*
X155948377Y-147877744D01*
X156033115Y-147902473D01*
X156057270Y-147903333D01*
X156126571Y-147894934D01*
X156160293Y-147861828D01*
X156169252Y-147834814D01*
X156175343Y-147755703D01*
X156167392Y-147706254D01*
X156143535Y-147666016D01*
X156095301Y-147652870D01*
X156045414Y-147654828D01*
X155969862Y-147670219D01*
X155929190Y-147708699D01*
X155915956Y-147739369D01*
X155908123Y-147821983D01*
X154291985Y-147821983D01*
X154307940Y-147798072D01*
X154381927Y-147719611D01*
X154470637Y-147660288D01*
X154581563Y-147617654D01*
X154722196Y-147589259D01*
X154900030Y-147572652D01*
X155122557Y-147565384D01*
X155261560Y-147564480D01*
X155445971Y-147563901D01*
X155582963Y-147561748D01*
X155681559Y-147557168D01*
X155750780Y-147549309D01*
X155799646Y-147537319D01*
X155837181Y-147520344D01*
X155856797Y-147508222D01*
X155957931Y-147465672D01*
X156060049Y-147451963D01*
X156142039Y-147459285D01*
G37*
M02*
