%TF.GenerationSoftware,KiCad,Pcbnew,10.0.6*%
%TF.CreationDate,2026-09-30T22:13:23-07:00*%
%TF.ProjectId,PassiveAttenuatorFaceplate,50617373-6976-4654-9174-74656e756174,rev?*%
%TF.SameCoordinates,Original*%
%TF.FileFunction,Drillmap*%
%TF.FilePolarity,Positive*%
%FSLAX45Y45*%
G04 Gerber Fmt 4.5, Leading zero omitted, Abs format (unit mm)*
G04 Created by KiCad (PCBNEW 10.0.6) date 2026-09-30 22:13:23*
%MOMM*%
%LPD*%
G01*
G04 APERTURE LIST*
%ADD10C,0.200000*%
G04 APERTURE END LIST*
D10*
X14250000Y-2325000D02*
X15750000Y-2325000D01*
X14250000Y-15175000D02*
X14250000Y-2325000D01*
X15160000Y-2625000D02*
G75*
G02*
X14840000Y-2625000I-160000J0D01*
G01*
X14840000Y-2625000D02*
G75*
G02*
X15160000Y-2625000I160000J0D01*
G01*
X15160000Y-14875000D02*
G75*
G02*
X14840000Y-14875000I-160000J0D01*
G01*
X14840000Y-14875000D02*
G75*
G02*
X15160000Y-14875000I160000J0D01*
G01*
X15750000Y-2325000D02*
X15750000Y-15175000D01*
X15750000Y-15175000D02*
X14250000Y-15175000D01*
X14500777Y-15496484D02*
X14500777Y-15296484D01*
X14500777Y-15296484D02*
X14548396Y-15296484D01*
X14548396Y-15296484D02*
X14576967Y-15306008D01*
X14576967Y-15306008D02*
X14596015Y-15325055D01*
X14596015Y-15325055D02*
X14605539Y-15344103D01*
X14605539Y-15344103D02*
X14615062Y-15382198D01*
X14615062Y-15382198D02*
X14615062Y-15410770D01*
X14615062Y-15410770D02*
X14605539Y-15448865D01*
X14605539Y-15448865D02*
X14596015Y-15467912D01*
X14596015Y-15467912D02*
X14576967Y-15486960D01*
X14576967Y-15486960D02*
X14548396Y-15496484D01*
X14548396Y-15496484D02*
X14500777Y-15496484D01*
X14700777Y-15496484D02*
X14700777Y-15363150D01*
X14700777Y-15401246D02*
X14710301Y-15382198D01*
X14710301Y-15382198D02*
X14719824Y-15372674D01*
X14719824Y-15372674D02*
X14738872Y-15363150D01*
X14738872Y-15363150D02*
X14757920Y-15363150D01*
X14824586Y-15496484D02*
X14824586Y-15363150D01*
X14824586Y-15296484D02*
X14815062Y-15306008D01*
X14815062Y-15306008D02*
X14824586Y-15315531D01*
X14824586Y-15315531D02*
X14834110Y-15306008D01*
X14834110Y-15306008D02*
X14824586Y-15296484D01*
X14824586Y-15296484D02*
X14824586Y-15315531D01*
X14948396Y-15496484D02*
X14929348Y-15486960D01*
X14929348Y-15486960D02*
X14919824Y-15467912D01*
X14919824Y-15467912D02*
X14919824Y-15296484D01*
X15053158Y-15496484D02*
X15034110Y-15486960D01*
X15034110Y-15486960D02*
X15024586Y-15467912D01*
X15024586Y-15467912D02*
X15024586Y-15296484D01*
X15281729Y-15496484D02*
X15281729Y-15296484D01*
X15281729Y-15296484D02*
X15348396Y-15439341D01*
X15348396Y-15439341D02*
X15415062Y-15296484D01*
X15415062Y-15296484D02*
X15415062Y-15496484D01*
X15596015Y-15496484D02*
X15596015Y-15391722D01*
X15596015Y-15391722D02*
X15586491Y-15372674D01*
X15586491Y-15372674D02*
X15567443Y-15363150D01*
X15567443Y-15363150D02*
X15529348Y-15363150D01*
X15529348Y-15363150D02*
X15510301Y-15372674D01*
X15596015Y-15486960D02*
X15576967Y-15496484D01*
X15576967Y-15496484D02*
X15529348Y-15496484D01*
X15529348Y-15496484D02*
X15510301Y-15486960D01*
X15510301Y-15486960D02*
X15500777Y-15467912D01*
X15500777Y-15467912D02*
X15500777Y-15448865D01*
X15500777Y-15448865D02*
X15510301Y-15429817D01*
X15510301Y-15429817D02*
X15529348Y-15420293D01*
X15529348Y-15420293D02*
X15576967Y-15420293D01*
X15576967Y-15420293D02*
X15596015Y-15410770D01*
X15691253Y-15363150D02*
X15691253Y-15563150D01*
X15691253Y-15372674D02*
X15710301Y-15363150D01*
X15710301Y-15363150D02*
X15748396Y-15363150D01*
X15748396Y-15363150D02*
X15767443Y-15372674D01*
X15767443Y-15372674D02*
X15776967Y-15382198D01*
X15776967Y-15382198D02*
X15786491Y-15401246D01*
X15786491Y-15401246D02*
X15786491Y-15458389D01*
X15786491Y-15458389D02*
X15776967Y-15477436D01*
X15776967Y-15477436D02*
X15767443Y-15486960D01*
X15767443Y-15486960D02*
X15748396Y-15496484D01*
X15748396Y-15496484D02*
X15710301Y-15496484D01*
X15710301Y-15496484D02*
X15691253Y-15486960D01*
X15872205Y-15477436D02*
X15881729Y-15486960D01*
X15881729Y-15486960D02*
X15872205Y-15496484D01*
X15872205Y-15496484D02*
X15862682Y-15486960D01*
X15862682Y-15486960D02*
X15872205Y-15477436D01*
X15872205Y-15477436D02*
X15872205Y-15496484D01*
X15872205Y-15372674D02*
X15881729Y-15382198D01*
X15881729Y-15382198D02*
X15872205Y-15391722D01*
X15872205Y-15391722D02*
X15862682Y-15382198D01*
X15862682Y-15382198D02*
X15872205Y-15372674D01*
X15872205Y-15372674D02*
X15872205Y-15391722D01*
M02*
