%TF.GenerationSoftware,KiCad,Pcbnew,10.0.6*%
%TF.CreationDate,2026-09-30T22:13:23-07:00*%
%TF.ProjectId,PassiveAttenuatorFaceplate,50617373-6976-4654-9174-74656e756174,rev?*%
%TF.SameCoordinates,Original*%
%TF.FileFunction,Drillmap*%
%TF.FilePolarity,Positive*%
%FSLAX45Y45*%
G04 Gerber Fmt 4.5, Leading zero omitted, Abs format (unit mm)*
G04 Created by KiCad (PCBNEW 10.0.6) date 2026-09-30 22:13:23*
%MOMM*%
%LPD*%
G01*
G04 APERTURE LIST*
%ADD10C,0.200000*%
%ADD11C,0.320000*%
%ADD12C,0.600000*%
%ADD13C,0.700000*%
G04 APERTURE END LIST*
D10*
X14250000Y-2325000D02*
X15750000Y-2325000D01*
X14250000Y-15175000D02*
X14250000Y-2325000D01*
X15160000Y-2625000D02*
G75*
G02*
X14840000Y-2625000I-160000J0D01*
G01*
X14840000Y-2625000D02*
G75*
G02*
X15160000Y-2625000I160000J0D01*
G01*
X15160000Y-14875000D02*
G75*
G02*
X14840000Y-14875000I-160000J0D01*
G01*
X14840000Y-14875000D02*
G75*
G02*
X15160000Y-14875000I160000J0D01*
G01*
X15750000Y-2325000D02*
X15750000Y-15175000D01*
X15750000Y-15175000D02*
X14250000Y-15175000D01*
D11*
X14840000Y-2465000D02*
X15160000Y-2785000D01*
X15160000Y-2465000D02*
X14840000Y-2785000D01*
X14840000Y-14715000D02*
X15160000Y-15035000D01*
X15160000Y-14715000D02*
X14840000Y-15035000D01*
D12*
X15300000Y-6250000D02*
G75*
G02*
X14700000Y-6250000I-300000J0D01*
G01*
X14700000Y-6250000D02*
G75*
G02*
X15300000Y-6250000I300000J0D01*
G01*
X15300000Y-7750000D02*
G75*
G02*
X14700000Y-7750000I-300000J0D01*
G01*
X14700000Y-7750000D02*
G75*
G02*
X15300000Y-7750000I300000J0D01*
G01*
X15300000Y-11750000D02*
G75*
G02*
X14700000Y-11750000I-300000J0D01*
G01*
X14700000Y-11750000D02*
G75*
G02*
X15300000Y-11750000I300000J0D01*
G01*
X15300000Y-13250000D02*
G75*
G02*
X14700000Y-13250000I-300000J0D01*
G01*
X14700000Y-13250000D02*
G75*
G02*
X15300000Y-13250000I300000J0D01*
G01*
D13*
X15000000Y-3900000D02*
X15000000Y-4600000D01*
X14650000Y-4250000D02*
X15350000Y-4250000D01*
X15000000Y-9400000D02*
X15000000Y-10100000D01*
X14650000Y-9750000D02*
X15350000Y-9750000D01*
D10*
X14500777Y-15496484D02*
X14500777Y-15296484D01*
X14500777Y-15296484D02*
X14548396Y-15296484D01*
X14548396Y-15296484D02*
X14576967Y-15306008D01*
X14576967Y-15306008D02*
X14596015Y-15325055D01*
X14596015Y-15325055D02*
X14605539Y-15344103D01*
X14605539Y-15344103D02*
X14615062Y-15382198D01*
X14615062Y-15382198D02*
X14615062Y-15410770D01*
X14615062Y-15410770D02*
X14605539Y-15448865D01*
X14605539Y-15448865D02*
X14596015Y-15467912D01*
X14596015Y-15467912D02*
X14576967Y-15486960D01*
X14576967Y-15486960D02*
X14548396Y-15496484D01*
X14548396Y-15496484D02*
X14500777Y-15496484D01*
X14700777Y-15496484D02*
X14700777Y-15363150D01*
X14700777Y-15401246D02*
X14710301Y-15382198D01*
X14710301Y-15382198D02*
X14719824Y-15372674D01*
X14719824Y-15372674D02*
X14738872Y-15363150D01*
X14738872Y-15363150D02*
X14757920Y-15363150D01*
X14824586Y-15496484D02*
X14824586Y-15363150D01*
X14824586Y-15296484D02*
X14815062Y-15306008D01*
X14815062Y-15306008D02*
X14824586Y-15315531D01*
X14824586Y-15315531D02*
X14834110Y-15306008D01*
X14834110Y-15306008D02*
X14824586Y-15296484D01*
X14824586Y-15296484D02*
X14824586Y-15315531D01*
X14948396Y-15496484D02*
X14929348Y-15486960D01*
X14929348Y-15486960D02*
X14919824Y-15467912D01*
X14919824Y-15467912D02*
X14919824Y-15296484D01*
X15053158Y-15496484D02*
X15034110Y-15486960D01*
X15034110Y-15486960D02*
X15024586Y-15467912D01*
X15024586Y-15467912D02*
X15024586Y-15296484D01*
X15281729Y-15496484D02*
X15281729Y-15296484D01*
X15281729Y-15296484D02*
X15348396Y-15439341D01*
X15348396Y-15439341D02*
X15415062Y-15296484D01*
X15415062Y-15296484D02*
X15415062Y-15496484D01*
X15596015Y-15496484D02*
X15596015Y-15391722D01*
X15596015Y-15391722D02*
X15586491Y-15372674D01*
X15586491Y-15372674D02*
X15567443Y-15363150D01*
X15567443Y-15363150D02*
X15529348Y-15363150D01*
X15529348Y-15363150D02*
X15510301Y-15372674D01*
X15596015Y-15486960D02*
X15576967Y-15496484D01*
X15576967Y-15496484D02*
X15529348Y-15496484D01*
X15529348Y-15496484D02*
X15510301Y-15486960D01*
X15510301Y-15486960D02*
X15500777Y-15467912D01*
X15500777Y-15467912D02*
X15500777Y-15448865D01*
X15500777Y-15448865D02*
X15510301Y-15429817D01*
X15510301Y-15429817D02*
X15529348Y-15420293D01*
X15529348Y-15420293D02*
X15576967Y-15420293D01*
X15576967Y-15420293D02*
X15596015Y-15410770D01*
X15691253Y-15363150D02*
X15691253Y-15563150D01*
X15691253Y-15372674D02*
X15710301Y-15363150D01*
X15710301Y-15363150D02*
X15748396Y-15363150D01*
X15748396Y-15363150D02*
X15767443Y-15372674D01*
X15767443Y-15372674D02*
X15776967Y-15382198D01*
X15776967Y-15382198D02*
X15786491Y-15401246D01*
X15786491Y-15401246D02*
X15786491Y-15458389D01*
X15786491Y-15458389D02*
X15776967Y-15477436D01*
X15776967Y-15477436D02*
X15767443Y-15486960D01*
X15767443Y-15486960D02*
X15748396Y-15496484D01*
X15748396Y-15496484D02*
X15710301Y-15496484D01*
X15710301Y-15496484D02*
X15691253Y-15486960D01*
X15872205Y-15477436D02*
X15881729Y-15486960D01*
X15881729Y-15486960D02*
X15872205Y-15496484D01*
X15872205Y-15496484D02*
X15862682Y-15486960D01*
X15862682Y-15486960D02*
X15872205Y-15477436D01*
X15872205Y-15477436D02*
X15872205Y-15496484D01*
X15872205Y-15372674D02*
X15881729Y-15382198D01*
X15881729Y-15382198D02*
X15872205Y-15391722D01*
X15872205Y-15391722D02*
X15862682Y-15382198D01*
X15862682Y-15382198D02*
X15872205Y-15372674D01*
X15872205Y-15372674D02*
X15872205Y-15391722D01*
X14040000Y-15725000D02*
X14240000Y-15925000D01*
X14240000Y-15725000D02*
X14040000Y-15925000D01*
X14481729Y-15716484D02*
X14605539Y-15716484D01*
X14605539Y-15716484D02*
X14538872Y-15792674D01*
X14538872Y-15792674D02*
X14567443Y-15792674D01*
X14567443Y-15792674D02*
X14586491Y-15802198D01*
X14586491Y-15802198D02*
X14596015Y-15811722D01*
X14596015Y-15811722D02*
X14605539Y-15830770D01*
X14605539Y-15830770D02*
X14605539Y-15878389D01*
X14605539Y-15878389D02*
X14596015Y-15897436D01*
X14596015Y-15897436D02*
X14586491Y-15906960D01*
X14586491Y-15906960D02*
X14567443Y-15916484D01*
X14567443Y-15916484D02*
X14510301Y-15916484D01*
X14510301Y-15916484D02*
X14491253Y-15906960D01*
X14491253Y-15906960D02*
X14481729Y-15897436D01*
X14691253Y-15897436D02*
X14700777Y-15906960D01*
X14700777Y-15906960D02*
X14691253Y-15916484D01*
X14691253Y-15916484D02*
X14681729Y-15906960D01*
X14681729Y-15906960D02*
X14691253Y-15897436D01*
X14691253Y-15897436D02*
X14691253Y-15916484D01*
X14776967Y-15735531D02*
X14786491Y-15726008D01*
X14786491Y-15726008D02*
X14805539Y-15716484D01*
X14805539Y-15716484D02*
X14853158Y-15716484D01*
X14853158Y-15716484D02*
X14872205Y-15726008D01*
X14872205Y-15726008D02*
X14881729Y-15735531D01*
X14881729Y-15735531D02*
X14891253Y-15754579D01*
X14891253Y-15754579D02*
X14891253Y-15773627D01*
X14891253Y-15773627D02*
X14881729Y-15802198D01*
X14881729Y-15802198D02*
X14767443Y-15916484D01*
X14767443Y-15916484D02*
X14891253Y-15916484D01*
X15015062Y-15716484D02*
X15034110Y-15716484D01*
X15034110Y-15716484D02*
X15053158Y-15726008D01*
X15053158Y-15726008D02*
X15062682Y-15735531D01*
X15062682Y-15735531D02*
X15072205Y-15754579D01*
X15072205Y-15754579D02*
X15081729Y-15792674D01*
X15081729Y-15792674D02*
X15081729Y-15840293D01*
X15081729Y-15840293D02*
X15072205Y-15878389D01*
X15072205Y-15878389D02*
X15062682Y-15897436D01*
X15062682Y-15897436D02*
X15053158Y-15906960D01*
X15053158Y-15906960D02*
X15034110Y-15916484D01*
X15034110Y-15916484D02*
X15015062Y-15916484D01*
X15015062Y-15916484D02*
X14996015Y-15906960D01*
X14996015Y-15906960D02*
X14986491Y-15897436D01*
X14986491Y-15897436D02*
X14976967Y-15878389D01*
X14976967Y-15878389D02*
X14967443Y-15840293D01*
X14967443Y-15840293D02*
X14967443Y-15792674D01*
X14967443Y-15792674D02*
X14976967Y-15754579D01*
X14976967Y-15754579D02*
X14986491Y-15735531D01*
X14986491Y-15735531D02*
X14996015Y-15726008D01*
X14996015Y-15726008D02*
X15015062Y-15716484D01*
X15205539Y-15716484D02*
X15224586Y-15716484D01*
X15224586Y-15716484D02*
X15243634Y-15726008D01*
X15243634Y-15726008D02*
X15253158Y-15735531D01*
X15253158Y-15735531D02*
X15262682Y-15754579D01*
X15262682Y-15754579D02*
X15272205Y-15792674D01*
X15272205Y-15792674D02*
X15272205Y-15840293D01*
X15272205Y-15840293D02*
X15262682Y-15878389D01*
X15262682Y-15878389D02*
X15253158Y-15897436D01*
X15253158Y-15897436D02*
X15243634Y-15906960D01*
X15243634Y-15906960D02*
X15224586Y-15916484D01*
X15224586Y-15916484D02*
X15205539Y-15916484D01*
X15205539Y-15916484D02*
X15186491Y-15906960D01*
X15186491Y-15906960D02*
X15176967Y-15897436D01*
X15176967Y-15897436D02*
X15167443Y-15878389D01*
X15167443Y-15878389D02*
X15157920Y-15840293D01*
X15157920Y-15840293D02*
X15157920Y-15792674D01*
X15157920Y-15792674D02*
X15167443Y-15754579D01*
X15167443Y-15754579D02*
X15176967Y-15735531D01*
X15176967Y-15735531D02*
X15186491Y-15726008D01*
X15186491Y-15726008D02*
X15205539Y-15716484D01*
X15357920Y-15916484D02*
X15357920Y-15783150D01*
X15357920Y-15802198D02*
X15367443Y-15792674D01*
X15367443Y-15792674D02*
X15386491Y-15783150D01*
X15386491Y-15783150D02*
X15415063Y-15783150D01*
X15415063Y-15783150D02*
X15434110Y-15792674D01*
X15434110Y-15792674D02*
X15443634Y-15811722D01*
X15443634Y-15811722D02*
X15443634Y-15916484D01*
X15443634Y-15811722D02*
X15453158Y-15792674D01*
X15453158Y-15792674D02*
X15472205Y-15783150D01*
X15472205Y-15783150D02*
X15500777Y-15783150D01*
X15500777Y-15783150D02*
X15519824Y-15792674D01*
X15519824Y-15792674D02*
X15529348Y-15811722D01*
X15529348Y-15811722D02*
X15529348Y-15916484D01*
X15624586Y-15916484D02*
X15624586Y-15783150D01*
X15624586Y-15802198D02*
X15634110Y-15792674D01*
X15634110Y-15792674D02*
X15653158Y-15783150D01*
X15653158Y-15783150D02*
X15681729Y-15783150D01*
X15681729Y-15783150D02*
X15700777Y-15792674D01*
X15700777Y-15792674D02*
X15710301Y-15811722D01*
X15710301Y-15811722D02*
X15710301Y-15916484D01*
X15710301Y-15811722D02*
X15719824Y-15792674D01*
X15719824Y-15792674D02*
X15738872Y-15783150D01*
X15738872Y-15783150D02*
X15767443Y-15783150D01*
X15767443Y-15783150D02*
X15786491Y-15792674D01*
X15786491Y-15792674D02*
X15796015Y-15811722D01*
X15796015Y-15811722D02*
X15796015Y-15916484D01*
X16186491Y-15706960D02*
X16015063Y-15964103D01*
X16443634Y-15716484D02*
X16462682Y-15716484D01*
X16462682Y-15716484D02*
X16481729Y-15726008D01*
X16481729Y-15726008D02*
X16491253Y-15735531D01*
X16491253Y-15735531D02*
X16500777Y-15754579D01*
X16500777Y-15754579D02*
X16510301Y-15792674D01*
X16510301Y-15792674D02*
X16510301Y-15840293D01*
X16510301Y-15840293D02*
X16500777Y-15878389D01*
X16500777Y-15878389D02*
X16491253Y-15897436D01*
X16491253Y-15897436D02*
X16481729Y-15906960D01*
X16481729Y-15906960D02*
X16462682Y-15916484D01*
X16462682Y-15916484D02*
X16443634Y-15916484D01*
X16443634Y-15916484D02*
X16424586Y-15906960D01*
X16424586Y-15906960D02*
X16415063Y-15897436D01*
X16415063Y-15897436D02*
X16405539Y-15878389D01*
X16405539Y-15878389D02*
X16396015Y-15840293D01*
X16396015Y-15840293D02*
X16396015Y-15792674D01*
X16396015Y-15792674D02*
X16405539Y-15754579D01*
X16405539Y-15754579D02*
X16415063Y-15735531D01*
X16415063Y-15735531D02*
X16424586Y-15726008D01*
X16424586Y-15726008D02*
X16443634Y-15716484D01*
X16596015Y-15897436D02*
X16605539Y-15906960D01*
X16605539Y-15906960D02*
X16596015Y-15916484D01*
X16596015Y-15916484D02*
X16586491Y-15906960D01*
X16586491Y-15906960D02*
X16596015Y-15897436D01*
X16596015Y-15897436D02*
X16596015Y-15916484D01*
X16796015Y-15916484D02*
X16681729Y-15916484D01*
X16738872Y-15916484D02*
X16738872Y-15716484D01*
X16738872Y-15716484D02*
X16719825Y-15745055D01*
X16719825Y-15745055D02*
X16700777Y-15764103D01*
X16700777Y-15764103D02*
X16681729Y-15773627D01*
X16872206Y-15735531D02*
X16881729Y-15726008D01*
X16881729Y-15726008D02*
X16900777Y-15716484D01*
X16900777Y-15716484D02*
X16948396Y-15716484D01*
X16948396Y-15716484D02*
X16967444Y-15726008D01*
X16967444Y-15726008D02*
X16976968Y-15735531D01*
X16976968Y-15735531D02*
X16986491Y-15754579D01*
X16986491Y-15754579D02*
X16986491Y-15773627D01*
X16986491Y-15773627D02*
X16976968Y-15802198D01*
X16976968Y-15802198D02*
X16862682Y-15916484D01*
X16862682Y-15916484D02*
X16986491Y-15916484D01*
X17157920Y-15716484D02*
X17119825Y-15716484D01*
X17119825Y-15716484D02*
X17100777Y-15726008D01*
X17100777Y-15726008D02*
X17091253Y-15735531D01*
X17091253Y-15735531D02*
X17072206Y-15764103D01*
X17072206Y-15764103D02*
X17062682Y-15802198D01*
X17062682Y-15802198D02*
X17062682Y-15878389D01*
X17062682Y-15878389D02*
X17072206Y-15897436D01*
X17072206Y-15897436D02*
X17081729Y-15906960D01*
X17081729Y-15906960D02*
X17100777Y-15916484D01*
X17100777Y-15916484D02*
X17138872Y-15916484D01*
X17138872Y-15916484D02*
X17157920Y-15906960D01*
X17157920Y-15906960D02*
X17167444Y-15897436D01*
X17167444Y-15897436D02*
X17176968Y-15878389D01*
X17176968Y-15878389D02*
X17176968Y-15830770D01*
X17176968Y-15830770D02*
X17167444Y-15811722D01*
X17167444Y-15811722D02*
X17157920Y-15802198D01*
X17157920Y-15802198D02*
X17138872Y-15792674D01*
X17138872Y-15792674D02*
X17100777Y-15792674D01*
X17100777Y-15792674D02*
X17081729Y-15802198D01*
X17081729Y-15802198D02*
X17072206Y-15811722D01*
X17072206Y-15811722D02*
X17062682Y-15830770D01*
X17300777Y-15716484D02*
X17319825Y-15716484D01*
X17319825Y-15716484D02*
X17338872Y-15726008D01*
X17338872Y-15726008D02*
X17348396Y-15735531D01*
X17348396Y-15735531D02*
X17357920Y-15754579D01*
X17357920Y-15754579D02*
X17367444Y-15792674D01*
X17367444Y-15792674D02*
X17367444Y-15840293D01*
X17367444Y-15840293D02*
X17357920Y-15878389D01*
X17357920Y-15878389D02*
X17348396Y-15897436D01*
X17348396Y-15897436D02*
X17338872Y-15906960D01*
X17338872Y-15906960D02*
X17319825Y-15916484D01*
X17319825Y-15916484D02*
X17300777Y-15916484D01*
X17300777Y-15916484D02*
X17281729Y-15906960D01*
X17281729Y-15906960D02*
X17272206Y-15897436D01*
X17272206Y-15897436D02*
X17262682Y-15878389D01*
X17262682Y-15878389D02*
X17253158Y-15840293D01*
X17253158Y-15840293D02*
X17253158Y-15792674D01*
X17253158Y-15792674D02*
X17262682Y-15754579D01*
X17262682Y-15754579D02*
X17272206Y-15735531D01*
X17272206Y-15735531D02*
X17281729Y-15726008D01*
X17281729Y-15726008D02*
X17300777Y-15716484D01*
X17443634Y-15716484D02*
X17443634Y-15754579D01*
X17519825Y-15716484D02*
X17519825Y-15754579D01*
X17815063Y-15992674D02*
X17805539Y-15983150D01*
X17805539Y-15983150D02*
X17786491Y-15954579D01*
X17786491Y-15954579D02*
X17776968Y-15935531D01*
X17776968Y-15935531D02*
X17767444Y-15906960D01*
X17767444Y-15906960D02*
X17757920Y-15859341D01*
X17757920Y-15859341D02*
X17757920Y-15821246D01*
X17757920Y-15821246D02*
X17767444Y-15773627D01*
X17767444Y-15773627D02*
X17776968Y-15745055D01*
X17776968Y-15745055D02*
X17786491Y-15726008D01*
X17786491Y-15726008D02*
X17805539Y-15697436D01*
X17805539Y-15697436D02*
X17815063Y-15687912D01*
X17881730Y-15735531D02*
X17891253Y-15726008D01*
X17891253Y-15726008D02*
X17910301Y-15716484D01*
X17910301Y-15716484D02*
X17957920Y-15716484D01*
X17957920Y-15716484D02*
X17976968Y-15726008D01*
X17976968Y-15726008D02*
X17986491Y-15735531D01*
X17986491Y-15735531D02*
X17996015Y-15754579D01*
X17996015Y-15754579D02*
X17996015Y-15773627D01*
X17996015Y-15773627D02*
X17986491Y-15802198D01*
X17986491Y-15802198D02*
X17872206Y-15916484D01*
X17872206Y-15916484D02*
X17996015Y-15916484D01*
X18234111Y-15916484D02*
X18234111Y-15716484D01*
X18319825Y-15916484D02*
X18319825Y-15811722D01*
X18319825Y-15811722D02*
X18310301Y-15792674D01*
X18310301Y-15792674D02*
X18291253Y-15783150D01*
X18291253Y-15783150D02*
X18262682Y-15783150D01*
X18262682Y-15783150D02*
X18243634Y-15792674D01*
X18243634Y-15792674D02*
X18234111Y-15802198D01*
X18443634Y-15916484D02*
X18424587Y-15906960D01*
X18424587Y-15906960D02*
X18415063Y-15897436D01*
X18415063Y-15897436D02*
X18405539Y-15878389D01*
X18405539Y-15878389D02*
X18405539Y-15821246D01*
X18405539Y-15821246D02*
X18415063Y-15802198D01*
X18415063Y-15802198D02*
X18424587Y-15792674D01*
X18424587Y-15792674D02*
X18443634Y-15783150D01*
X18443634Y-15783150D02*
X18472206Y-15783150D01*
X18472206Y-15783150D02*
X18491253Y-15792674D01*
X18491253Y-15792674D02*
X18500777Y-15802198D01*
X18500777Y-15802198D02*
X18510301Y-15821246D01*
X18510301Y-15821246D02*
X18510301Y-15878389D01*
X18510301Y-15878389D02*
X18500777Y-15897436D01*
X18500777Y-15897436D02*
X18491253Y-15906960D01*
X18491253Y-15906960D02*
X18472206Y-15916484D01*
X18472206Y-15916484D02*
X18443634Y-15916484D01*
X18624587Y-15916484D02*
X18605539Y-15906960D01*
X18605539Y-15906960D02*
X18596015Y-15887912D01*
X18596015Y-15887912D02*
X18596015Y-15716484D01*
X18776968Y-15906960D02*
X18757920Y-15916484D01*
X18757920Y-15916484D02*
X18719825Y-15916484D01*
X18719825Y-15916484D02*
X18700777Y-15906960D01*
X18700777Y-15906960D02*
X18691253Y-15887912D01*
X18691253Y-15887912D02*
X18691253Y-15811722D01*
X18691253Y-15811722D02*
X18700777Y-15792674D01*
X18700777Y-15792674D02*
X18719825Y-15783150D01*
X18719825Y-15783150D02*
X18757920Y-15783150D01*
X18757920Y-15783150D02*
X18776968Y-15792674D01*
X18776968Y-15792674D02*
X18786492Y-15811722D01*
X18786492Y-15811722D02*
X18786492Y-15830770D01*
X18786492Y-15830770D02*
X18691253Y-15849817D01*
X18862682Y-15906960D02*
X18881730Y-15916484D01*
X18881730Y-15916484D02*
X18919825Y-15916484D01*
X18919825Y-15916484D02*
X18938873Y-15906960D01*
X18938873Y-15906960D02*
X18948396Y-15887912D01*
X18948396Y-15887912D02*
X18948396Y-15878389D01*
X18948396Y-15878389D02*
X18938873Y-15859341D01*
X18938873Y-15859341D02*
X18919825Y-15849817D01*
X18919825Y-15849817D02*
X18891253Y-15849817D01*
X18891253Y-15849817D02*
X18872206Y-15840293D01*
X18872206Y-15840293D02*
X18862682Y-15821246D01*
X18862682Y-15821246D02*
X18862682Y-15811722D01*
X18862682Y-15811722D02*
X18872206Y-15792674D01*
X18872206Y-15792674D02*
X18891253Y-15783150D01*
X18891253Y-15783150D02*
X18919825Y-15783150D01*
X18919825Y-15783150D02*
X18938873Y-15792674D01*
X19015063Y-15992674D02*
X19024587Y-15983150D01*
X19024587Y-15983150D02*
X19043634Y-15954579D01*
X19043634Y-15954579D02*
X19053158Y-15935531D01*
X19053158Y-15935531D02*
X19062682Y-15906960D01*
X19062682Y-15906960D02*
X19072206Y-15859341D01*
X19072206Y-15859341D02*
X19072206Y-15821246D01*
X19072206Y-15821246D02*
X19062682Y-15773627D01*
X19062682Y-15773627D02*
X19053158Y-15745055D01*
X19053158Y-15745055D02*
X19043634Y-15726008D01*
X19043634Y-15726008D02*
X19024587Y-15697436D01*
X19024587Y-15697436D02*
X19015063Y-15687912D01*
X19376968Y-15992674D02*
X19367444Y-15983150D01*
X19367444Y-15983150D02*
X19348396Y-15954579D01*
X19348396Y-15954579D02*
X19338873Y-15935531D01*
X19338873Y-15935531D02*
X19329349Y-15906960D01*
X19329349Y-15906960D02*
X19319825Y-15859341D01*
X19319825Y-15859341D02*
X19319825Y-15821246D01*
X19319825Y-15821246D02*
X19329349Y-15773627D01*
X19329349Y-15773627D02*
X19338873Y-15745055D01*
X19338873Y-15745055D02*
X19348396Y-15726008D01*
X19348396Y-15726008D02*
X19367444Y-15697436D01*
X19367444Y-15697436D02*
X19376968Y-15687912D01*
X19453158Y-15783150D02*
X19453158Y-15916484D01*
X19453158Y-15802198D02*
X19462682Y-15792674D01*
X19462682Y-15792674D02*
X19481730Y-15783150D01*
X19481730Y-15783150D02*
X19510301Y-15783150D01*
X19510301Y-15783150D02*
X19529349Y-15792674D01*
X19529349Y-15792674D02*
X19538873Y-15811722D01*
X19538873Y-15811722D02*
X19538873Y-15916484D01*
X19662682Y-15916484D02*
X19643634Y-15906960D01*
X19643634Y-15906960D02*
X19634111Y-15897436D01*
X19634111Y-15897436D02*
X19624587Y-15878389D01*
X19624587Y-15878389D02*
X19624587Y-15821246D01*
X19624587Y-15821246D02*
X19634111Y-15802198D01*
X19634111Y-15802198D02*
X19643634Y-15792674D01*
X19643634Y-15792674D02*
X19662682Y-15783150D01*
X19662682Y-15783150D02*
X19691254Y-15783150D01*
X19691254Y-15783150D02*
X19710301Y-15792674D01*
X19710301Y-15792674D02*
X19719825Y-15802198D01*
X19719825Y-15802198D02*
X19729349Y-15821246D01*
X19729349Y-15821246D02*
X19729349Y-15878389D01*
X19729349Y-15878389D02*
X19719825Y-15897436D01*
X19719825Y-15897436D02*
X19710301Y-15906960D01*
X19710301Y-15906960D02*
X19691254Y-15916484D01*
X19691254Y-15916484D02*
X19662682Y-15916484D01*
X19786492Y-15783150D02*
X19862682Y-15783150D01*
X19815063Y-15716484D02*
X19815063Y-15887912D01*
X19815063Y-15887912D02*
X19824587Y-15906960D01*
X19824587Y-15906960D02*
X19843634Y-15916484D01*
X19843634Y-15916484D02*
X19862682Y-15916484D01*
X20081730Y-15783150D02*
X20081730Y-15983150D01*
X20081730Y-15792674D02*
X20100777Y-15783150D01*
X20100777Y-15783150D02*
X20138873Y-15783150D01*
X20138873Y-15783150D02*
X20157920Y-15792674D01*
X20157920Y-15792674D02*
X20167444Y-15802198D01*
X20167444Y-15802198D02*
X20176968Y-15821246D01*
X20176968Y-15821246D02*
X20176968Y-15878389D01*
X20176968Y-15878389D02*
X20167444Y-15897436D01*
X20167444Y-15897436D02*
X20157920Y-15906960D01*
X20157920Y-15906960D02*
X20138873Y-15916484D01*
X20138873Y-15916484D02*
X20100777Y-15916484D01*
X20100777Y-15916484D02*
X20081730Y-15906960D01*
X20291254Y-15916484D02*
X20272206Y-15906960D01*
X20272206Y-15906960D02*
X20262682Y-15887912D01*
X20262682Y-15887912D02*
X20262682Y-15716484D01*
X20453158Y-15916484D02*
X20453158Y-15811722D01*
X20453158Y-15811722D02*
X20443635Y-15792674D01*
X20443635Y-15792674D02*
X20424587Y-15783150D01*
X20424587Y-15783150D02*
X20386492Y-15783150D01*
X20386492Y-15783150D02*
X20367444Y-15792674D01*
X20453158Y-15906960D02*
X20434111Y-15916484D01*
X20434111Y-15916484D02*
X20386492Y-15916484D01*
X20386492Y-15916484D02*
X20367444Y-15906960D01*
X20367444Y-15906960D02*
X20357920Y-15887912D01*
X20357920Y-15887912D02*
X20357920Y-15868865D01*
X20357920Y-15868865D02*
X20367444Y-15849817D01*
X20367444Y-15849817D02*
X20386492Y-15840293D01*
X20386492Y-15840293D02*
X20434111Y-15840293D01*
X20434111Y-15840293D02*
X20453158Y-15830770D01*
X20519825Y-15783150D02*
X20596015Y-15783150D01*
X20548396Y-15716484D02*
X20548396Y-15887912D01*
X20548396Y-15887912D02*
X20557920Y-15906960D01*
X20557920Y-15906960D02*
X20576968Y-15916484D01*
X20576968Y-15916484D02*
X20596015Y-15916484D01*
X20738873Y-15906960D02*
X20719825Y-15916484D01*
X20719825Y-15916484D02*
X20681730Y-15916484D01*
X20681730Y-15916484D02*
X20662682Y-15906960D01*
X20662682Y-15906960D02*
X20653158Y-15887912D01*
X20653158Y-15887912D02*
X20653158Y-15811722D01*
X20653158Y-15811722D02*
X20662682Y-15792674D01*
X20662682Y-15792674D02*
X20681730Y-15783150D01*
X20681730Y-15783150D02*
X20719825Y-15783150D01*
X20719825Y-15783150D02*
X20738873Y-15792674D01*
X20738873Y-15792674D02*
X20748396Y-15811722D01*
X20748396Y-15811722D02*
X20748396Y-15830770D01*
X20748396Y-15830770D02*
X20653158Y-15849817D01*
X20919825Y-15916484D02*
X20919825Y-15716484D01*
X20919825Y-15906960D02*
X20900777Y-15916484D01*
X20900777Y-15916484D02*
X20862682Y-15916484D01*
X20862682Y-15916484D02*
X20843635Y-15906960D01*
X20843635Y-15906960D02*
X20834111Y-15897436D01*
X20834111Y-15897436D02*
X20824587Y-15878389D01*
X20824587Y-15878389D02*
X20824587Y-15821246D01*
X20824587Y-15821246D02*
X20834111Y-15802198D01*
X20834111Y-15802198D02*
X20843635Y-15792674D01*
X20843635Y-15792674D02*
X20862682Y-15783150D01*
X20862682Y-15783150D02*
X20900777Y-15783150D01*
X20900777Y-15783150D02*
X20919825Y-15792674D01*
X20996016Y-15992674D02*
X21005539Y-15983150D01*
X21005539Y-15983150D02*
X21024587Y-15954579D01*
X21024587Y-15954579D02*
X21034111Y-15935531D01*
X21034111Y-15935531D02*
X21043635Y-15906960D01*
X21043635Y-15906960D02*
X21053158Y-15859341D01*
X21053158Y-15859341D02*
X21053158Y-15821246D01*
X21053158Y-15821246D02*
X21043635Y-15773627D01*
X21043635Y-15773627D02*
X21034111Y-15745055D01*
X21034111Y-15745055D02*
X21024587Y-15726008D01*
X21024587Y-15726008D02*
X21005539Y-15697436D01*
X21005539Y-15697436D02*
X20996016Y-15687912D01*
X14240000Y-16145000D02*
G75*
G02*
X14040000Y-16145000I-100000J0D01*
G01*
X14040000Y-16145000D02*
G75*
G02*
X14240000Y-16145000I100000J0D01*
G01*
X14586491Y-16036484D02*
X14548396Y-16036484D01*
X14548396Y-16036484D02*
X14529348Y-16046008D01*
X14529348Y-16046008D02*
X14519824Y-16055531D01*
X14519824Y-16055531D02*
X14500777Y-16084103D01*
X14500777Y-16084103D02*
X14491253Y-16122198D01*
X14491253Y-16122198D02*
X14491253Y-16198389D01*
X14491253Y-16198389D02*
X14500777Y-16217436D01*
X14500777Y-16217436D02*
X14510301Y-16226960D01*
X14510301Y-16226960D02*
X14529348Y-16236484D01*
X14529348Y-16236484D02*
X14567443Y-16236484D01*
X14567443Y-16236484D02*
X14586491Y-16226960D01*
X14586491Y-16226960D02*
X14596015Y-16217436D01*
X14596015Y-16217436D02*
X14605539Y-16198389D01*
X14605539Y-16198389D02*
X14605539Y-16150770D01*
X14605539Y-16150770D02*
X14596015Y-16131722D01*
X14596015Y-16131722D02*
X14586491Y-16122198D01*
X14586491Y-16122198D02*
X14567443Y-16112674D01*
X14567443Y-16112674D02*
X14529348Y-16112674D01*
X14529348Y-16112674D02*
X14510301Y-16122198D01*
X14510301Y-16122198D02*
X14500777Y-16131722D01*
X14500777Y-16131722D02*
X14491253Y-16150770D01*
X14691253Y-16217436D02*
X14700777Y-16226960D01*
X14700777Y-16226960D02*
X14691253Y-16236484D01*
X14691253Y-16236484D02*
X14681729Y-16226960D01*
X14681729Y-16226960D02*
X14691253Y-16217436D01*
X14691253Y-16217436D02*
X14691253Y-16236484D01*
X14824586Y-16036484D02*
X14843634Y-16036484D01*
X14843634Y-16036484D02*
X14862682Y-16046008D01*
X14862682Y-16046008D02*
X14872205Y-16055531D01*
X14872205Y-16055531D02*
X14881729Y-16074579D01*
X14881729Y-16074579D02*
X14891253Y-16112674D01*
X14891253Y-16112674D02*
X14891253Y-16160293D01*
X14891253Y-16160293D02*
X14881729Y-16198389D01*
X14881729Y-16198389D02*
X14872205Y-16217436D01*
X14872205Y-16217436D02*
X14862682Y-16226960D01*
X14862682Y-16226960D02*
X14843634Y-16236484D01*
X14843634Y-16236484D02*
X14824586Y-16236484D01*
X14824586Y-16236484D02*
X14805539Y-16226960D01*
X14805539Y-16226960D02*
X14796015Y-16217436D01*
X14796015Y-16217436D02*
X14786491Y-16198389D01*
X14786491Y-16198389D02*
X14776967Y-16160293D01*
X14776967Y-16160293D02*
X14776967Y-16112674D01*
X14776967Y-16112674D02*
X14786491Y-16074579D01*
X14786491Y-16074579D02*
X14796015Y-16055531D01*
X14796015Y-16055531D02*
X14805539Y-16046008D01*
X14805539Y-16046008D02*
X14824586Y-16036484D01*
X15015062Y-16036484D02*
X15034110Y-16036484D01*
X15034110Y-16036484D02*
X15053158Y-16046008D01*
X15053158Y-16046008D02*
X15062682Y-16055531D01*
X15062682Y-16055531D02*
X15072205Y-16074579D01*
X15072205Y-16074579D02*
X15081729Y-16112674D01*
X15081729Y-16112674D02*
X15081729Y-16160293D01*
X15081729Y-16160293D02*
X15072205Y-16198389D01*
X15072205Y-16198389D02*
X15062682Y-16217436D01*
X15062682Y-16217436D02*
X15053158Y-16226960D01*
X15053158Y-16226960D02*
X15034110Y-16236484D01*
X15034110Y-16236484D02*
X15015062Y-16236484D01*
X15015062Y-16236484D02*
X14996015Y-16226960D01*
X14996015Y-16226960D02*
X14986491Y-16217436D01*
X14986491Y-16217436D02*
X14976967Y-16198389D01*
X14976967Y-16198389D02*
X14967443Y-16160293D01*
X14967443Y-16160293D02*
X14967443Y-16112674D01*
X14967443Y-16112674D02*
X14976967Y-16074579D01*
X14976967Y-16074579D02*
X14986491Y-16055531D01*
X14986491Y-16055531D02*
X14996015Y-16046008D01*
X14996015Y-16046008D02*
X15015062Y-16036484D01*
X15205539Y-16036484D02*
X15224586Y-16036484D01*
X15224586Y-16036484D02*
X15243634Y-16046008D01*
X15243634Y-16046008D02*
X15253158Y-16055531D01*
X15253158Y-16055531D02*
X15262682Y-16074579D01*
X15262682Y-16074579D02*
X15272205Y-16112674D01*
X15272205Y-16112674D02*
X15272205Y-16160293D01*
X15272205Y-16160293D02*
X15262682Y-16198389D01*
X15262682Y-16198389D02*
X15253158Y-16217436D01*
X15253158Y-16217436D02*
X15243634Y-16226960D01*
X15243634Y-16226960D02*
X15224586Y-16236484D01*
X15224586Y-16236484D02*
X15205539Y-16236484D01*
X15205539Y-16236484D02*
X15186491Y-16226960D01*
X15186491Y-16226960D02*
X15176967Y-16217436D01*
X15176967Y-16217436D02*
X15167443Y-16198389D01*
X15167443Y-16198389D02*
X15157920Y-16160293D01*
X15157920Y-16160293D02*
X15157920Y-16112674D01*
X15157920Y-16112674D02*
X15167443Y-16074579D01*
X15167443Y-16074579D02*
X15176967Y-16055531D01*
X15176967Y-16055531D02*
X15186491Y-16046008D01*
X15186491Y-16046008D02*
X15205539Y-16036484D01*
X15357920Y-16236484D02*
X15357920Y-16103150D01*
X15357920Y-16122198D02*
X15367443Y-16112674D01*
X15367443Y-16112674D02*
X15386491Y-16103150D01*
X15386491Y-16103150D02*
X15415063Y-16103150D01*
X15415063Y-16103150D02*
X15434110Y-16112674D01*
X15434110Y-16112674D02*
X15443634Y-16131722D01*
X15443634Y-16131722D02*
X15443634Y-16236484D01*
X15443634Y-16131722D02*
X15453158Y-16112674D01*
X15453158Y-16112674D02*
X15472205Y-16103150D01*
X15472205Y-16103150D02*
X15500777Y-16103150D01*
X15500777Y-16103150D02*
X15519824Y-16112674D01*
X15519824Y-16112674D02*
X15529348Y-16131722D01*
X15529348Y-16131722D02*
X15529348Y-16236484D01*
X15624586Y-16236484D02*
X15624586Y-16103150D01*
X15624586Y-16122198D02*
X15634110Y-16112674D01*
X15634110Y-16112674D02*
X15653158Y-16103150D01*
X15653158Y-16103150D02*
X15681729Y-16103150D01*
X15681729Y-16103150D02*
X15700777Y-16112674D01*
X15700777Y-16112674D02*
X15710301Y-16131722D01*
X15710301Y-16131722D02*
X15710301Y-16236484D01*
X15710301Y-16131722D02*
X15719824Y-16112674D01*
X15719824Y-16112674D02*
X15738872Y-16103150D01*
X15738872Y-16103150D02*
X15767443Y-16103150D01*
X15767443Y-16103150D02*
X15786491Y-16112674D01*
X15786491Y-16112674D02*
X15796015Y-16131722D01*
X15796015Y-16131722D02*
X15796015Y-16236484D01*
X16186491Y-16026960D02*
X16015063Y-16284103D01*
X16443634Y-16036484D02*
X16462682Y-16036484D01*
X16462682Y-16036484D02*
X16481729Y-16046008D01*
X16481729Y-16046008D02*
X16491253Y-16055531D01*
X16491253Y-16055531D02*
X16500777Y-16074579D01*
X16500777Y-16074579D02*
X16510301Y-16112674D01*
X16510301Y-16112674D02*
X16510301Y-16160293D01*
X16510301Y-16160293D02*
X16500777Y-16198389D01*
X16500777Y-16198389D02*
X16491253Y-16217436D01*
X16491253Y-16217436D02*
X16481729Y-16226960D01*
X16481729Y-16226960D02*
X16462682Y-16236484D01*
X16462682Y-16236484D02*
X16443634Y-16236484D01*
X16443634Y-16236484D02*
X16424586Y-16226960D01*
X16424586Y-16226960D02*
X16415063Y-16217436D01*
X16415063Y-16217436D02*
X16405539Y-16198389D01*
X16405539Y-16198389D02*
X16396015Y-16160293D01*
X16396015Y-16160293D02*
X16396015Y-16112674D01*
X16396015Y-16112674D02*
X16405539Y-16074579D01*
X16405539Y-16074579D02*
X16415063Y-16055531D01*
X16415063Y-16055531D02*
X16424586Y-16046008D01*
X16424586Y-16046008D02*
X16443634Y-16036484D01*
X16596015Y-16217436D02*
X16605539Y-16226960D01*
X16605539Y-16226960D02*
X16596015Y-16236484D01*
X16596015Y-16236484D02*
X16586491Y-16226960D01*
X16586491Y-16226960D02*
X16596015Y-16217436D01*
X16596015Y-16217436D02*
X16596015Y-16236484D01*
X16681729Y-16055531D02*
X16691253Y-16046008D01*
X16691253Y-16046008D02*
X16710301Y-16036484D01*
X16710301Y-16036484D02*
X16757920Y-16036484D01*
X16757920Y-16036484D02*
X16776967Y-16046008D01*
X16776967Y-16046008D02*
X16786491Y-16055531D01*
X16786491Y-16055531D02*
X16796015Y-16074579D01*
X16796015Y-16074579D02*
X16796015Y-16093627D01*
X16796015Y-16093627D02*
X16786491Y-16122198D01*
X16786491Y-16122198D02*
X16672206Y-16236484D01*
X16672206Y-16236484D02*
X16796015Y-16236484D01*
X16862682Y-16036484D02*
X16986491Y-16036484D01*
X16986491Y-16036484D02*
X16919825Y-16112674D01*
X16919825Y-16112674D02*
X16948396Y-16112674D01*
X16948396Y-16112674D02*
X16967444Y-16122198D01*
X16967444Y-16122198D02*
X16976968Y-16131722D01*
X16976968Y-16131722D02*
X16986491Y-16150770D01*
X16986491Y-16150770D02*
X16986491Y-16198389D01*
X16986491Y-16198389D02*
X16976968Y-16217436D01*
X16976968Y-16217436D02*
X16967444Y-16226960D01*
X16967444Y-16226960D02*
X16948396Y-16236484D01*
X16948396Y-16236484D02*
X16891253Y-16236484D01*
X16891253Y-16236484D02*
X16872206Y-16226960D01*
X16872206Y-16226960D02*
X16862682Y-16217436D01*
X17157920Y-16036484D02*
X17119825Y-16036484D01*
X17119825Y-16036484D02*
X17100777Y-16046008D01*
X17100777Y-16046008D02*
X17091253Y-16055531D01*
X17091253Y-16055531D02*
X17072206Y-16084103D01*
X17072206Y-16084103D02*
X17062682Y-16122198D01*
X17062682Y-16122198D02*
X17062682Y-16198389D01*
X17062682Y-16198389D02*
X17072206Y-16217436D01*
X17072206Y-16217436D02*
X17081729Y-16226960D01*
X17081729Y-16226960D02*
X17100777Y-16236484D01*
X17100777Y-16236484D02*
X17138872Y-16236484D01*
X17138872Y-16236484D02*
X17157920Y-16226960D01*
X17157920Y-16226960D02*
X17167444Y-16217436D01*
X17167444Y-16217436D02*
X17176968Y-16198389D01*
X17176968Y-16198389D02*
X17176968Y-16150770D01*
X17176968Y-16150770D02*
X17167444Y-16131722D01*
X17167444Y-16131722D02*
X17157920Y-16122198D01*
X17157920Y-16122198D02*
X17138872Y-16112674D01*
X17138872Y-16112674D02*
X17100777Y-16112674D01*
X17100777Y-16112674D02*
X17081729Y-16122198D01*
X17081729Y-16122198D02*
X17072206Y-16131722D01*
X17072206Y-16131722D02*
X17062682Y-16150770D01*
X17253158Y-16055531D02*
X17262682Y-16046008D01*
X17262682Y-16046008D02*
X17281729Y-16036484D01*
X17281729Y-16036484D02*
X17329349Y-16036484D01*
X17329349Y-16036484D02*
X17348396Y-16046008D01*
X17348396Y-16046008D02*
X17357920Y-16055531D01*
X17357920Y-16055531D02*
X17367444Y-16074579D01*
X17367444Y-16074579D02*
X17367444Y-16093627D01*
X17367444Y-16093627D02*
X17357920Y-16122198D01*
X17357920Y-16122198D02*
X17243634Y-16236484D01*
X17243634Y-16236484D02*
X17367444Y-16236484D01*
X17443634Y-16036484D02*
X17443634Y-16074579D01*
X17519825Y-16036484D02*
X17519825Y-16074579D01*
X17815063Y-16312674D02*
X17805539Y-16303150D01*
X17805539Y-16303150D02*
X17786491Y-16274579D01*
X17786491Y-16274579D02*
X17776968Y-16255531D01*
X17776968Y-16255531D02*
X17767444Y-16226960D01*
X17767444Y-16226960D02*
X17757920Y-16179341D01*
X17757920Y-16179341D02*
X17757920Y-16141246D01*
X17757920Y-16141246D02*
X17767444Y-16093627D01*
X17767444Y-16093627D02*
X17776968Y-16065055D01*
X17776968Y-16065055D02*
X17786491Y-16046008D01*
X17786491Y-16046008D02*
X17805539Y-16017436D01*
X17805539Y-16017436D02*
X17815063Y-16007912D01*
X17976968Y-16103150D02*
X17976968Y-16236484D01*
X17929349Y-16026960D02*
X17881730Y-16169817D01*
X17881730Y-16169817D02*
X18005539Y-16169817D01*
X18234111Y-16236484D02*
X18234111Y-16036484D01*
X18319825Y-16236484D02*
X18319825Y-16131722D01*
X18319825Y-16131722D02*
X18310301Y-16112674D01*
X18310301Y-16112674D02*
X18291253Y-16103150D01*
X18291253Y-16103150D02*
X18262682Y-16103150D01*
X18262682Y-16103150D02*
X18243634Y-16112674D01*
X18243634Y-16112674D02*
X18234111Y-16122198D01*
X18443634Y-16236484D02*
X18424587Y-16226960D01*
X18424587Y-16226960D02*
X18415063Y-16217436D01*
X18415063Y-16217436D02*
X18405539Y-16198389D01*
X18405539Y-16198389D02*
X18405539Y-16141246D01*
X18405539Y-16141246D02*
X18415063Y-16122198D01*
X18415063Y-16122198D02*
X18424587Y-16112674D01*
X18424587Y-16112674D02*
X18443634Y-16103150D01*
X18443634Y-16103150D02*
X18472206Y-16103150D01*
X18472206Y-16103150D02*
X18491253Y-16112674D01*
X18491253Y-16112674D02*
X18500777Y-16122198D01*
X18500777Y-16122198D02*
X18510301Y-16141246D01*
X18510301Y-16141246D02*
X18510301Y-16198389D01*
X18510301Y-16198389D02*
X18500777Y-16217436D01*
X18500777Y-16217436D02*
X18491253Y-16226960D01*
X18491253Y-16226960D02*
X18472206Y-16236484D01*
X18472206Y-16236484D02*
X18443634Y-16236484D01*
X18624587Y-16236484D02*
X18605539Y-16226960D01*
X18605539Y-16226960D02*
X18596015Y-16207912D01*
X18596015Y-16207912D02*
X18596015Y-16036484D01*
X18776968Y-16226960D02*
X18757920Y-16236484D01*
X18757920Y-16236484D02*
X18719825Y-16236484D01*
X18719825Y-16236484D02*
X18700777Y-16226960D01*
X18700777Y-16226960D02*
X18691253Y-16207912D01*
X18691253Y-16207912D02*
X18691253Y-16131722D01*
X18691253Y-16131722D02*
X18700777Y-16112674D01*
X18700777Y-16112674D02*
X18719825Y-16103150D01*
X18719825Y-16103150D02*
X18757920Y-16103150D01*
X18757920Y-16103150D02*
X18776968Y-16112674D01*
X18776968Y-16112674D02*
X18786492Y-16131722D01*
X18786492Y-16131722D02*
X18786492Y-16150770D01*
X18786492Y-16150770D02*
X18691253Y-16169817D01*
X18862682Y-16226960D02*
X18881730Y-16236484D01*
X18881730Y-16236484D02*
X18919825Y-16236484D01*
X18919825Y-16236484D02*
X18938873Y-16226960D01*
X18938873Y-16226960D02*
X18948396Y-16207912D01*
X18948396Y-16207912D02*
X18948396Y-16198389D01*
X18948396Y-16198389D02*
X18938873Y-16179341D01*
X18938873Y-16179341D02*
X18919825Y-16169817D01*
X18919825Y-16169817D02*
X18891253Y-16169817D01*
X18891253Y-16169817D02*
X18872206Y-16160293D01*
X18872206Y-16160293D02*
X18862682Y-16141246D01*
X18862682Y-16141246D02*
X18862682Y-16131722D01*
X18862682Y-16131722D02*
X18872206Y-16112674D01*
X18872206Y-16112674D02*
X18891253Y-16103150D01*
X18891253Y-16103150D02*
X18919825Y-16103150D01*
X18919825Y-16103150D02*
X18938873Y-16112674D01*
X19015063Y-16312674D02*
X19024587Y-16303150D01*
X19024587Y-16303150D02*
X19043634Y-16274579D01*
X19043634Y-16274579D02*
X19053158Y-16255531D01*
X19053158Y-16255531D02*
X19062682Y-16226960D01*
X19062682Y-16226960D02*
X19072206Y-16179341D01*
X19072206Y-16179341D02*
X19072206Y-16141246D01*
X19072206Y-16141246D02*
X19062682Y-16093627D01*
X19062682Y-16093627D02*
X19053158Y-16065055D01*
X19053158Y-16065055D02*
X19043634Y-16046008D01*
X19043634Y-16046008D02*
X19024587Y-16017436D01*
X19024587Y-16017436D02*
X19015063Y-16007912D01*
X19376968Y-16312674D02*
X19367444Y-16303150D01*
X19367444Y-16303150D02*
X19348396Y-16274579D01*
X19348396Y-16274579D02*
X19338873Y-16255531D01*
X19338873Y-16255531D02*
X19329349Y-16226960D01*
X19329349Y-16226960D02*
X19319825Y-16179341D01*
X19319825Y-16179341D02*
X19319825Y-16141246D01*
X19319825Y-16141246D02*
X19329349Y-16093627D01*
X19329349Y-16093627D02*
X19338873Y-16065055D01*
X19338873Y-16065055D02*
X19348396Y-16046008D01*
X19348396Y-16046008D02*
X19367444Y-16017436D01*
X19367444Y-16017436D02*
X19376968Y-16007912D01*
X19453158Y-16103150D02*
X19453158Y-16236484D01*
X19453158Y-16122198D02*
X19462682Y-16112674D01*
X19462682Y-16112674D02*
X19481730Y-16103150D01*
X19481730Y-16103150D02*
X19510301Y-16103150D01*
X19510301Y-16103150D02*
X19529349Y-16112674D01*
X19529349Y-16112674D02*
X19538873Y-16131722D01*
X19538873Y-16131722D02*
X19538873Y-16236484D01*
X19662682Y-16236484D02*
X19643634Y-16226960D01*
X19643634Y-16226960D02*
X19634111Y-16217436D01*
X19634111Y-16217436D02*
X19624587Y-16198389D01*
X19624587Y-16198389D02*
X19624587Y-16141246D01*
X19624587Y-16141246D02*
X19634111Y-16122198D01*
X19634111Y-16122198D02*
X19643634Y-16112674D01*
X19643634Y-16112674D02*
X19662682Y-16103150D01*
X19662682Y-16103150D02*
X19691254Y-16103150D01*
X19691254Y-16103150D02*
X19710301Y-16112674D01*
X19710301Y-16112674D02*
X19719825Y-16122198D01*
X19719825Y-16122198D02*
X19729349Y-16141246D01*
X19729349Y-16141246D02*
X19729349Y-16198389D01*
X19729349Y-16198389D02*
X19719825Y-16217436D01*
X19719825Y-16217436D02*
X19710301Y-16226960D01*
X19710301Y-16226960D02*
X19691254Y-16236484D01*
X19691254Y-16236484D02*
X19662682Y-16236484D01*
X19786492Y-16103150D02*
X19862682Y-16103150D01*
X19815063Y-16036484D02*
X19815063Y-16207912D01*
X19815063Y-16207912D02*
X19824587Y-16226960D01*
X19824587Y-16226960D02*
X19843634Y-16236484D01*
X19843634Y-16236484D02*
X19862682Y-16236484D01*
X20081730Y-16103150D02*
X20081730Y-16303150D01*
X20081730Y-16112674D02*
X20100777Y-16103150D01*
X20100777Y-16103150D02*
X20138873Y-16103150D01*
X20138873Y-16103150D02*
X20157920Y-16112674D01*
X20157920Y-16112674D02*
X20167444Y-16122198D01*
X20167444Y-16122198D02*
X20176968Y-16141246D01*
X20176968Y-16141246D02*
X20176968Y-16198389D01*
X20176968Y-16198389D02*
X20167444Y-16217436D01*
X20167444Y-16217436D02*
X20157920Y-16226960D01*
X20157920Y-16226960D02*
X20138873Y-16236484D01*
X20138873Y-16236484D02*
X20100777Y-16236484D01*
X20100777Y-16236484D02*
X20081730Y-16226960D01*
X20291254Y-16236484D02*
X20272206Y-16226960D01*
X20272206Y-16226960D02*
X20262682Y-16207912D01*
X20262682Y-16207912D02*
X20262682Y-16036484D01*
X20453158Y-16236484D02*
X20453158Y-16131722D01*
X20453158Y-16131722D02*
X20443635Y-16112674D01*
X20443635Y-16112674D02*
X20424587Y-16103150D01*
X20424587Y-16103150D02*
X20386492Y-16103150D01*
X20386492Y-16103150D02*
X20367444Y-16112674D01*
X20453158Y-16226960D02*
X20434111Y-16236484D01*
X20434111Y-16236484D02*
X20386492Y-16236484D01*
X20386492Y-16236484D02*
X20367444Y-16226960D01*
X20367444Y-16226960D02*
X20357920Y-16207912D01*
X20357920Y-16207912D02*
X20357920Y-16188865D01*
X20357920Y-16188865D02*
X20367444Y-16169817D01*
X20367444Y-16169817D02*
X20386492Y-16160293D01*
X20386492Y-16160293D02*
X20434111Y-16160293D01*
X20434111Y-16160293D02*
X20453158Y-16150770D01*
X20519825Y-16103150D02*
X20596015Y-16103150D01*
X20548396Y-16036484D02*
X20548396Y-16207912D01*
X20548396Y-16207912D02*
X20557920Y-16226960D01*
X20557920Y-16226960D02*
X20576968Y-16236484D01*
X20576968Y-16236484D02*
X20596015Y-16236484D01*
X20738873Y-16226960D02*
X20719825Y-16236484D01*
X20719825Y-16236484D02*
X20681730Y-16236484D01*
X20681730Y-16236484D02*
X20662682Y-16226960D01*
X20662682Y-16226960D02*
X20653158Y-16207912D01*
X20653158Y-16207912D02*
X20653158Y-16131722D01*
X20653158Y-16131722D02*
X20662682Y-16112674D01*
X20662682Y-16112674D02*
X20681730Y-16103150D01*
X20681730Y-16103150D02*
X20719825Y-16103150D01*
X20719825Y-16103150D02*
X20738873Y-16112674D01*
X20738873Y-16112674D02*
X20748396Y-16131722D01*
X20748396Y-16131722D02*
X20748396Y-16150770D01*
X20748396Y-16150770D02*
X20653158Y-16169817D01*
X20919825Y-16236484D02*
X20919825Y-16036484D01*
X20919825Y-16226960D02*
X20900777Y-16236484D01*
X20900777Y-16236484D02*
X20862682Y-16236484D01*
X20862682Y-16236484D02*
X20843635Y-16226960D01*
X20843635Y-16226960D02*
X20834111Y-16217436D01*
X20834111Y-16217436D02*
X20824587Y-16198389D01*
X20824587Y-16198389D02*
X20824587Y-16141246D01*
X20824587Y-16141246D02*
X20834111Y-16122198D01*
X20834111Y-16122198D02*
X20843635Y-16112674D01*
X20843635Y-16112674D02*
X20862682Y-16103150D01*
X20862682Y-16103150D02*
X20900777Y-16103150D01*
X20900777Y-16103150D02*
X20919825Y-16112674D01*
X20996016Y-16312674D02*
X21005539Y-16303150D01*
X21005539Y-16303150D02*
X21024587Y-16274579D01*
X21024587Y-16274579D02*
X21034111Y-16255531D01*
X21034111Y-16255531D02*
X21043635Y-16226960D01*
X21043635Y-16226960D02*
X21053158Y-16179341D01*
X21053158Y-16179341D02*
X21053158Y-16141246D01*
X21053158Y-16141246D02*
X21043635Y-16093627D01*
X21043635Y-16093627D02*
X21034111Y-16065055D01*
X21034111Y-16065055D02*
X21024587Y-16046008D01*
X21024587Y-16046008D02*
X21005539Y-16017436D01*
X21005539Y-16017436D02*
X20996016Y-16007912D01*
X14140000Y-16365000D02*
X14140000Y-16565000D01*
X14040000Y-16465000D02*
X14240000Y-16465000D01*
X14481729Y-16356484D02*
X14615062Y-16356484D01*
X14615062Y-16356484D02*
X14529348Y-16556484D01*
X14691253Y-16537436D02*
X14700777Y-16546960D01*
X14700777Y-16546960D02*
X14691253Y-16556484D01*
X14691253Y-16556484D02*
X14681729Y-16546960D01*
X14681729Y-16546960D02*
X14691253Y-16537436D01*
X14691253Y-16537436D02*
X14691253Y-16556484D01*
X14824586Y-16356484D02*
X14843634Y-16356484D01*
X14843634Y-16356484D02*
X14862682Y-16366008D01*
X14862682Y-16366008D02*
X14872205Y-16375531D01*
X14872205Y-16375531D02*
X14881729Y-16394579D01*
X14881729Y-16394579D02*
X14891253Y-16432674D01*
X14891253Y-16432674D02*
X14891253Y-16480293D01*
X14891253Y-16480293D02*
X14881729Y-16518389D01*
X14881729Y-16518389D02*
X14872205Y-16537436D01*
X14872205Y-16537436D02*
X14862682Y-16546960D01*
X14862682Y-16546960D02*
X14843634Y-16556484D01*
X14843634Y-16556484D02*
X14824586Y-16556484D01*
X14824586Y-16556484D02*
X14805539Y-16546960D01*
X14805539Y-16546960D02*
X14796015Y-16537436D01*
X14796015Y-16537436D02*
X14786491Y-16518389D01*
X14786491Y-16518389D02*
X14776967Y-16480293D01*
X14776967Y-16480293D02*
X14776967Y-16432674D01*
X14776967Y-16432674D02*
X14786491Y-16394579D01*
X14786491Y-16394579D02*
X14796015Y-16375531D01*
X14796015Y-16375531D02*
X14805539Y-16366008D01*
X14805539Y-16366008D02*
X14824586Y-16356484D01*
X15015062Y-16356484D02*
X15034110Y-16356484D01*
X15034110Y-16356484D02*
X15053158Y-16366008D01*
X15053158Y-16366008D02*
X15062682Y-16375531D01*
X15062682Y-16375531D02*
X15072205Y-16394579D01*
X15072205Y-16394579D02*
X15081729Y-16432674D01*
X15081729Y-16432674D02*
X15081729Y-16480293D01*
X15081729Y-16480293D02*
X15072205Y-16518389D01*
X15072205Y-16518389D02*
X15062682Y-16537436D01*
X15062682Y-16537436D02*
X15053158Y-16546960D01*
X15053158Y-16546960D02*
X15034110Y-16556484D01*
X15034110Y-16556484D02*
X15015062Y-16556484D01*
X15015062Y-16556484D02*
X14996015Y-16546960D01*
X14996015Y-16546960D02*
X14986491Y-16537436D01*
X14986491Y-16537436D02*
X14976967Y-16518389D01*
X14976967Y-16518389D02*
X14967443Y-16480293D01*
X14967443Y-16480293D02*
X14967443Y-16432674D01*
X14967443Y-16432674D02*
X14976967Y-16394579D01*
X14976967Y-16394579D02*
X14986491Y-16375531D01*
X14986491Y-16375531D02*
X14996015Y-16366008D01*
X14996015Y-16366008D02*
X15015062Y-16356484D01*
X15205539Y-16356484D02*
X15224586Y-16356484D01*
X15224586Y-16356484D02*
X15243634Y-16366008D01*
X15243634Y-16366008D02*
X15253158Y-16375531D01*
X15253158Y-16375531D02*
X15262682Y-16394579D01*
X15262682Y-16394579D02*
X15272205Y-16432674D01*
X15272205Y-16432674D02*
X15272205Y-16480293D01*
X15272205Y-16480293D02*
X15262682Y-16518389D01*
X15262682Y-16518389D02*
X15253158Y-16537436D01*
X15253158Y-16537436D02*
X15243634Y-16546960D01*
X15243634Y-16546960D02*
X15224586Y-16556484D01*
X15224586Y-16556484D02*
X15205539Y-16556484D01*
X15205539Y-16556484D02*
X15186491Y-16546960D01*
X15186491Y-16546960D02*
X15176967Y-16537436D01*
X15176967Y-16537436D02*
X15167443Y-16518389D01*
X15167443Y-16518389D02*
X15157920Y-16480293D01*
X15157920Y-16480293D02*
X15157920Y-16432674D01*
X15157920Y-16432674D02*
X15167443Y-16394579D01*
X15167443Y-16394579D02*
X15176967Y-16375531D01*
X15176967Y-16375531D02*
X15186491Y-16366008D01*
X15186491Y-16366008D02*
X15205539Y-16356484D01*
X15357920Y-16556484D02*
X15357920Y-16423150D01*
X15357920Y-16442198D02*
X15367443Y-16432674D01*
X15367443Y-16432674D02*
X15386491Y-16423150D01*
X15386491Y-16423150D02*
X15415063Y-16423150D01*
X15415063Y-16423150D02*
X15434110Y-16432674D01*
X15434110Y-16432674D02*
X15443634Y-16451722D01*
X15443634Y-16451722D02*
X15443634Y-16556484D01*
X15443634Y-16451722D02*
X15453158Y-16432674D01*
X15453158Y-16432674D02*
X15472205Y-16423150D01*
X15472205Y-16423150D02*
X15500777Y-16423150D01*
X15500777Y-16423150D02*
X15519824Y-16432674D01*
X15519824Y-16432674D02*
X15529348Y-16451722D01*
X15529348Y-16451722D02*
X15529348Y-16556484D01*
X15624586Y-16556484D02*
X15624586Y-16423150D01*
X15624586Y-16442198D02*
X15634110Y-16432674D01*
X15634110Y-16432674D02*
X15653158Y-16423150D01*
X15653158Y-16423150D02*
X15681729Y-16423150D01*
X15681729Y-16423150D02*
X15700777Y-16432674D01*
X15700777Y-16432674D02*
X15710301Y-16451722D01*
X15710301Y-16451722D02*
X15710301Y-16556484D01*
X15710301Y-16451722D02*
X15719824Y-16432674D01*
X15719824Y-16432674D02*
X15738872Y-16423150D01*
X15738872Y-16423150D02*
X15767443Y-16423150D01*
X15767443Y-16423150D02*
X15786491Y-16432674D01*
X15786491Y-16432674D02*
X15796015Y-16451722D01*
X15796015Y-16451722D02*
X15796015Y-16556484D01*
X16186491Y-16346960D02*
X16015063Y-16604103D01*
X16443634Y-16356484D02*
X16462682Y-16356484D01*
X16462682Y-16356484D02*
X16481729Y-16366008D01*
X16481729Y-16366008D02*
X16491253Y-16375531D01*
X16491253Y-16375531D02*
X16500777Y-16394579D01*
X16500777Y-16394579D02*
X16510301Y-16432674D01*
X16510301Y-16432674D02*
X16510301Y-16480293D01*
X16510301Y-16480293D02*
X16500777Y-16518389D01*
X16500777Y-16518389D02*
X16491253Y-16537436D01*
X16491253Y-16537436D02*
X16481729Y-16546960D01*
X16481729Y-16546960D02*
X16462682Y-16556484D01*
X16462682Y-16556484D02*
X16443634Y-16556484D01*
X16443634Y-16556484D02*
X16424586Y-16546960D01*
X16424586Y-16546960D02*
X16415063Y-16537436D01*
X16415063Y-16537436D02*
X16405539Y-16518389D01*
X16405539Y-16518389D02*
X16396015Y-16480293D01*
X16396015Y-16480293D02*
X16396015Y-16432674D01*
X16396015Y-16432674D02*
X16405539Y-16394579D01*
X16405539Y-16394579D02*
X16415063Y-16375531D01*
X16415063Y-16375531D02*
X16424586Y-16366008D01*
X16424586Y-16366008D02*
X16443634Y-16356484D01*
X16596015Y-16537436D02*
X16605539Y-16546960D01*
X16605539Y-16546960D02*
X16596015Y-16556484D01*
X16596015Y-16556484D02*
X16586491Y-16546960D01*
X16586491Y-16546960D02*
X16596015Y-16537436D01*
X16596015Y-16537436D02*
X16596015Y-16556484D01*
X16681729Y-16375531D02*
X16691253Y-16366008D01*
X16691253Y-16366008D02*
X16710301Y-16356484D01*
X16710301Y-16356484D02*
X16757920Y-16356484D01*
X16757920Y-16356484D02*
X16776967Y-16366008D01*
X16776967Y-16366008D02*
X16786491Y-16375531D01*
X16786491Y-16375531D02*
X16796015Y-16394579D01*
X16796015Y-16394579D02*
X16796015Y-16413627D01*
X16796015Y-16413627D02*
X16786491Y-16442198D01*
X16786491Y-16442198D02*
X16672206Y-16556484D01*
X16672206Y-16556484D02*
X16796015Y-16556484D01*
X16862682Y-16356484D02*
X16996015Y-16356484D01*
X16996015Y-16356484D02*
X16910301Y-16556484D01*
X17167444Y-16356484D02*
X17072206Y-16356484D01*
X17072206Y-16356484D02*
X17062682Y-16451722D01*
X17062682Y-16451722D02*
X17072206Y-16442198D01*
X17072206Y-16442198D02*
X17091253Y-16432674D01*
X17091253Y-16432674D02*
X17138872Y-16432674D01*
X17138872Y-16432674D02*
X17157920Y-16442198D01*
X17157920Y-16442198D02*
X17167444Y-16451722D01*
X17167444Y-16451722D02*
X17176968Y-16470770D01*
X17176968Y-16470770D02*
X17176968Y-16518389D01*
X17176968Y-16518389D02*
X17167444Y-16537436D01*
X17167444Y-16537436D02*
X17157920Y-16546960D01*
X17157920Y-16546960D02*
X17138872Y-16556484D01*
X17138872Y-16556484D02*
X17091253Y-16556484D01*
X17091253Y-16556484D02*
X17072206Y-16546960D01*
X17072206Y-16546960D02*
X17062682Y-16537436D01*
X17348396Y-16356484D02*
X17310301Y-16356484D01*
X17310301Y-16356484D02*
X17291253Y-16366008D01*
X17291253Y-16366008D02*
X17281729Y-16375531D01*
X17281729Y-16375531D02*
X17262682Y-16404103D01*
X17262682Y-16404103D02*
X17253158Y-16442198D01*
X17253158Y-16442198D02*
X17253158Y-16518389D01*
X17253158Y-16518389D02*
X17262682Y-16537436D01*
X17262682Y-16537436D02*
X17272206Y-16546960D01*
X17272206Y-16546960D02*
X17291253Y-16556484D01*
X17291253Y-16556484D02*
X17329349Y-16556484D01*
X17329349Y-16556484D02*
X17348396Y-16546960D01*
X17348396Y-16546960D02*
X17357920Y-16537436D01*
X17357920Y-16537436D02*
X17367444Y-16518389D01*
X17367444Y-16518389D02*
X17367444Y-16470770D01*
X17367444Y-16470770D02*
X17357920Y-16451722D01*
X17357920Y-16451722D02*
X17348396Y-16442198D01*
X17348396Y-16442198D02*
X17329349Y-16432674D01*
X17329349Y-16432674D02*
X17291253Y-16432674D01*
X17291253Y-16432674D02*
X17272206Y-16442198D01*
X17272206Y-16442198D02*
X17262682Y-16451722D01*
X17262682Y-16451722D02*
X17253158Y-16470770D01*
X17443634Y-16356484D02*
X17443634Y-16394579D01*
X17519825Y-16356484D02*
X17519825Y-16394579D01*
X17815063Y-16632674D02*
X17805539Y-16623150D01*
X17805539Y-16623150D02*
X17786491Y-16594579D01*
X17786491Y-16594579D02*
X17776968Y-16575531D01*
X17776968Y-16575531D02*
X17767444Y-16546960D01*
X17767444Y-16546960D02*
X17757920Y-16499341D01*
X17757920Y-16499341D02*
X17757920Y-16461246D01*
X17757920Y-16461246D02*
X17767444Y-16413627D01*
X17767444Y-16413627D02*
X17776968Y-16385055D01*
X17776968Y-16385055D02*
X17786491Y-16366008D01*
X17786491Y-16366008D02*
X17805539Y-16337436D01*
X17805539Y-16337436D02*
X17815063Y-16327912D01*
X17881730Y-16375531D02*
X17891253Y-16366008D01*
X17891253Y-16366008D02*
X17910301Y-16356484D01*
X17910301Y-16356484D02*
X17957920Y-16356484D01*
X17957920Y-16356484D02*
X17976968Y-16366008D01*
X17976968Y-16366008D02*
X17986491Y-16375531D01*
X17986491Y-16375531D02*
X17996015Y-16394579D01*
X17996015Y-16394579D02*
X17996015Y-16413627D01*
X17996015Y-16413627D02*
X17986491Y-16442198D01*
X17986491Y-16442198D02*
X17872206Y-16556484D01*
X17872206Y-16556484D02*
X17996015Y-16556484D01*
X18234111Y-16556484D02*
X18234111Y-16356484D01*
X18319825Y-16556484D02*
X18319825Y-16451722D01*
X18319825Y-16451722D02*
X18310301Y-16432674D01*
X18310301Y-16432674D02*
X18291253Y-16423150D01*
X18291253Y-16423150D02*
X18262682Y-16423150D01*
X18262682Y-16423150D02*
X18243634Y-16432674D01*
X18243634Y-16432674D02*
X18234111Y-16442198D01*
X18443634Y-16556484D02*
X18424587Y-16546960D01*
X18424587Y-16546960D02*
X18415063Y-16537436D01*
X18415063Y-16537436D02*
X18405539Y-16518389D01*
X18405539Y-16518389D02*
X18405539Y-16461246D01*
X18405539Y-16461246D02*
X18415063Y-16442198D01*
X18415063Y-16442198D02*
X18424587Y-16432674D01*
X18424587Y-16432674D02*
X18443634Y-16423150D01*
X18443634Y-16423150D02*
X18472206Y-16423150D01*
X18472206Y-16423150D02*
X18491253Y-16432674D01*
X18491253Y-16432674D02*
X18500777Y-16442198D01*
X18500777Y-16442198D02*
X18510301Y-16461246D01*
X18510301Y-16461246D02*
X18510301Y-16518389D01*
X18510301Y-16518389D02*
X18500777Y-16537436D01*
X18500777Y-16537436D02*
X18491253Y-16546960D01*
X18491253Y-16546960D02*
X18472206Y-16556484D01*
X18472206Y-16556484D02*
X18443634Y-16556484D01*
X18624587Y-16556484D02*
X18605539Y-16546960D01*
X18605539Y-16546960D02*
X18596015Y-16527912D01*
X18596015Y-16527912D02*
X18596015Y-16356484D01*
X18776968Y-16546960D02*
X18757920Y-16556484D01*
X18757920Y-16556484D02*
X18719825Y-16556484D01*
X18719825Y-16556484D02*
X18700777Y-16546960D01*
X18700777Y-16546960D02*
X18691253Y-16527912D01*
X18691253Y-16527912D02*
X18691253Y-16451722D01*
X18691253Y-16451722D02*
X18700777Y-16432674D01*
X18700777Y-16432674D02*
X18719825Y-16423150D01*
X18719825Y-16423150D02*
X18757920Y-16423150D01*
X18757920Y-16423150D02*
X18776968Y-16432674D01*
X18776968Y-16432674D02*
X18786492Y-16451722D01*
X18786492Y-16451722D02*
X18786492Y-16470770D01*
X18786492Y-16470770D02*
X18691253Y-16489817D01*
X18862682Y-16546960D02*
X18881730Y-16556484D01*
X18881730Y-16556484D02*
X18919825Y-16556484D01*
X18919825Y-16556484D02*
X18938873Y-16546960D01*
X18938873Y-16546960D02*
X18948396Y-16527912D01*
X18948396Y-16527912D02*
X18948396Y-16518389D01*
X18948396Y-16518389D02*
X18938873Y-16499341D01*
X18938873Y-16499341D02*
X18919825Y-16489817D01*
X18919825Y-16489817D02*
X18891253Y-16489817D01*
X18891253Y-16489817D02*
X18872206Y-16480293D01*
X18872206Y-16480293D02*
X18862682Y-16461246D01*
X18862682Y-16461246D02*
X18862682Y-16451722D01*
X18862682Y-16451722D02*
X18872206Y-16432674D01*
X18872206Y-16432674D02*
X18891253Y-16423150D01*
X18891253Y-16423150D02*
X18919825Y-16423150D01*
X18919825Y-16423150D02*
X18938873Y-16432674D01*
X19015063Y-16632674D02*
X19024587Y-16623150D01*
X19024587Y-16623150D02*
X19043634Y-16594579D01*
X19043634Y-16594579D02*
X19053158Y-16575531D01*
X19053158Y-16575531D02*
X19062682Y-16546960D01*
X19062682Y-16546960D02*
X19072206Y-16499341D01*
X19072206Y-16499341D02*
X19072206Y-16461246D01*
X19072206Y-16461246D02*
X19062682Y-16413627D01*
X19062682Y-16413627D02*
X19053158Y-16385055D01*
X19053158Y-16385055D02*
X19043634Y-16366008D01*
X19043634Y-16366008D02*
X19024587Y-16337436D01*
X19024587Y-16337436D02*
X19015063Y-16327912D01*
X19376968Y-16632674D02*
X19367444Y-16623150D01*
X19367444Y-16623150D02*
X19348396Y-16594579D01*
X19348396Y-16594579D02*
X19338873Y-16575531D01*
X19338873Y-16575531D02*
X19329349Y-16546960D01*
X19329349Y-16546960D02*
X19319825Y-16499341D01*
X19319825Y-16499341D02*
X19319825Y-16461246D01*
X19319825Y-16461246D02*
X19329349Y-16413627D01*
X19329349Y-16413627D02*
X19338873Y-16385055D01*
X19338873Y-16385055D02*
X19348396Y-16366008D01*
X19348396Y-16366008D02*
X19367444Y-16337436D01*
X19367444Y-16337436D02*
X19376968Y-16327912D01*
X19453158Y-16423150D02*
X19453158Y-16556484D01*
X19453158Y-16442198D02*
X19462682Y-16432674D01*
X19462682Y-16432674D02*
X19481730Y-16423150D01*
X19481730Y-16423150D02*
X19510301Y-16423150D01*
X19510301Y-16423150D02*
X19529349Y-16432674D01*
X19529349Y-16432674D02*
X19538873Y-16451722D01*
X19538873Y-16451722D02*
X19538873Y-16556484D01*
X19662682Y-16556484D02*
X19643634Y-16546960D01*
X19643634Y-16546960D02*
X19634111Y-16537436D01*
X19634111Y-16537436D02*
X19624587Y-16518389D01*
X19624587Y-16518389D02*
X19624587Y-16461246D01*
X19624587Y-16461246D02*
X19634111Y-16442198D01*
X19634111Y-16442198D02*
X19643634Y-16432674D01*
X19643634Y-16432674D02*
X19662682Y-16423150D01*
X19662682Y-16423150D02*
X19691254Y-16423150D01*
X19691254Y-16423150D02*
X19710301Y-16432674D01*
X19710301Y-16432674D02*
X19719825Y-16442198D01*
X19719825Y-16442198D02*
X19729349Y-16461246D01*
X19729349Y-16461246D02*
X19729349Y-16518389D01*
X19729349Y-16518389D02*
X19719825Y-16537436D01*
X19719825Y-16537436D02*
X19710301Y-16546960D01*
X19710301Y-16546960D02*
X19691254Y-16556484D01*
X19691254Y-16556484D02*
X19662682Y-16556484D01*
X19786492Y-16423150D02*
X19862682Y-16423150D01*
X19815063Y-16356484D02*
X19815063Y-16527912D01*
X19815063Y-16527912D02*
X19824587Y-16546960D01*
X19824587Y-16546960D02*
X19843634Y-16556484D01*
X19843634Y-16556484D02*
X19862682Y-16556484D01*
X20081730Y-16423150D02*
X20081730Y-16623150D01*
X20081730Y-16432674D02*
X20100777Y-16423150D01*
X20100777Y-16423150D02*
X20138873Y-16423150D01*
X20138873Y-16423150D02*
X20157920Y-16432674D01*
X20157920Y-16432674D02*
X20167444Y-16442198D01*
X20167444Y-16442198D02*
X20176968Y-16461246D01*
X20176968Y-16461246D02*
X20176968Y-16518389D01*
X20176968Y-16518389D02*
X20167444Y-16537436D01*
X20167444Y-16537436D02*
X20157920Y-16546960D01*
X20157920Y-16546960D02*
X20138873Y-16556484D01*
X20138873Y-16556484D02*
X20100777Y-16556484D01*
X20100777Y-16556484D02*
X20081730Y-16546960D01*
X20291254Y-16556484D02*
X20272206Y-16546960D01*
X20272206Y-16546960D02*
X20262682Y-16527912D01*
X20262682Y-16527912D02*
X20262682Y-16356484D01*
X20453158Y-16556484D02*
X20453158Y-16451722D01*
X20453158Y-16451722D02*
X20443635Y-16432674D01*
X20443635Y-16432674D02*
X20424587Y-16423150D01*
X20424587Y-16423150D02*
X20386492Y-16423150D01*
X20386492Y-16423150D02*
X20367444Y-16432674D01*
X20453158Y-16546960D02*
X20434111Y-16556484D01*
X20434111Y-16556484D02*
X20386492Y-16556484D01*
X20386492Y-16556484D02*
X20367444Y-16546960D01*
X20367444Y-16546960D02*
X20357920Y-16527912D01*
X20357920Y-16527912D02*
X20357920Y-16508865D01*
X20357920Y-16508865D02*
X20367444Y-16489817D01*
X20367444Y-16489817D02*
X20386492Y-16480293D01*
X20386492Y-16480293D02*
X20434111Y-16480293D01*
X20434111Y-16480293D02*
X20453158Y-16470770D01*
X20519825Y-16423150D02*
X20596015Y-16423150D01*
X20548396Y-16356484D02*
X20548396Y-16527912D01*
X20548396Y-16527912D02*
X20557920Y-16546960D01*
X20557920Y-16546960D02*
X20576968Y-16556484D01*
X20576968Y-16556484D02*
X20596015Y-16556484D01*
X20738873Y-16546960D02*
X20719825Y-16556484D01*
X20719825Y-16556484D02*
X20681730Y-16556484D01*
X20681730Y-16556484D02*
X20662682Y-16546960D01*
X20662682Y-16546960D02*
X20653158Y-16527912D01*
X20653158Y-16527912D02*
X20653158Y-16451722D01*
X20653158Y-16451722D02*
X20662682Y-16432674D01*
X20662682Y-16432674D02*
X20681730Y-16423150D01*
X20681730Y-16423150D02*
X20719825Y-16423150D01*
X20719825Y-16423150D02*
X20738873Y-16432674D01*
X20738873Y-16432674D02*
X20748396Y-16451722D01*
X20748396Y-16451722D02*
X20748396Y-16470770D01*
X20748396Y-16470770D02*
X20653158Y-16489817D01*
X20919825Y-16556484D02*
X20919825Y-16356484D01*
X20919825Y-16546960D02*
X20900777Y-16556484D01*
X20900777Y-16556484D02*
X20862682Y-16556484D01*
X20862682Y-16556484D02*
X20843635Y-16546960D01*
X20843635Y-16546960D02*
X20834111Y-16537436D01*
X20834111Y-16537436D02*
X20824587Y-16518389D01*
X20824587Y-16518389D02*
X20824587Y-16461246D01*
X20824587Y-16461246D02*
X20834111Y-16442198D01*
X20834111Y-16442198D02*
X20843635Y-16432674D01*
X20843635Y-16432674D02*
X20862682Y-16423150D01*
X20862682Y-16423150D02*
X20900777Y-16423150D01*
X20900777Y-16423150D02*
X20919825Y-16432674D01*
X20996016Y-16632674D02*
X21005539Y-16623150D01*
X21005539Y-16623150D02*
X21024587Y-16594579D01*
X21024587Y-16594579D02*
X21034111Y-16575531D01*
X21034111Y-16575531D02*
X21043635Y-16546960D01*
X21043635Y-16546960D02*
X21053158Y-16499341D01*
X21053158Y-16499341D02*
X21053158Y-16461246D01*
X21053158Y-16461246D02*
X21043635Y-16413627D01*
X21043635Y-16413627D02*
X21034111Y-16385055D01*
X21034111Y-16385055D02*
X21024587Y-16366008D01*
X21024587Y-16366008D02*
X21005539Y-16337436D01*
X21005539Y-16337436D02*
X20996016Y-16327912D01*
M02*
