G04 #@! TF.GenerationSoftware,KiCad,Pcbnew,10.0.6*
G04 #@! TF.CreationDate,2026-10-07T19:39:07-07:00*
G04 #@! TF.ProjectId,PassiveAttenuatorFaceplate,50617373-6976-4654-9174-74656e756174,1.0*
G04 #@! TF.SameCoordinates,Original*
G04 #@! TF.FileFunction,Copper,L1,Top*
G04 #@! TF.FilePolarity,Positive*
%FSLAX46Y46*%
G04 Gerber Fmt 4.6, Leading zero omitted, Abs format (unit mm)*
G04 Created by KiCad (PCBNEW 10.0.6) date 2026-10-07 19:39:07*
%MOMM*%
%LPD*%
G01*
G04 APERTURE LIST*
G04 APERTURE END LIST*
G04 #@! TA.AperFunction,NonConductor*
G36*
X157342539Y-23370186D02*
G01*
X157388294Y-23422990D01*
X157399500Y-23474501D01*
X157399500Y-151525501D01*
X157379815Y-151592540D01*
X157327011Y-151638295D01*
X157275500Y-151649501D01*
X142724500Y-151649501D01*
X142657461Y-151629816D01*
X142611706Y-151577012D01*
X142600500Y-151525501D01*
X142600500Y-148628711D01*
X148149500Y-148628711D01*
X148149500Y-148871288D01*
X148181161Y-149111785D01*
X148243947Y-149346104D01*
X148336773Y-149570205D01*
X148336776Y-149570212D01*
X148458064Y-149780289D01*
X148458066Y-149780292D01*
X148458067Y-149780293D01*
X148605733Y-149972736D01*
X148605739Y-149972743D01*
X148777256Y-150144260D01*
X148777262Y-150144265D01*
X148969711Y-150291936D01*
X149179788Y-150413224D01*
X149403900Y-150506054D01*
X149638211Y-150568838D01*
X149818586Y-150592584D01*
X149878711Y-150600500D01*
X149878712Y-150600500D01*
X150121289Y-150600500D01*
X150169388Y-150594167D01*
X150361789Y-150568838D01*
X150596100Y-150506054D01*
X150820212Y-150413224D01*
X151030289Y-150291936D01*
X151222738Y-150144265D01*
X151394265Y-149972738D01*
X151541936Y-149780289D01*
X151663224Y-149570212D01*
X151756054Y-149346100D01*
X151818838Y-149111789D01*
X151850500Y-148871288D01*
X151850500Y-148628712D01*
X151818838Y-148388211D01*
X151756054Y-148153900D01*
X151663224Y-147929788D01*
X151541936Y-147719711D01*
X151394265Y-147527262D01*
X151394260Y-147527256D01*
X151222743Y-147355739D01*
X151222736Y-147355733D01*
X151030293Y-147208067D01*
X151030292Y-147208066D01*
X151030289Y-147208064D01*
X150820212Y-147086776D01*
X150820205Y-147086773D01*
X150596104Y-146993947D01*
X150361785Y-146931161D01*
X150121289Y-146899500D01*
X150121288Y-146899500D01*
X149878712Y-146899500D01*
X149878711Y-146899500D01*
X149638214Y-146931161D01*
X149403895Y-146993947D01*
X149179794Y-147086773D01*
X149179785Y-147086777D01*
X148969706Y-147208067D01*
X148777263Y-147355733D01*
X148777256Y-147355739D01*
X148605739Y-147527256D01*
X148605733Y-147527263D01*
X148458067Y-147719706D01*
X148336777Y-147929785D01*
X148336773Y-147929794D01*
X148243947Y-148153895D01*
X148181161Y-148388214D01*
X148149500Y-148628711D01*
X142600500Y-148628711D01*
X142600500Y-132340315D01*
X146749500Y-132340315D01*
X146749500Y-132659682D01*
X146780803Y-132977521D01*
X146843109Y-133290753D01*
X146935820Y-133596381D01*
X147058040Y-133891445D01*
X147058042Y-133891450D01*
X147208584Y-134173093D01*
X147208601Y-134173121D01*
X147386012Y-134438637D01*
X147386029Y-134438660D01*
X147588638Y-134685539D01*
X147814459Y-134911360D01*
X147814464Y-134911364D01*
X147814465Y-134911365D01*
X148061344Y-135113974D01*
X148061351Y-135113979D01*
X148061361Y-135113986D01*
X148326877Y-135291397D01*
X148326882Y-135291400D01*
X148326894Y-135291408D01*
X148326903Y-135291412D01*
X148326905Y-135291414D01*
X148608548Y-135441956D01*
X148608550Y-135441956D01*
X148608556Y-135441960D01*
X148903619Y-135564179D01*
X149209240Y-135656888D01*
X149522477Y-135719195D01*
X149840313Y-135750499D01*
X149840316Y-135750499D01*
X150159684Y-135750499D01*
X150159687Y-135750499D01*
X150477523Y-135719195D01*
X150790760Y-135656888D01*
X151096381Y-135564179D01*
X151391444Y-135441960D01*
X151673106Y-135291408D01*
X151938656Y-135113974D01*
X152185535Y-134911365D01*
X152411366Y-134685534D01*
X152613975Y-134438655D01*
X152791409Y-134173105D01*
X152941961Y-133891443D01*
X153064180Y-133596380D01*
X153156889Y-133290759D01*
X153219196Y-132977522D01*
X153250500Y-132659686D01*
X153250500Y-132340312D01*
X153219196Y-132022476D01*
X153156889Y-131709239D01*
X153064180Y-131403618D01*
X152941961Y-131108555D01*
X152791409Y-130826893D01*
X152791398Y-130826876D01*
X152613987Y-130561360D01*
X152613980Y-130561350D01*
X152613975Y-130561343D01*
X152411366Y-130314464D01*
X152411365Y-130314463D01*
X152411361Y-130314458D01*
X152185540Y-130088637D01*
X151938661Y-129886028D01*
X151938638Y-129886011D01*
X151673122Y-129708600D01*
X151673094Y-129708583D01*
X151391451Y-129558041D01*
X151391446Y-129558039D01*
X151096382Y-129435819D01*
X150790754Y-129343108D01*
X150477521Y-129280802D01*
X150477522Y-129280802D01*
X150238141Y-129257226D01*
X150159687Y-129249499D01*
X149840313Y-129249499D01*
X149767822Y-129256638D01*
X149522477Y-129280802D01*
X149209245Y-129343108D01*
X148903617Y-129435819D01*
X148608553Y-129558039D01*
X148608548Y-129558041D01*
X148326905Y-129708583D01*
X148326877Y-129708600D01*
X148061361Y-129886011D01*
X148061338Y-129886028D01*
X147814459Y-130088637D01*
X147588638Y-130314458D01*
X147386029Y-130561337D01*
X147386012Y-130561360D01*
X147208601Y-130826876D01*
X147208584Y-130826904D01*
X147058042Y-131108547D01*
X147058040Y-131108552D01*
X146935820Y-131403616D01*
X146843109Y-131709244D01*
X146780803Y-132022476D01*
X146749500Y-132340315D01*
X142600500Y-132340315D01*
X142600500Y-117340315D01*
X146749500Y-117340315D01*
X146749500Y-117659682D01*
X146780803Y-117977521D01*
X146843109Y-118290753D01*
X146935820Y-118596381D01*
X147058040Y-118891445D01*
X147058042Y-118891450D01*
X147208584Y-119173093D01*
X147208601Y-119173121D01*
X147386012Y-119438637D01*
X147386029Y-119438660D01*
X147588638Y-119685539D01*
X147814459Y-119911360D01*
X147814464Y-119911364D01*
X147814465Y-119911365D01*
X148061344Y-120113974D01*
X148061351Y-120113979D01*
X148061361Y-120113986D01*
X148326877Y-120291397D01*
X148326882Y-120291400D01*
X148326894Y-120291408D01*
X148326903Y-120291412D01*
X148326905Y-120291414D01*
X148608548Y-120441956D01*
X148608550Y-120441956D01*
X148608556Y-120441960D01*
X148903619Y-120564179D01*
X149209240Y-120656888D01*
X149522477Y-120719195D01*
X149840313Y-120750499D01*
X149840316Y-120750499D01*
X150159684Y-120750499D01*
X150159687Y-120750499D01*
X150477523Y-120719195D01*
X150790760Y-120656888D01*
X151096381Y-120564179D01*
X151391444Y-120441960D01*
X151673106Y-120291408D01*
X151938656Y-120113974D01*
X152185535Y-119911365D01*
X152411366Y-119685534D01*
X152613975Y-119438655D01*
X152791409Y-119173105D01*
X152941961Y-118891443D01*
X153064180Y-118596380D01*
X153156889Y-118290759D01*
X153219196Y-117977522D01*
X153250500Y-117659686D01*
X153250500Y-117340312D01*
X153219196Y-117022476D01*
X153156889Y-116709239D01*
X153064180Y-116403618D01*
X152941961Y-116108555D01*
X152791409Y-115826893D01*
X152791398Y-115826876D01*
X152613987Y-115561360D01*
X152613980Y-115561350D01*
X152613975Y-115561343D01*
X152411366Y-115314464D01*
X152411365Y-115314463D01*
X152411361Y-115314458D01*
X152185540Y-115088637D01*
X151938661Y-114886028D01*
X151938638Y-114886011D01*
X151673122Y-114708600D01*
X151673094Y-114708583D01*
X151391451Y-114558041D01*
X151391446Y-114558039D01*
X151096382Y-114435819D01*
X150790754Y-114343108D01*
X150477521Y-114280802D01*
X150477522Y-114280802D01*
X150238141Y-114257226D01*
X150159687Y-114249499D01*
X149840313Y-114249499D01*
X149767822Y-114256638D01*
X149522477Y-114280802D01*
X149209245Y-114343108D01*
X148903617Y-114435819D01*
X148608553Y-114558039D01*
X148608548Y-114558041D01*
X148326905Y-114708583D01*
X148326877Y-114708600D01*
X148061361Y-114886011D01*
X148061338Y-114886028D01*
X147814459Y-115088637D01*
X147588638Y-115314458D01*
X147386029Y-115561337D01*
X147386012Y-115561360D01*
X147208601Y-115826876D01*
X147208584Y-115826904D01*
X147058042Y-116108547D01*
X147058040Y-116108552D01*
X146935820Y-116403616D01*
X146843109Y-116709244D01*
X146780803Y-117022476D01*
X146749500Y-117340315D01*
X142600500Y-117340315D01*
X142600500Y-97315752D01*
X146249500Y-97315752D01*
X146249500Y-97684245D01*
X146285618Y-98050974D01*
X146357504Y-98412374D01*
X146357507Y-98412385D01*
X146464480Y-98765029D01*
X146605500Y-99105480D01*
X146605502Y-99105485D01*
X146779202Y-99430455D01*
X146779213Y-99430473D01*
X146983931Y-99736855D01*
X146983941Y-99736869D01*
X147217715Y-100021723D01*
X147478275Y-100282283D01*
X147478280Y-100282287D01*
X147478281Y-100282288D01*
X147763135Y-100516062D01*
X148069532Y-100720790D01*
X148069541Y-100720795D01*
X148069543Y-100720796D01*
X148394513Y-100894496D01*
X148394515Y-100894496D01*
X148394521Y-100894500D01*
X148734971Y-101035519D01*
X149087604Y-101142489D01*
X149087610Y-101142490D01*
X149087613Y-101142491D01*
X149087624Y-101142494D01*
X149449024Y-101214380D01*
X149815750Y-101250499D01*
X149815753Y-101250499D01*
X150184247Y-101250499D01*
X150184250Y-101250499D01*
X150550976Y-101214380D01*
X150621331Y-101200385D01*
X150912375Y-101142494D01*
X150912386Y-101142491D01*
X150912386Y-101142490D01*
X150912396Y-101142489D01*
X151265029Y-101035519D01*
X151605479Y-100894500D01*
X151930468Y-100720790D01*
X152236865Y-100516062D01*
X152521719Y-100282288D01*
X152782289Y-100021718D01*
X153016063Y-99736864D01*
X153220791Y-99430467D01*
X153394501Y-99105478D01*
X153535520Y-98765028D01*
X153642490Y-98412395D01*
X153642492Y-98412385D01*
X153642495Y-98412374D01*
X153714381Y-98050974D01*
X153750500Y-97684245D01*
X153750500Y-97315752D01*
X153714381Y-96949023D01*
X153642495Y-96587623D01*
X153642492Y-96587612D01*
X153642491Y-96587609D01*
X153642490Y-96587603D01*
X153535520Y-96234970D01*
X153394501Y-95894520D01*
X153220791Y-95569531D01*
X153016063Y-95263134D01*
X152782289Y-94978280D01*
X152782288Y-94978279D01*
X152782284Y-94978274D01*
X152521724Y-94717714D01*
X152236870Y-94483940D01*
X152236869Y-94483939D01*
X152236865Y-94483936D01*
X151930468Y-94279208D01*
X151930463Y-94279205D01*
X151930456Y-94279201D01*
X151605486Y-94105501D01*
X151605481Y-94105499D01*
X151265030Y-93964479D01*
X150912386Y-93857506D01*
X150912375Y-93857503D01*
X150550975Y-93785617D01*
X150274772Y-93758414D01*
X150184250Y-93749499D01*
X149815750Y-93749499D01*
X149732109Y-93757736D01*
X149449024Y-93785617D01*
X149087624Y-93857503D01*
X149087613Y-93857506D01*
X148734969Y-93964479D01*
X148394518Y-94105499D01*
X148394513Y-94105501D01*
X148069543Y-94279201D01*
X148069525Y-94279212D01*
X147763143Y-94483930D01*
X147763129Y-94483940D01*
X147478275Y-94717714D01*
X147217715Y-94978274D01*
X146983941Y-95263128D01*
X146983931Y-95263142D01*
X146779213Y-95569524D01*
X146779202Y-95569542D01*
X146605502Y-95894512D01*
X146605500Y-95894517D01*
X146464480Y-96234968D01*
X146357507Y-96587612D01*
X146357504Y-96587623D01*
X146285618Y-96949023D01*
X146249500Y-97315752D01*
X142600500Y-97315752D01*
X142600500Y-77340315D01*
X146749500Y-77340315D01*
X146749500Y-77659682D01*
X146780803Y-77977521D01*
X146843109Y-78290753D01*
X146935820Y-78596381D01*
X147058040Y-78891445D01*
X147058042Y-78891450D01*
X147208584Y-79173093D01*
X147208601Y-79173121D01*
X147386012Y-79438637D01*
X147386029Y-79438660D01*
X147588638Y-79685539D01*
X147814459Y-79911360D01*
X147814464Y-79911364D01*
X147814465Y-79911365D01*
X148061344Y-80113974D01*
X148061351Y-80113979D01*
X148061361Y-80113986D01*
X148326877Y-80291397D01*
X148326882Y-80291400D01*
X148326894Y-80291408D01*
X148326903Y-80291412D01*
X148326905Y-80291414D01*
X148608548Y-80441956D01*
X148608550Y-80441956D01*
X148608556Y-80441960D01*
X148903619Y-80564179D01*
X149209240Y-80656888D01*
X149522477Y-80719195D01*
X149840313Y-80750499D01*
X149840316Y-80750499D01*
X150159684Y-80750499D01*
X150159687Y-80750499D01*
X150477523Y-80719195D01*
X150790760Y-80656888D01*
X151096381Y-80564179D01*
X151391444Y-80441960D01*
X151673106Y-80291408D01*
X151938656Y-80113974D01*
X152185535Y-79911365D01*
X152411366Y-79685534D01*
X152613975Y-79438655D01*
X152791409Y-79173105D01*
X152941961Y-78891443D01*
X153064180Y-78596380D01*
X153156889Y-78290759D01*
X153219196Y-77977522D01*
X153250500Y-77659686D01*
X153250500Y-77340312D01*
X153219196Y-77022476D01*
X153156889Y-76709239D01*
X153064180Y-76403618D01*
X152941961Y-76108555D01*
X152791409Y-75826893D01*
X152791398Y-75826876D01*
X152613987Y-75561360D01*
X152613980Y-75561350D01*
X152613975Y-75561343D01*
X152411366Y-75314464D01*
X152411365Y-75314463D01*
X152411361Y-75314458D01*
X152185540Y-75088637D01*
X151938661Y-74886028D01*
X151938638Y-74886011D01*
X151673122Y-74708600D01*
X151673094Y-74708583D01*
X151391451Y-74558041D01*
X151391446Y-74558039D01*
X151096382Y-74435819D01*
X150790754Y-74343108D01*
X150477521Y-74280802D01*
X150477522Y-74280802D01*
X150238141Y-74257226D01*
X150159687Y-74249499D01*
X149840313Y-74249499D01*
X149767822Y-74256638D01*
X149522477Y-74280802D01*
X149209245Y-74343108D01*
X148903617Y-74435819D01*
X148608553Y-74558039D01*
X148608548Y-74558041D01*
X148326905Y-74708583D01*
X148326877Y-74708600D01*
X148061361Y-74886011D01*
X148061338Y-74886028D01*
X147814459Y-75088637D01*
X147588638Y-75314458D01*
X147386029Y-75561337D01*
X147386012Y-75561360D01*
X147208601Y-75826876D01*
X147208584Y-75826904D01*
X147058042Y-76108547D01*
X147058040Y-76108552D01*
X146935820Y-76403616D01*
X146843109Y-76709244D01*
X146780803Y-77022476D01*
X146749500Y-77340315D01*
X142600500Y-77340315D01*
X142600500Y-62340315D01*
X146749500Y-62340315D01*
X146749500Y-62659682D01*
X146780803Y-62977521D01*
X146843109Y-63290753D01*
X146935820Y-63596381D01*
X147058040Y-63891445D01*
X147058042Y-63891450D01*
X147208584Y-64173093D01*
X147208601Y-64173121D01*
X147386012Y-64438637D01*
X147386029Y-64438660D01*
X147588638Y-64685539D01*
X147814459Y-64911360D01*
X147814464Y-64911364D01*
X147814465Y-64911365D01*
X148061344Y-65113974D01*
X148061351Y-65113979D01*
X148061361Y-65113986D01*
X148326877Y-65291397D01*
X148326882Y-65291400D01*
X148326894Y-65291408D01*
X148326903Y-65291412D01*
X148326905Y-65291414D01*
X148608548Y-65441956D01*
X148608550Y-65441956D01*
X148608556Y-65441960D01*
X148903619Y-65564179D01*
X149209240Y-65656888D01*
X149522477Y-65719195D01*
X149840313Y-65750499D01*
X149840316Y-65750499D01*
X150159684Y-65750499D01*
X150159687Y-65750499D01*
X150477523Y-65719195D01*
X150790760Y-65656888D01*
X151096381Y-65564179D01*
X151391444Y-65441960D01*
X151673106Y-65291408D01*
X151938656Y-65113974D01*
X152185535Y-64911365D01*
X152411366Y-64685534D01*
X152613975Y-64438655D01*
X152791409Y-64173105D01*
X152941961Y-63891443D01*
X153064180Y-63596380D01*
X153156889Y-63290759D01*
X153219196Y-62977522D01*
X153250500Y-62659686D01*
X153250500Y-62340312D01*
X153219196Y-62022476D01*
X153156889Y-61709239D01*
X153064180Y-61403618D01*
X152941961Y-61108555D01*
X152791409Y-60826893D01*
X152791398Y-60826876D01*
X152613987Y-60561360D01*
X152613980Y-60561350D01*
X152613975Y-60561343D01*
X152411366Y-60314464D01*
X152411365Y-60314463D01*
X152411361Y-60314458D01*
X152185540Y-60088637D01*
X151938661Y-59886028D01*
X151938638Y-59886011D01*
X151673122Y-59708600D01*
X151673094Y-59708583D01*
X151391451Y-59558041D01*
X151391446Y-59558039D01*
X151096382Y-59435819D01*
X150790754Y-59343108D01*
X150477521Y-59280802D01*
X150477522Y-59280802D01*
X150238141Y-59257226D01*
X150159687Y-59249499D01*
X149840313Y-59249499D01*
X149767822Y-59256638D01*
X149522477Y-59280802D01*
X149209245Y-59343108D01*
X148903617Y-59435819D01*
X148608553Y-59558039D01*
X148608548Y-59558041D01*
X148326905Y-59708583D01*
X148326877Y-59708600D01*
X148061361Y-59886011D01*
X148061338Y-59886028D01*
X147814459Y-60088637D01*
X147588638Y-60314458D01*
X147386029Y-60561337D01*
X147386012Y-60561360D01*
X147208601Y-60826876D01*
X147208584Y-60826904D01*
X147058042Y-61108547D01*
X147058040Y-61108552D01*
X146935820Y-61403616D01*
X146843109Y-61709244D01*
X146780803Y-62022476D01*
X146749500Y-62340315D01*
X142600500Y-62340315D01*
X142600500Y-42315752D01*
X146249500Y-42315752D01*
X146249500Y-42684245D01*
X146285618Y-43050974D01*
X146357504Y-43412374D01*
X146357507Y-43412385D01*
X146464480Y-43765029D01*
X146605500Y-44105480D01*
X146605502Y-44105485D01*
X146779202Y-44430455D01*
X146779213Y-44430473D01*
X146983931Y-44736855D01*
X146983941Y-44736869D01*
X147217715Y-45021723D01*
X147478275Y-45282283D01*
X147478280Y-45282287D01*
X147478281Y-45282288D01*
X147763135Y-45516062D01*
X148069532Y-45720790D01*
X148069541Y-45720795D01*
X148069543Y-45720796D01*
X148394513Y-45894496D01*
X148394515Y-45894496D01*
X148394521Y-45894500D01*
X148734971Y-46035519D01*
X149087604Y-46142489D01*
X149087610Y-46142490D01*
X149087613Y-46142491D01*
X149087624Y-46142494D01*
X149449024Y-46214380D01*
X149815750Y-46250499D01*
X149815753Y-46250499D01*
X150184247Y-46250499D01*
X150184250Y-46250499D01*
X150550976Y-46214380D01*
X150621331Y-46200385D01*
X150912375Y-46142494D01*
X150912386Y-46142491D01*
X150912386Y-46142490D01*
X150912396Y-46142489D01*
X151265029Y-46035519D01*
X151605479Y-45894500D01*
X151930468Y-45720790D01*
X152236865Y-45516062D01*
X152521719Y-45282288D01*
X152782289Y-45021718D01*
X153016063Y-44736864D01*
X153220791Y-44430467D01*
X153394501Y-44105478D01*
X153535520Y-43765028D01*
X153642490Y-43412395D01*
X153642492Y-43412385D01*
X153642495Y-43412374D01*
X153714381Y-43050974D01*
X153750500Y-42684245D01*
X153750500Y-42315752D01*
X153714381Y-41949023D01*
X153642495Y-41587623D01*
X153642492Y-41587612D01*
X153642491Y-41587609D01*
X153642490Y-41587603D01*
X153535520Y-41234970D01*
X153394501Y-40894520D01*
X153220791Y-40569531D01*
X153016063Y-40263134D01*
X152782289Y-39978280D01*
X152782288Y-39978279D01*
X152782284Y-39978274D01*
X152521724Y-39717714D01*
X152236870Y-39483940D01*
X152236869Y-39483939D01*
X152236865Y-39483936D01*
X151930468Y-39279208D01*
X151930463Y-39279205D01*
X151930456Y-39279201D01*
X151605486Y-39105501D01*
X151605481Y-39105499D01*
X151265030Y-38964479D01*
X150912386Y-38857506D01*
X150912375Y-38857503D01*
X150550975Y-38785617D01*
X150274772Y-38758414D01*
X150184250Y-38749499D01*
X149815750Y-38749499D01*
X149732109Y-38757736D01*
X149449024Y-38785617D01*
X149087624Y-38857503D01*
X149087613Y-38857506D01*
X148734969Y-38964479D01*
X148394518Y-39105499D01*
X148394513Y-39105501D01*
X148069543Y-39279201D01*
X148069525Y-39279212D01*
X147763143Y-39483930D01*
X147763129Y-39483940D01*
X147478275Y-39717714D01*
X147217715Y-39978274D01*
X146983941Y-40263128D01*
X146983931Y-40263142D01*
X146779213Y-40569524D01*
X146779202Y-40569542D01*
X146605502Y-40894512D01*
X146605500Y-40894517D01*
X146464480Y-41234968D01*
X146357507Y-41587612D01*
X146357504Y-41587623D01*
X146285618Y-41949023D01*
X146249500Y-42315752D01*
X142600500Y-42315752D01*
X142600500Y-26128710D01*
X148149500Y-26128710D01*
X148149500Y-26371287D01*
X148181161Y-26611784D01*
X148243947Y-26846103D01*
X148336773Y-27070204D01*
X148336776Y-27070211D01*
X148458064Y-27280288D01*
X148458066Y-27280291D01*
X148458067Y-27280292D01*
X148605733Y-27472735D01*
X148605739Y-27472742D01*
X148777256Y-27644259D01*
X148777262Y-27644264D01*
X148969711Y-27791935D01*
X149179788Y-27913223D01*
X149403900Y-28006053D01*
X149638211Y-28068837D01*
X149818586Y-28092583D01*
X149878711Y-28100499D01*
X149878712Y-28100499D01*
X150121289Y-28100499D01*
X150169388Y-28094166D01*
X150361789Y-28068837D01*
X150596100Y-28006053D01*
X150820212Y-27913223D01*
X151030289Y-27791935D01*
X151222738Y-27644264D01*
X151394265Y-27472737D01*
X151541936Y-27280288D01*
X151663224Y-27070211D01*
X151756054Y-26846099D01*
X151818838Y-26611788D01*
X151850500Y-26371287D01*
X151850500Y-26128711D01*
X151818838Y-25888210D01*
X151756054Y-25653899D01*
X151663224Y-25429787D01*
X151541936Y-25219710D01*
X151394265Y-25027261D01*
X151394260Y-25027255D01*
X151222743Y-24855738D01*
X151222736Y-24855732D01*
X151030293Y-24708066D01*
X151030292Y-24708065D01*
X151030289Y-24708063D01*
X150820212Y-24586775D01*
X150820205Y-24586772D01*
X150596104Y-24493946D01*
X150361785Y-24431160D01*
X150121289Y-24399499D01*
X150121288Y-24399499D01*
X149878712Y-24399499D01*
X149878711Y-24399499D01*
X149638214Y-24431160D01*
X149403895Y-24493946D01*
X149179794Y-24586772D01*
X149179785Y-24586776D01*
X148969706Y-24708066D01*
X148777263Y-24855732D01*
X148777256Y-24855738D01*
X148605739Y-25027255D01*
X148605733Y-25027262D01*
X148458067Y-25219705D01*
X148336777Y-25429784D01*
X148336773Y-25429793D01*
X148243947Y-25653894D01*
X148181161Y-25888213D01*
X148149500Y-26128710D01*
X142600500Y-26128710D01*
X142600500Y-23474501D01*
X142620185Y-23407462D01*
X142672989Y-23361707D01*
X142724500Y-23350501D01*
X157275500Y-23350501D01*
X157342539Y-23370186D01*
G37*
G04 #@! TD.AperFunction*
M02*
